<svg width="50" height="50" viewBox="0 0 50 50" fill="none" xmlns="http://www.w3.org/2000/svg">
<mask id="path-1-inside-1_752_5703" fill="white">
<rect x="16.6199" y="30.7214" width="17.0068" height="8.74669" rx="0.610714"/>
</mask>
<rect x="16.6199" y="30.7214" width="17.0068" height="8.74669" rx="0.610714" fill="#FEFEFE" stroke="black" stroke-width="2.4" stroke-linejoin="round" mask="url(#path-1-inside-1_752_5703)"/>
<path fill-rule="evenodd" clip-rule="evenodd" d="M27.1453 28.6081C27.1453 29.47 27.844 30.1688 28.706 30.1688H37.0084C37.8703 30.1688 38.5691 29.47 38.5691 28.6081V22.642C38.5691 21.7801 37.8703 21.0813 37.0084 21.0813L28.706 21.0813C27.844 21.0813 27.1453 21.7801 27.1453 22.642L27.1453 28.6081ZM36.6691 28.2688L29.0453 28.2688V22.9813L36.6691 22.9813V28.2688Z" fill="white"/>
<path d="M27.1453 28.6081L27.7453 28.6081V28.6081L27.1453 28.6081ZM37.0084 21.0813L37.0084 20.4813H37.0084L37.0084 21.0813ZM28.706 21.0813L28.706 21.6813H28.706L28.706 21.0813ZM27.1453 22.642L26.5453 22.642V22.642L27.1453 22.642ZM29.0453 28.2688H28.4453C28.4453 28.4279 28.5085 28.5805 28.621 28.6931C28.7335 28.8056 28.8861 28.8688 29.0453 28.8688L29.0453 28.2688ZM36.6691 28.2688L36.6691 28.8688C37.0004 28.8688 37.2691 28.6002 37.2691 28.2688H36.6691ZM29.0453 22.9813L29.0453 22.3813C28.7139 22.3813 28.4453 22.6499 28.4453 22.9813H29.0453ZM36.6691 22.9813H37.2691C37.2691 22.8222 37.2059 22.6696 37.0933 22.557C36.9808 22.4445 36.8282 22.3813 36.6691 22.3813L36.6691 22.9813ZM28.706 29.5688C28.1754 29.5688 27.7453 29.1387 27.7453 28.6081H26.5453C26.5453 29.8014 27.5126 30.7688 28.706 30.7688V29.5688ZM37.0084 29.5688H28.706V30.7688H37.0084V29.5688ZM37.9691 28.6081C37.9691 29.1387 37.5389 29.5688 37.0084 29.5688V30.7688C38.2017 30.7688 39.1691 29.8014 39.1691 28.6081H37.9691ZM37.9691 22.642V28.6081H39.1691V22.642H37.9691ZM37.0084 21.6813C37.5389 21.6813 37.9691 22.1114 37.9691 22.642H39.1691C39.1691 21.4487 38.2017 20.4813 37.0084 20.4813V21.6813ZM28.706 21.6813L37.0084 21.6813L37.0084 20.4813L28.706 20.4813L28.706 21.6813ZM27.7453 22.642C27.7453 22.1114 28.1754 21.6813 28.706 21.6813V20.4813C27.5126 20.4813 26.5453 21.4487 26.5453 22.642H27.7453ZM27.7453 28.6081L27.7453 22.642L26.5453 22.642L26.5453 28.6081L27.7453 28.6081ZM29.0453 28.8688L36.6691 28.8688L36.6691 27.6688L29.0453 27.6688L29.0453 28.8688ZM28.4453 22.9813V28.2688H29.6453V22.9813H28.4453ZM36.6691 22.3813L29.0453 22.3813L29.0453 23.5813L36.6691 23.5813L36.6691 22.3813ZM37.2691 28.2688V22.9813H36.0691V28.2688H37.2691Z" fill="black"/>
<mask id="path-4-inside-2_752_5703" fill="white">
<path fill-rule="evenodd" clip-rule="evenodd" d="M27.3895 20.7949C26.5882 20.6994 25.8448 20.4293 25.2041 20.0264C24.516 20.459 23.7096 20.7386 22.8401 20.8132C22.0232 21.71 20.8094 22.2784 19.4542 22.2784C16.9942 22.2784 15 20.4056 15 18.0952C15 16.3979 16.0764 14.9366 17.6231 14.2807C18.3704 12.5057 20.2139 11.25 22.3696 11.25C23.4185 11.25 24.3934 11.5472 25.2041 12.0569C26.0148 11.5472 26.9897 11.25 28.0385 11.25C30.2305 11.25 32.0996 12.5482 32.8218 14.3706C34.2612 15.0639 35.2462 16.4715 35.2462 18.0952C35.2462 20.4056 33.252 22.2784 30.792 22.2784C29.4276 22.2784 28.2065 21.7023 27.3895 20.7949Z"/>
</mask>
<path fill-rule="evenodd" clip-rule="evenodd" d="M27.3895 20.7949C26.5882 20.6994 25.8448 20.4293 25.2041 20.0264C24.516 20.459 23.7096 20.7386 22.8401 20.8132C22.0232 21.71 20.8094 22.2784 19.4542 22.2784C16.9942 22.2784 15 20.4056 15 18.0952C15 16.3979 16.0764 14.9366 17.6231 14.2807C18.3704 12.5057 20.2139 11.25 22.3696 11.25C23.4185 11.25 24.3934 11.5472 25.2041 12.0569C26.0148 11.5472 26.9897 11.25 28.0385 11.25C30.2305 11.25 32.0996 12.5482 32.8218 14.3706C34.2612 15.0639 35.2462 16.4715 35.2462 18.0952C35.2462 20.4056 33.252 22.2784 30.792 22.2784C29.4276 22.2784 28.2065 21.7023 27.3895 20.7949Z" fill="white"/>
<path d="M27.3895 20.7949L28.2812 19.9919L27.9794 19.6568L27.5316 19.6034L27.3895 20.7949ZM25.2041 20.0264L25.8428 19.0105L25.2041 18.609L24.5654 19.0105L25.2041 20.0264ZM22.8401 20.8132L22.7375 19.6176L22.2694 19.6578L21.953 20.0051L22.8401 20.8132ZM17.6231 14.2807L18.0916 15.3855L18.5401 15.1953L18.7291 14.7463L17.6231 14.2807ZM25.2041 12.0569L24.5654 13.0728L25.2041 13.4743L25.8428 13.0728L25.2041 12.0569ZM32.8218 14.3706L31.7061 14.8127L31.8788 15.2484L32.301 15.4518L32.8218 14.3706ZM27.5316 19.6034C26.9081 19.529 26.3342 19.3195 25.8428 19.0105L24.5654 21.0424C25.3555 21.5391 26.2682 21.8697 27.2474 21.9865L27.5316 19.6034ZM24.5654 19.0105C24.0377 19.3423 23.4148 19.5595 22.7375 19.6176L22.9428 22.0088C24.0044 21.9177 24.9943 21.5758 25.8428 21.0424L24.5654 19.0105ZM21.953 20.0051C21.3631 20.6527 20.4712 21.0784 19.4542 21.0784V23.4784C21.1475 23.4784 22.6832 22.7674 23.7272 21.6213L21.953 20.0051ZM19.4542 21.0784C17.5849 21.0784 16.2 19.673 16.2 18.0952H13.8C13.8 21.1381 16.4035 23.4784 19.4542 23.4784V21.0784ZM16.2 18.0952C16.2 16.9297 16.9403 15.8737 18.0916 15.3855L17.1547 13.1759C15.2126 13.9995 13.8 15.866 13.8 18.0952H16.2ZM18.7291 14.7463C19.282 13.4329 20.6784 12.45 22.3696 12.45V10.05C19.7494 10.05 17.4587 11.5784 16.5171 13.8151L18.7291 14.7463ZM22.3696 12.45C23.19 12.45 23.9439 12.6821 24.5654 13.0728L25.8428 11.041C24.8428 10.4124 23.6469 10.05 22.3696 10.05V12.45ZM25.8428 13.0728C26.4643 12.6821 27.2182 12.45 28.0385 12.45V10.05C26.7613 10.05 25.5653 10.4124 24.5654 11.041L25.8428 13.0728ZM28.0385 12.45C29.7588 12.45 31.1727 13.4664 31.7061 14.8127L33.9374 13.9286C33.0266 11.63 30.7023 10.05 28.0385 10.05V12.45ZM32.301 15.4518C33.3693 15.9663 34.0462 16.9795 34.0462 18.0952H36.4462C36.4462 15.9636 35.1531 14.1615 33.3425 13.2895L32.301 15.4518ZM34.0462 18.0952C34.0462 19.673 32.6613 21.0784 30.792 21.0784V23.4784C33.8427 23.4784 36.4462 21.1381 36.4462 18.0952H34.0462ZM30.792 21.0784C29.7681 21.0784 28.871 20.6469 28.2812 19.9919L26.4977 21.5979C27.5421 22.7577 29.0872 23.4784 30.792 23.4784V21.0784Z" fill="#0C0000" mask="url(#path-4-inside-2_752_5703)"/>
<path d="M15.6 18.3148H34.6462V35.8883C34.6462 36.2315 34.368 36.5097 34.0248 36.5097H16.2214C15.8782 36.5097 15.6 36.2315 15.6 35.8883V18.3148Z" fill="#FEFEFE" stroke="black" stroke-width="1.2"/>
</svg>
