<svg width="126" height="36" viewBox="0 0 126 36" fill="none" xmlns="http://www.w3.org/2000/svg">
<path fill-rule="evenodd" clip-rule="evenodd" d="M7 1C3.68629 1 1 3.68629 1 7V29C1 32.3137 3.68629 35 7 35H111C114.314 35 117 32.3137 117 29V25.1395L123.818 20.1094C124.902 19.3101 124.902 17.6899 123.818 16.8906L117 11.8605V7C117 3.68629 114.314 1 111 1H7Z" fill="white"/>
<path d="M117 25.1395L116.703 24.7372C116.575 24.8314 116.5 24.9808 116.5 25.1395H117ZM123.818 20.1094L123.522 19.7071L123.522 19.7071L123.818 20.1094ZM123.818 16.8906L124.115 16.4882L124.115 16.4882L123.818 16.8906ZM117 11.8605H116.5C116.5 12.0192 116.575 12.1686 116.703 12.2628L117 11.8605ZM1.5 7C1.5 3.96243 3.96243 1.5 7 1.5V0.5C3.41015 0.5 0.5 3.41015 0.5 7H1.5ZM1.5 29V7H0.5V29H1.5ZM7 34.5C3.96243 34.5 1.5 32.0376 1.5 29H0.5C0.5 32.5898 3.41015 35.5 7 35.5V34.5ZM111 34.5H7V35.5H111V34.5ZM116.5 29C116.5 32.0376 114.038 34.5 111 34.5V35.5C114.59 35.5 117.5 32.5899 117.5 29H116.5ZM116.5 25.1395V29H117.5V25.1395H116.5ZM123.522 19.7071L116.703 24.7372L117.297 25.5419L124.115 20.5118L123.522 19.7071ZM123.522 17.2929C124.334 17.8925 124.334 19.1075 123.522 19.7071L124.115 20.5118C125.47 19.5126 125.47 17.4874 124.115 16.4882L123.522 17.2929ZM116.703 12.2628L123.522 17.2929L124.115 16.4882L117.297 11.4581L116.703 12.2628ZM116.5 7V11.8605H117.5V7H116.5ZM111 1.5C114.038 1.5 116.5 3.96243 116.5 7H117.5C117.5 3.41015 114.59 0.5 111 0.5V1.5ZM7 1.5H111V0.5H7V1.5Z" fill="#FF6265"/>
</svg>
