<svg width="50" height="50" viewBox="0 0 50 50" fill="none" xmlns="http://www.w3.org/2000/svg">
<path fill-rule="evenodd" clip-rule="evenodd" d="M14.3317 15C13.3201 15 12.5 15.8201 12.5 16.8317V25.0298C12.5 31.7152 17.9196 37.1348 24.605 37.1348C30.0507 37.1348 34.6566 33.5387 36.1774 28.5916H37.4256C40.2137 28.5916 42.4739 26.3314 42.4739 23.5434C42.4739 20.7553 40.2137 18.4951 37.4256 18.4951H36.7099V16.8317C36.7099 15.8201 35.8898 15 34.8782 15H14.3317ZM36.6269 26.4547C36.6817 25.9873 36.7099 25.5119 36.7099 25.0298V20.632H37.4256C39.0335 20.632 40.3369 21.9355 40.3369 23.5434C40.3369 25.1512 39.0335 26.4547 37.4256 26.4547H36.6269Z" fill="#FEFEFE"/>
<path d="M36.1774 28.5916V27.9916H35.7341L35.6039 28.4153L36.1774 28.5916ZM36.7099 18.4951H36.1099V19.0951H36.7099V18.4951ZM36.6269 26.4547L36.031 26.3848L35.9525 27.0547H36.6269V26.4547ZM36.7099 20.632V20.032H36.1099V20.632H36.7099ZM37.4256 20.632V21.232V20.632ZM37.4256 26.4547V27.0547V26.4547ZM13.1 16.8317C13.1 16.1514 13.6514 15.6 14.3317 15.6V14.4C12.9887 14.4 11.9 15.4887 11.9 16.8317H13.1ZM13.1 25.0298V16.8317H11.9V25.0298H13.1ZM24.605 36.5348C18.2509 36.5348 13.1 31.3838 13.1 25.0298H11.9C11.9 32.0466 17.5882 37.7348 24.605 37.7348V36.5348ZM35.6039 28.4153C34.1583 33.1177 29.7799 36.5348 24.605 36.5348V37.7348C30.3216 37.7348 35.1549 33.9597 36.7509 28.7679L35.6039 28.4153ZM36.1774 29.1916H37.4256V27.9916H36.1774V29.1916ZM37.4256 29.1916C40.545 29.1916 43.0739 26.6628 43.0739 23.5434H41.8739C41.8739 26.0001 39.8823 27.9916 37.4256 27.9916V29.1916ZM43.0739 23.5434C43.0739 20.4239 40.545 17.8951 37.4256 17.8951V19.0951C39.8823 19.0951 41.8739 21.0866 41.8739 23.5434H43.0739ZM37.4256 17.8951H36.7099V19.0951H37.4256V17.8951ZM36.1099 16.8317V18.4951H37.3099V16.8317H36.1099ZM34.8782 15.6C35.5585 15.6 36.1099 16.1514 36.1099 16.8317H37.3099C37.3099 15.4887 36.2212 14.4 34.8782 14.4V15.6ZM14.3317 15.6H34.8782V14.4H14.3317V15.6ZM36.1099 25.0298C36.1099 25.4885 36.0831 25.9406 36.031 26.3848L37.2229 26.5246C37.2804 26.0341 37.3099 25.5353 37.3099 25.0298H36.1099ZM36.1099 20.632V25.0298H37.3099V20.632H36.1099ZM37.4256 20.032H36.7099V21.232H37.4256V20.032ZM40.9369 23.5434C40.9369 21.6041 39.3648 20.032 37.4256 20.032V21.232C38.7021 21.232 39.7369 22.2668 39.7369 23.5434H40.9369ZM37.4256 27.0547C39.3648 27.0547 40.9369 25.4826 40.9369 23.5434H39.7369C39.7369 24.8199 38.7021 25.8547 37.4256 25.8547V27.0547ZM36.6269 27.0547H37.4256V25.8547H36.6269V27.0547Z" fill="black"/>
</svg>
