<svg width="38" height="38" viewBox="0 0 38 38" fill="none" xmlns="http://www.w3.org/2000/svg">
<path fill-rule="evenodd" clip-rule="evenodd" d="M19 37.75C21.4623 37.75 23.9005 37.265 26.1753 36.3227C28.4502 35.3805 30.5172 33.9993 32.2583 32.2583C33.9993 30.5172 35.3805 28.4502 36.3227 26.1753C37.265 23.9005 37.75 21.4623 37.75 19C37.75 16.5377 37.265 14.0995 36.3227 11.8247C35.3805 9.54983 33.9993 7.48285 32.2583 5.74175C30.5172 4.00065 28.4502 2.61953 26.1753 1.67726C23.9005 0.734983 21.4623 0.25 19 0.25C14.0272 0.25 9.25805 2.22544 5.74175 5.74175C2.22544 9.25805 0.25 14.0272 0.25 19C0.25 23.9728 2.22544 28.7419 5.74175 32.2583C9.25805 35.7746 14.0272 37.75 19 37.75ZM18.5167 26.5833L28.9333 14.0833L25.7333 11.4167L16.775 22.1646L12.1396 17.5271L9.19375 20.4729L15.4437 26.7229L17.0562 28.3354L18.5167 26.5833Z" fill="currentColor"/>
</svg>
