<svg width="250" height="70" viewBox="0 0 250 70" fill="none" xmlns="http://www.w3.org/2000/svg">
<path d="M62.8192 23.7456C67.4012 19.1636 71.9832 15.0607 71.9832 9.99964C71.9832 4.93853 67.8803 0.835693 62.8192 0.835693C57.7581 0.835693 53.6553 4.93853 53.6553 9.99964C53.6553 15.0607 58.2372 19.1636 62.8192 23.7456Z" fill="#FFF5C4" stroke="#FFF5C4" stroke-width="1.55174" stroke-linecap="round" stroke-linejoin="round"/>
<path d="M62.9656 3.51404L62.9656 16.8146" stroke="#FF6265" stroke-width="2.21676" stroke-linecap="round"/>
<path d="M69.616 10.1642L56.3154 10.1642" stroke="#FF6265" stroke-width="2.21676" stroke-linecap="round"/>
<circle cx="62.9246" cy="10.2508" r="4.83725" transform="rotate(90 62.9246 10.2508)" fill="#FFF5C4" stroke="#FF6265" stroke-width="1.73645"/>
<path d="M210.646 69.6054C207.598 69.6054 204.867 69.2274 202.453 68.4715C200.063 67.74 197.734 66.5573 195.466 64.9236V54.5724C197.783 56.0354 199.941 57.084 201.941 57.718C203.94 58.352 206.135 58.669 208.524 58.669C210.695 58.669 212.523 58.2057 214.011 57.2791C215.498 56.3524 216.717 54.7675 217.668 52.5241L217.705 52.4144H211.158L193.382 14.521H209.878L221.655 43.0508L233.689 14.521H249.6L229.519 57.1327C227.471 61.4976 224.801 64.6675 221.509 66.6427C218.217 68.6178 214.596 69.6054 210.646 69.6054Z" fill="#FFF5C4"/>
<path d="M173.255 47.4766C171.231 50.6709 168.671 53.1459 165.574 54.9016C162.502 56.6573 159.064 57.5351 155.26 57.5351C151.212 57.5351 147.615 56.6207 144.469 54.7919C141.348 52.9387 138.922 50.3417 137.191 47.0011C135.459 43.636 134.594 39.7833 134.594 35.4429C134.594 31.0781 135.459 27.2253 137.191 23.8847C138.922 20.5196 141.348 17.9227 144.469 16.0938C147.615 14.2406 151.212 13.314 155.26 13.314C159.015 13.314 162.429 14.1675 165.501 15.8744C168.598 17.5813 171.158 19.9953 173.182 23.1165L175.962 0.00012207H191.47L187.154 34.309L189.788 56.3281H174.316L173.255 47.4766ZM149.7 35.4429C149.7 37.4912 150.127 39.32 150.98 40.9294C151.834 42.5387 153.016 43.8067 154.528 44.7333C156.064 45.6355 157.808 46.0867 159.758 46.0867C161.734 46.0867 163.623 45.6355 165.428 44.7333C167.257 43.8067 168.854 42.5387 170.219 40.9294C171.609 39.32 172.646 37.4912 173.328 35.4429C172.646 33.3946 171.609 31.5657 170.219 29.9564C168.854 28.3226 167.257 27.0546 165.428 26.1524C163.623 25.2258 161.734 24.7625 159.758 24.7625C157.808 24.7625 156.064 25.2258 154.528 26.1524C153.016 27.0546 151.834 28.3226 150.98 29.9564C150.127 31.5657 149.7 33.3946 149.7 35.4429Z" fill="#FFF5C4"/>
<path d="M91.6117 14.5212L93.0382 23.2265C94.8426 20.0077 97.1835 17.5571 100.061 15.8746C102.963 14.1677 106.169 13.3142 109.681 13.3142C113.631 13.3142 117.032 14.1189 119.885 15.7283C122.738 17.3132 124.909 19.581 126.396 22.5315C127.883 25.482 128.627 28.9568 128.627 32.9558V56.3283H113.704V35.1504C113.704 32.0292 112.911 29.6396 111.326 27.9814C109.742 26.3233 107.462 25.4942 104.487 25.4942C102.414 25.4942 100.61 25.9331 99.0733 26.811C97.5615 27.6644 96.391 28.908 95.562 30.5418C94.7573 32.1512 94.3549 34.041 94.3549 36.2112V56.3283H79.3951V28.969L76.6519 14.5212H91.6117Z" fill="#FFF5C4"/>
<path d="M62.8367 30.5048L70.281 27.8982V56.2728H55.4287V27.8982L62.8367 30.5048Z" fill="#FFF5C4"/>
<path d="M48.6398 13.4243H15.1998V23.243H47.2846V36.347H15.1998V56.3203H-0.000244141V0.320312H48.6398V13.4243Z" fill="#FFF5C4"/>
</svg>
