<svg width="323" height="384" viewBox="0 0 323 384" fill="none" xmlns="http://www.w3.org/2000/svg">
<g filter="url(#filter0_d_329_1392)">
<path d="M181.012 346.433C241.974 285.959 297.556 229.61 297.556 161.636C297.556 86.3764 236.546 25.3667 161.287 25.3667C86.0273 25.3667 25.0176 86.3764 25.0176 161.636C25.0176 229.61 80.599 285.959 141.561 346.433C148.515 353.332 151.993 356.781 155.942 358.057C159.435 359.186 163.138 359.186 166.631 358.057C170.581 356.781 174.058 353.332 181.012 346.433Z" fill="#FF6265"/>
<path d="M188.153 353.631C218.514 323.513 248.294 293.705 270.397 262.737C292.577 231.664 307.695 198.532 307.695 161.636C307.695 80.7768 242.146 15.2276 161.287 15.2276C80.4277 15.2276 14.8785 80.7768 14.8785 161.636C14.8785 198.532 29.9964 231.664 52.1761 262.737C74.2798 293.705 104.059 323.513 134.42 353.631L134.686 353.895C137.936 357.118 140.791 359.951 143.339 362.101C146.038 364.38 149.065 366.49 152.825 367.705C158.344 369.489 164.229 369.489 169.749 367.705C173.508 366.49 176.535 364.38 179.235 362.101C181.782 359.951 184.638 357.118 187.887 353.895L188.153 353.631Z" stroke="white" stroke-width="20.2781" stroke-linecap="round" stroke-linejoin="round"/>
</g>
<path d="M183.052 348.489C213.499 318.287 242.819 288.909 264.503 258.53C286.208 228.121 300.453 196.454 300.453 161.636C300.453 84.7765 238.146 22.4698 161.287 22.4698C84.4274 22.4698 22.1207 84.7765 22.1207 161.636C22.1207 196.454 36.3654 228.121 58.0707 258.53C79.7543 288.909 109.074 318.287 139.521 348.489L139.611 348.579C143.012 351.953 145.688 354.608 148.01 356.567C150.376 358.564 152.567 360.011 155.051 360.814C159.123 362.129 163.45 362.129 167.522 360.814C170.007 360.011 172.198 358.564 174.563 356.567C176.885 354.607 179.562 351.952 182.963 348.578L183.052 348.489Z" fill="#FF6265" stroke="black" stroke-width="5.79375" stroke-linecap="round" stroke-linejoin="round"/>
<circle cx="161.75" cy="159.305" r="94.9851" fill="#FFA3A5" stroke="black" stroke-width="2.75319"/>
<path d="M239.502 123.281C239.502 139.808 227.903 152.945 213.894 152.945C199.885 152.945 188.286 139.808 188.286 123.281C188.286 106.755 199.885 93.6171 213.894 93.6171C227.903 93.6171 239.502 106.755 239.502 123.281Z" fill="white" stroke="black" stroke-width="2.08575"/>
<path d="M186.2 123.281C186.2 139.808 174.601 152.945 160.591 152.945C146.582 152.945 134.983 139.808 134.983 123.281C134.983 106.755 146.582 93.6171 160.591 93.6171C174.601 93.6171 186.2 106.755 186.2 123.281Z" fill="white" stroke="black" stroke-width="2.08575"/>
<ellipse cx="170.441" cy="123.281" rx="15.6431" ry="17.9606" fill="black"/>
<ellipse cx="223.743" cy="123.281" rx="15.6431" ry="17.9606" fill="black"/>
<defs>
<filter id="filter0_d_329_1392" x="0.104499" y="0.453376" width="322.364" height="383.363" filterUnits="userSpaceOnUse" color-interpolation-filters="sRGB">
<feFlood flood-opacity="0" result="BackgroundImageFix"/>
<feColorMatrix in="SourceAlpha" type="matrix" values="0 0 0 0 0 0 0 0 0 0 0 0 0 0 0 0 0 0 127 0" result="hardAlpha"/>
<feOffset/>
<feGaussianBlur stdDeviation="2.3175"/>
<feComposite in2="hardAlpha" operator="out"/>
<feColorMatrix type="matrix" values="0 0 0 0 0 0 0 0 0 0 0 0 0 0 0 0 0 0 0.3 0"/>
<feBlend mode="normal" in2="BackgroundImageFix" result="effect1_dropShadow_329_1392"/>
<feBlend mode="normal" in="SourceGraphic" in2="effect1_dropShadow_329_1392" result="shape"/>
</filter>
</defs>
</svg>
