<svg width="324" height="384" viewBox="0 0 324 384" fill="none" xmlns="http://www.w3.org/2000/svg">
<g filter="url(#filter0_d_329_1348)">
<path d="M181.758 346.226C242.72 285.753 298.302 229.403 298.302 161.429C298.302 86.1699 237.292 25.1602 162.033 25.1602C86.7734 25.1602 25.7637 86.1699 25.7637 161.429C25.7637 229.403 81.3451 285.753 142.307 346.226C149.261 353.125 152.739 356.574 156.688 357.851C160.181 358.979 163.885 358.979 167.377 357.851C171.327 356.574 174.804 353.125 181.758 346.226Z" fill="#FF6265"/>
<path d="M188.899 353.424C219.26 323.306 249.04 293.498 271.143 262.531C293.323 231.457 308.441 198.326 308.441 161.429C308.441 80.5702 242.892 15.0211 162.033 15.0211C81.1738 15.0211 15.6246 80.5702 15.6246 161.429C15.6246 198.326 30.7425 231.457 52.9221 262.531C75.0259 293.498 104.805 323.306 135.167 353.424L135.433 353.688C138.682 356.912 141.537 359.745 144.085 361.895C146.784 364.174 149.812 366.284 153.571 367.498C159.09 369.282 164.975 369.282 170.495 367.498C174.254 366.284 177.281 364.174 179.981 361.895C182.528 359.745 185.384 356.912 188.633 353.688L188.899 353.424Z" stroke="white" stroke-width="20.2781" stroke-linecap="round" stroke-linejoin="round"/>
</g>
<path d="M183.799 348.283C214.245 318.08 243.565 288.702 265.249 258.323C286.954 227.914 301.199 196.247 301.199 161.429C301.199 84.57 238.892 22.2633 162.033 22.2633C85.1735 22.2633 22.8668 84.57 22.8668 161.429C22.8668 196.247 37.1115 227.914 58.8168 258.323C80.5004 288.702 109.82 318.08 140.267 348.283L140.357 348.373C143.758 351.746 146.434 354.401 148.756 356.361C151.122 358.358 153.313 359.804 155.798 360.607C159.869 361.923 164.196 361.923 168.268 360.607C170.753 359.804 172.944 358.358 175.31 356.361C177.631 354.401 180.308 351.746 183.709 348.372L183.799 348.283Z" fill="#FF6265" stroke="black" stroke-width="5.79375" stroke-linecap="round" stroke-linejoin="round"/>
<circle cx="162.496" cy="156.099" r="79.9538" fill="#FFA3A5" stroke="black" stroke-width="2.3175"/>
<path d="M240.248 123.075C240.248 139.601 228.649 152.739 214.64 152.739C200.631 152.739 189.032 139.601 189.032 123.075C189.032 106.548 200.631 93.4106 214.64 93.4106C228.649 93.4106 240.248 106.548 240.248 123.075Z" fill="white" stroke="black" stroke-width="2.08575"/>
<path d="M186.946 123.075C186.946 139.601 175.347 152.739 161.338 152.739C147.328 152.739 135.729 139.601 135.729 123.075C135.729 106.548 147.328 93.4106 161.338 93.4106C175.347 93.4106 186.946 106.548 186.946 123.075Z" fill="white" stroke="black" stroke-width="2.08575"/>
<ellipse cx="171.187" cy="123.075" rx="15.6431" ry="17.9606" fill="black"/>
<ellipse cx="224.49" cy="123.075" rx="15.6431" ry="17.9606" fill="black"/>
<mask id="path-9-inside-1_329_1348" fill="white">
<path d="M176.028 77.098C172.432 73.5023 167.953 70.9165 163.042 69.6004C158.13 68.2843 152.958 68.2843 148.046 69.6004C143.134 70.9165 138.656 73.5023 135.06 77.098C131.464 80.6937 128.878 85.1726 127.562 90.0844L135.957 92.3337C136.878 88.8954 138.688 85.7602 141.205 83.2432C143.722 80.7263 146.857 78.9162 150.296 77.9949C153.734 77.0736 157.354 77.0736 160.792 77.9949C164.231 78.9162 167.366 80.7263 169.883 83.2432L176.028 77.098Z"/>
</mask>
<path d="M176.028 77.098C172.432 73.5023 167.953 70.9165 163.042 69.6004C158.13 68.2843 152.958 68.2843 148.046 69.6004C143.134 70.9165 138.656 73.5023 135.06 77.098C131.464 80.6937 128.878 85.1726 127.562 90.0844L135.957 92.3337C136.878 88.8954 138.688 85.7602 141.205 83.2432C143.722 80.7263 146.857 78.9162 150.296 77.9949C153.734 77.0736 157.354 77.0736 160.792 77.9949C164.231 78.9162 167.366 80.7263 169.883 83.2432L176.028 77.098Z" fill="white" stroke="black" stroke-width="3.47625" mask="url(#path-9-inside-1_329_1348)"/>
<mask id="path-10-inside-2_329_1348" fill="white">
<path d="M231.648 77.098C228.052 73.5023 223.573 70.9165 218.662 69.6004C213.75 68.2843 208.578 68.2843 203.666 69.6004C198.754 70.9165 194.276 73.5023 190.68 77.098C187.084 80.6937 184.498 85.1726 183.182 90.0844L191.577 92.3337C192.498 88.8954 194.308 85.7602 196.825 83.2432C199.342 80.7263 202.477 78.9162 205.915 77.9949C209.354 77.0736 212.974 77.0736 216.412 77.9949C219.85 78.9162 222.986 80.7263 225.503 83.2432L231.648 77.098Z"/>
</mask>
<path d="M231.648 77.098C228.052 73.5023 223.573 70.9165 218.662 69.6004C213.75 68.2843 208.578 68.2843 203.666 69.6004C198.754 70.9165 194.276 73.5023 190.68 77.098C187.084 80.6937 184.498 85.1726 183.182 90.0844L191.577 92.3337C192.498 88.8954 194.308 85.7602 196.825 83.2432C199.342 80.7263 202.477 78.9162 205.915 77.9949C209.354 77.0736 212.974 77.0736 216.412 77.9949C219.85 78.9162 222.986 80.7263 225.503 83.2432L231.648 77.098Z" fill="white" stroke="black" stroke-width="3.47625" mask="url(#path-10-inside-2_329_1348)"/>
<defs>
<filter id="filter0_d_329_1348" x="0.850593" y="0.246833" width="322.364" height="383.363" filterUnits="userSpaceOnUse" color-interpolation-filters="sRGB">
<feFlood flood-opacity="0" result="BackgroundImageFix"/>
<feColorMatrix in="SourceAlpha" type="matrix" values="0 0 0 0 0 0 0 0 0 0 0 0 0 0 0 0 0 0 127 0" result="hardAlpha"/>
<feOffset/>
<feGaussianBlur stdDeviation="2.3175"/>
<feComposite in2="hardAlpha" operator="out"/>
<feColorMatrix type="matrix" values="0 0 0 0 0 0 0 0 0 0 0 0 0 0 0 0 0 0 0.3 0"/>
<feBlend mode="normal" in2="BackgroundImageFix" result="effect1_dropShadow_329_1348"/>
<feBlend mode="normal" in="SourceGraphic" in2="effect1_dropShadow_329_1348" result="shape"/>
</filter>
</defs>
</svg>
