<svg width="297" height="294" viewBox="0 0 297 294" fill="none" xmlns="http://www.w3.org/2000/svg">
<g opacity="0.8">
<ellipse opacity="0.2" cx="143.696" cy="148.953" rx="125.332" ry="125.643" fill="#FF6265"/>
<ellipse opacity="0.1" cx="143.699" cy="148.954" rx="143.699" ry="144.056" fill="#FF6265"/>
<ellipse opacity="0.6" cx="143.698" cy="148.954" rx="93.9987" ry="94.2324" fill="#FF6265"/>
</g>
<mask id="path-4-outside-1_709_2132" maskUnits="userSpaceOnUse" x="8.06836" y="83.8584" width="103" height="125" fill="black">
<rect fill="white" x="8.06836" y="83.8584" width="103" height="125"/>
<path fill-rule="evenodd" clip-rule="evenodd" d="M102.187 177.863C98.8502 181.195 93.4399 181.195 90.103 177.863L84.2302 171.998C79.6805 175.15 74.6683 177.347 69.4737 178.589L71.3725 189.794C72.2795 189.68 73.2216 189.62 74.1882 189.62C81.4305 189.62 87.0883 194.495 87.0883 198.67C87.0883 202.631 81.9966 202.622 75.2908 202.611C74.9278 202.61 74.5601 202.609 74.1882 202.609C66.9459 202.609 61.0749 201.141 61.0749 196.966C61.0749 195.396 61.9051 194.038 63.3261 192.892L63.0234 179.634C60.9682 179.813 58.9029 179.848 56.8437 179.739L56.5435 192.892C57.9651 194.037 58.7955 195.396 58.7955 196.966C58.7955 201.141 52.9245 202.609 45.6822 202.609C45.3104 202.609 44.9427 202.61 44.5797 202.611C37.8739 202.622 32.7822 202.631 32.7822 198.67C32.7822 194.495 38.44 189.62 45.6822 189.62C46.6485 189.62 47.5903 189.68 48.4971 189.794L50.3417 178.909C44.9478 177.809 39.7206 175.691 34.9683 172.556L29.6553 177.862C26.3183 181.195 20.908 181.195 17.5711 177.862C14.2341 174.53 14.2341 169.127 17.5711 165.794L22.7964 160.576C12.5808 145.612 12.648 125.745 22.998 110.846L17.5711 105.426C14.2341 102.094 14.2341 96.6907 17.5711 93.3581C20.908 90.0256 26.3183 90.0256 29.6553 93.3581L35.2673 98.9627C50.0498 89.3835 69.3275 89.5678 83.9371 99.5156L90.103 93.3578C93.4399 90.0253 98.8502 90.0253 102.187 93.3578C105.524 96.6904 105.524 102.094 102.187 105.426L95.9336 111.671C105.54 126.195 105.605 145.16 96.1293 159.745L102.187 165.794C105.524 169.127 105.524 174.53 102.187 177.863Z"/>
</mask>
<path fill-rule="evenodd" clip-rule="evenodd" d="M102.187 177.863C98.8502 181.195 93.4399 181.195 90.103 177.863L84.2302 171.998C79.6805 175.15 74.6683 177.347 69.4737 178.589L71.3725 189.794C72.2795 189.68 73.2216 189.62 74.1882 189.62C81.4305 189.62 87.0883 194.495 87.0883 198.67C87.0883 202.631 81.9966 202.622 75.2908 202.611C74.9278 202.61 74.5601 202.609 74.1882 202.609C66.9459 202.609 61.0749 201.141 61.0749 196.966C61.0749 195.396 61.9051 194.038 63.3261 192.892L63.0234 179.634C60.9682 179.813 58.9029 179.848 56.8437 179.739L56.5435 192.892C57.9651 194.037 58.7955 195.396 58.7955 196.966C58.7955 201.141 52.9245 202.609 45.6822 202.609C45.3104 202.609 44.9427 202.61 44.5797 202.611C37.8739 202.622 32.7822 202.631 32.7822 198.67C32.7822 194.495 38.44 189.62 45.6822 189.62C46.6485 189.62 47.5903 189.68 48.4971 189.794L50.3417 178.909C44.9478 177.809 39.7206 175.691 34.9683 172.556L29.6553 177.862C26.3183 181.195 20.908 181.195 17.5711 177.862C14.2341 174.53 14.2341 169.127 17.5711 165.794L22.7964 160.576C12.5808 145.612 12.648 125.745 22.998 110.846L17.5711 105.426C14.2341 102.094 14.2341 96.6907 17.5711 93.3581C20.908 90.0256 26.3183 90.0256 29.6553 93.3581L35.2673 98.9627C50.0498 89.3835 69.3275 89.5678 83.9371 99.5156L90.103 93.3578C93.4399 90.0253 98.8502 90.0253 102.187 93.3578C105.524 96.6904 105.524 102.094 102.187 105.426L95.9336 111.671C105.54 126.195 105.605 145.16 96.1293 159.745L102.187 165.794C105.524 169.127 105.524 174.53 102.187 177.863Z" fill="#FF6265"/>
<path d="M90.103 177.863L94.4532 173.507L94.4532 173.507L90.103 177.863ZM102.187 177.863L97.837 173.507H97.837L102.187 177.863ZM84.2302 171.998L88.5804 167.642L84.9461 164.012L80.7242 166.937L84.2302 171.998ZM69.4737 178.589L68.042 172.602L62.4421 173.941L63.404 179.618L69.4737 178.589ZM71.3725 189.794L65.3028 190.823L66.2886 196.641L72.1429 195.902L71.3725 189.794ZM75.2908 202.611L75.2803 208.767H75.2804L75.2908 202.611ZM63.3261 192.892L67.1896 197.685L69.5498 195.783L69.4807 192.752L63.3261 192.892ZM63.0234 179.634L69.178 179.494L69.0283 172.933L62.4904 173.501L63.0234 179.634ZM56.8437 179.739L57.169 173.591L50.8339 173.256L50.6891 179.598L56.8437 179.739ZM56.5435 192.892L50.3889 192.751L50.3197 195.782L52.6805 197.685L56.5435 192.892ZM44.5797 202.611L44.5901 208.767H44.5902L44.5797 202.611ZM48.4971 189.794L47.7269 195.902L53.581 196.64L54.5668 190.823L48.4971 189.794ZM50.3417 178.909L56.4114 179.937L57.4062 174.066L51.5718 172.877L50.3417 178.909ZM34.9683 172.556L38.3582 167.418L34.169 164.654L30.6181 168.2L34.9683 172.556ZM29.6553 177.862L34.0055 182.218L34.0055 182.218L29.6553 177.862ZM17.5711 177.862L13.2209 182.218L13.2209 182.218L17.5711 177.862ZM17.5711 165.794L13.2209 161.438L13.2208 161.438L17.5711 165.794ZM22.7964 160.576L27.1466 164.932L30.7604 161.323L27.8807 157.105L22.7964 160.576ZM22.998 110.846L28.054 114.358L30.992 110.129L27.3482 106.49L22.998 110.846ZM17.5711 105.426L21.9213 101.07L21.9213 101.07L17.5711 105.426ZM17.5711 93.3581L21.9213 97.7141L17.5711 93.3581ZM29.6553 93.3581L25.3051 97.7141L29.6553 93.3581ZM35.2673 98.9627L30.917 103.319L34.4385 106.835L38.6151 104.129L35.2673 98.9627ZM83.9371 99.5156L80.4723 104.604L84.6829 107.471L88.2873 103.872L83.9371 99.5156ZM90.103 93.3578L94.4532 97.7138L94.4532 97.7138L90.103 93.3578ZM102.187 93.3578L97.837 97.7138V97.7138L102.187 93.3578ZM102.187 105.426L97.837 101.07L102.187 105.426ZM95.9336 111.671L91.5834 107.315L88.0232 110.871L90.7989 115.068L95.9336 111.671ZM96.1293 159.745L90.967 156.391L88.2485 160.575L91.7791 164.101L96.1293 159.745ZM102.187 165.794L97.837 170.15L97.837 170.15L102.187 165.794ZM85.7528 182.219C91.4932 187.952 100.797 187.952 106.537 182.219L97.837 173.507C96.9035 174.439 95.3867 174.439 94.4532 173.507L85.7528 182.219ZM79.88 176.354L85.7528 182.219L94.4532 173.507L88.5804 167.642L79.88 176.354ZM70.9054 184.576C76.8268 183.161 82.5451 180.655 87.7362 177.058L80.7242 166.937C76.816 169.645 72.5098 171.533 68.042 172.602L70.9054 184.576ZM77.4422 188.766L75.5434 177.561L63.404 179.618L65.3028 190.823L77.4422 188.766ZM74.1882 183.464C72.9665 183.464 71.767 183.54 70.602 183.687L72.1429 195.902C72.792 195.82 73.4768 195.776 74.1882 195.776V183.464ZM93.2445 198.67C93.2445 193.903 90.2091 190.026 87.049 187.655C83.6868 185.132 79.1708 183.464 74.1882 183.464V195.776C76.4479 195.776 78.3819 196.545 79.6592 197.503C81.1385 198.613 80.9321 199.261 80.9321 198.67H93.2445ZM75.2804 208.767C78.3317 208.772 82.1302 208.817 85.1002 208.126C86.6568 207.763 88.723 207.05 90.4399 205.41C92.3756 203.561 93.2445 201.142 93.2445 198.67H80.9321C80.9321 198.178 81.1645 197.243 81.9359 196.506C82.4886 195.978 82.8627 196.005 82.3083 196.134C81.8072 196.251 80.9881 196.352 79.7055 196.406C78.4453 196.459 77.0122 196.457 75.3012 196.454L75.2804 208.767ZM74.1882 208.766C74.554 208.766 74.9166 208.766 75.2803 208.767L75.3012 196.454C74.9389 196.454 74.5661 196.453 74.1882 196.453V208.766ZM54.9187 196.966C54.9187 202.835 59.3628 205.847 62.7563 207.119C66.1598 208.393 70.3106 208.766 74.1882 208.766V196.453C70.8236 196.453 68.4177 196.091 67.0752 195.588C66.4323 195.348 66.433 195.22 66.6459 195.452C66.9768 195.814 67.2311 196.406 67.2311 196.966H54.9187ZM59.4625 188.099C57.1214 189.987 54.9187 192.946 54.9187 196.966H67.2311C67.2311 197.123 67.2095 197.29 67.1653 197.451C67.1218 197.611 67.0659 197.731 67.0225 197.807C66.9418 197.949 66.9345 197.891 67.1896 197.685L59.4625 188.099ZM56.8688 179.775L57.1714 193.033L69.4807 192.752L69.178 179.494L56.8688 179.775ZM56.5185 185.886C58.8635 186.01 61.2157 185.971 63.5564 185.767L62.4904 173.501C60.7208 173.655 58.9422 173.685 57.169 173.591L56.5185 185.886ZM62.6981 193.032L62.9983 179.879L50.6891 179.598L50.3889 192.751L62.6981 193.032ZM64.9517 196.966C64.9517 192.946 62.7481 189.985 60.4065 188.098L52.6805 197.685C52.9359 197.891 52.9286 197.949 52.848 197.807C52.8047 197.731 52.7487 197.611 52.7052 197.451C52.661 197.29 52.6393 197.123 52.6393 196.966H64.9517ZM45.6822 208.766C49.5599 208.766 53.7106 208.393 57.1142 207.119C60.5077 205.847 64.9517 202.835 64.9517 196.966H52.6393C52.6393 196.406 52.8936 195.814 53.2245 195.452C53.4375 195.22 53.4381 195.348 52.7953 195.588C51.4528 196.091 49.0469 196.453 45.6822 196.453V208.766ZM44.5902 208.767C44.9538 208.766 45.3164 208.766 45.6822 208.766V196.453C45.3043 196.453 44.9315 196.454 44.5692 196.454L44.5902 208.767ZM26.626 198.67C26.626 201.142 27.4949 203.561 29.4306 205.41C31.1475 207.05 33.2137 207.763 34.7703 208.126C37.7403 208.817 41.5388 208.772 44.5901 208.767L44.5693 196.454C42.8582 196.457 41.4252 196.459 40.1649 196.406C38.8824 196.352 38.0632 196.251 37.5622 196.134C37.0077 196.005 37.3818 195.978 37.9345 196.506C38.706 197.243 38.9384 198.178 38.9384 198.67H26.626ZM45.6822 183.464C40.6997 183.464 36.1837 185.132 32.8215 187.655C29.6613 190.026 26.626 193.903 26.626 198.67H38.9384C38.9384 199.261 38.7319 198.613 40.2113 197.503C41.4885 196.545 43.4225 195.776 45.6822 195.776V183.464ZM49.2672 183.686C48.1027 183.54 46.9036 183.464 45.6822 183.464V195.776C46.3934 195.776 47.078 195.82 47.7269 195.902L49.2672 183.686ZM44.272 177.88L42.4274 188.766L54.5668 190.823L56.4114 179.937L44.272 177.88ZM31.5785 177.695C37.0015 181.273 42.9645 183.687 49.1116 184.941L51.5718 172.877C46.9312 171.93 42.4398 170.11 38.3582 167.418L31.5785 177.695ZM34.0055 182.218L39.3185 176.912L30.6181 168.2L25.3051 173.506L34.0055 182.218ZM13.2209 182.218C18.9613 187.951 28.2651 187.951 34.0055 182.218L25.3051 173.506C24.3716 174.439 22.8548 174.439 21.9213 173.506L13.2209 182.218ZM13.2208 161.438C7.47591 167.176 7.47591 176.481 13.2209 182.218L21.9213 173.506C20.9923 172.579 20.9923 171.078 21.9213 170.15L13.2208 161.438ZM18.4462 156.22L13.2209 161.438L21.9213 170.15L27.1466 164.932L18.4462 156.22ZM17.942 107.334C6.13431 124.331 6.05809 146.976 17.7121 164.047L27.8807 157.105C19.1035 144.248 19.1616 127.159 28.054 114.358L17.942 107.334ZM13.2209 109.782L18.6478 115.202L27.3482 106.49L21.9213 101.07L13.2209 109.782ZM13.2209 89.0021C7.47592 94.7395 7.4759 104.045 13.2209 109.782L21.9213 101.07C20.9923 100.143 20.9923 98.6418 21.9213 97.7141L13.2209 89.0021ZM34.0055 89.0022C28.2651 83.2693 18.9613 83.2693 13.2209 89.0021L21.9213 97.7141C22.8548 96.7818 24.3716 96.7818 25.3051 97.7141L34.0055 89.0022ZM39.6175 94.6067L34.0055 89.0022L25.3051 97.7141L30.917 103.319L39.6175 94.6067ZM87.402 94.427C70.7395 83.0815 48.7769 82.8727 31.9194 93.7964L38.6151 104.129C51.3227 95.8944 67.9155 96.0542 80.4723 104.604L87.402 94.427ZM85.7528 89.0019L79.5869 95.1596L88.2873 103.872L94.4532 97.7138L85.7528 89.0019ZM106.537 89.0019C100.797 83.269 91.4932 83.269 85.7528 89.0019L94.4532 97.7138C95.3867 96.7816 96.9035 96.7815 97.837 97.7138L106.537 89.0019ZM106.537 109.782C112.282 104.045 112.282 94.7392 106.537 89.0019L97.837 97.7138C98.766 98.6415 98.766 100.142 97.837 101.07L106.537 109.782ZM100.284 116.027L106.537 109.782L97.837 101.07L91.5834 107.315L100.284 116.027ZM101.292 163.099C112.101 146.461 112.027 124.845 101.068 108.275L90.7989 115.068C99.0519 127.546 99.1084 143.86 90.967 156.391L101.292 163.099ZM106.537 161.438L100.48 155.389L91.7791 164.101L97.837 170.15L106.537 161.438ZM106.537 182.219C112.282 176.481 112.282 167.176 106.537 161.438L97.837 170.15C98.766 171.078 98.766 172.579 97.837 173.507L106.537 182.219Z" fill="white" mask="url(#path-4-outside-1_709_2132)"/>
<path fill-rule="evenodd" clip-rule="evenodd" d="M102.187 177.863C98.8502 181.195 93.4399 181.195 90.103 177.863L84.2302 171.998C79.6805 175.15 74.6683 177.347 69.4737 178.589L71.3725 189.794C72.2795 189.68 73.2216 189.62 74.1882 189.62C81.4305 189.62 87.0883 194.495 87.0883 198.67C87.0883 202.631 81.9966 202.622 75.2908 202.611C74.9278 202.61 74.5601 202.609 74.1882 202.609C66.9459 202.609 61.0749 201.141 61.0749 196.966C61.0749 195.396 61.9051 194.038 63.3261 192.892L63.0234 179.634C60.9682 179.813 58.9029 179.848 56.8437 179.739L56.5435 192.892C57.9651 194.037 58.7955 195.396 58.7955 196.966C58.7955 201.141 52.9245 202.609 45.6822 202.609C45.3104 202.609 44.9427 202.61 44.5797 202.611C37.8739 202.622 32.7822 202.631 32.7822 198.67C32.7822 194.495 38.44 189.62 45.6822 189.62C46.6485 189.62 47.5903 189.68 48.4971 189.794L50.3417 178.909C44.9478 177.809 39.7206 175.691 34.9683 172.556L29.6553 177.862C26.3183 181.195 20.908 181.195 17.5711 177.862C14.2341 174.53 14.2341 169.127 17.5711 165.794L22.7964 160.576C12.5808 145.612 12.648 125.745 22.998 110.846L17.5711 105.426C14.2341 102.094 14.2341 96.6907 17.5711 93.3581C20.908 90.0256 26.3183 90.0256 29.6553 93.3581L35.2673 98.9627C50.0498 89.3835 69.3275 89.5678 83.9371 99.5156L90.103 93.3578C93.4399 90.0253 98.8502 90.0253 102.187 93.3578C105.524 96.6904 105.524 102.094 102.187 105.426L95.9336 111.671C105.54 126.195 105.605 145.16 96.1293 159.745L102.187 165.794C105.524 169.127 105.524 174.53 102.187 177.863Z" fill="#FF6265"/>
<path d="M90.103 177.863L90.828 177.137L90.103 177.863ZM102.187 177.863L101.462 177.137L102.187 177.863ZM84.2302 171.998L84.9552 171.272L84.3495 170.667L83.6458 171.154L84.2302 171.998ZM69.4737 178.589L69.2351 177.591L68.3018 177.814L68.4621 178.76L69.4737 178.589ZM71.3725 189.794L70.3609 189.966L70.5252 190.935L71.5009 190.812L71.3725 189.794ZM75.2908 202.611L75.289 203.637H75.289L75.2908 202.611ZM63.3261 192.892L63.97 193.691L64.3633 193.374L64.3518 192.869L63.3261 192.892ZM63.0234 179.634L64.0492 179.611L64.0242 178.517L62.9346 178.612L63.0234 179.634ZM56.8437 179.739L56.898 178.714L55.8421 178.658L55.818 179.715L56.8437 179.739ZM56.5435 192.892L55.5177 192.868L55.5062 193.373L55.8997 193.69L56.5435 192.892ZM44.5797 202.611L44.5814 203.637H44.5814L44.5797 202.611ZM48.4971 189.794L48.3687 190.812L49.3444 190.935L49.5087 189.966L48.4971 189.794ZM50.3417 178.909L51.3533 179.08L51.5191 178.102L50.5467 177.903L50.3417 178.909ZM34.9683 172.556L35.5333 171.7L34.8351 171.239L34.2433 171.83L34.9683 172.556ZM29.6553 177.862L30.3803 178.588H30.3803L29.6553 177.862ZM17.5711 177.862L16.846 178.588H16.846L17.5711 177.862ZM17.5711 165.794L16.846 165.068H16.846L17.5711 165.794ZM22.7964 160.576L23.5215 161.302L24.1237 160.7L23.6438 159.997L22.7964 160.576ZM22.998 110.846L23.8406 111.432L24.3303 110.727L23.723 110.12L22.998 110.846ZM17.5711 105.426L18.2961 104.7L17.5711 105.426ZM17.5711 93.3581L18.2961 94.0841L17.5711 93.3581ZM29.6553 93.3581L28.9302 94.0841L29.6553 93.3581ZM35.2673 98.9627L34.5422 99.6887L35.1291 100.275L35.8252 99.8238L35.2673 98.9627ZM83.9371 99.5156L83.3596 100.364L84.0614 100.842L84.6621 100.242L83.9371 99.5156ZM90.103 93.3578L90.828 94.0838V94.0838L90.103 93.3578ZM102.187 93.3578L101.462 94.0838V94.0838L102.187 93.3578ZM102.187 105.426L101.462 104.7L102.187 105.426ZM95.9336 111.671L95.2086 110.945L94.6152 111.538L95.0778 112.237L95.9336 111.671ZM96.1293 159.745L95.2689 159.186L94.8158 159.883L95.4043 160.471L96.1293 159.745ZM102.187 165.794L101.462 166.52L102.187 165.794ZM89.378 178.589C93.1155 182.321 99.1747 182.321 102.912 178.589L101.462 177.137C98.5258 180.069 93.7644 180.069 90.828 177.137L89.378 178.589ZM83.5051 172.724L89.378 178.589L90.828 177.137L84.9552 171.272L83.5051 172.724ZM69.7123 179.587C75.028 178.316 80.158 176.067 84.8145 172.841L83.6458 171.154C79.2031 174.232 74.3085 176.378 69.2351 177.591L69.7123 179.587ZM72.3841 189.623L70.4853 178.418L68.4621 178.76L70.3609 189.966L72.3841 189.623ZM74.1882 188.594C73.1791 188.594 72.1941 188.657 71.2441 188.776L71.5009 190.812C72.3649 190.703 73.2642 190.646 74.1882 190.646V188.594ZM88.1143 198.67C88.1143 196.136 86.4297 193.604 83.9699 191.759C81.4764 189.887 78.0363 188.594 74.1882 188.594V190.646C77.5824 190.646 80.5923 191.79 82.7383 193.4C84.9179 195.035 86.0622 197.029 86.0622 198.67H88.1143ZM75.289 203.637C78.5917 203.642 81.6826 203.654 83.9369 203.129C85.0759 202.864 86.1253 202.437 86.8966 201.7C87.7043 200.929 88.1143 199.907 88.1143 198.67H86.0622C86.0622 199.413 85.8358 199.876 85.4792 200.216C85.0863 200.591 84.4436 200.904 83.4715 201.13C81.5035 201.589 78.6957 201.59 75.2925 201.585L75.289 203.637ZM74.1882 203.635C74.5591 203.635 74.9259 203.636 75.289 203.637L75.2925 201.585C74.9296 201.584 74.5611 201.583 74.1882 201.583V203.635ZM60.0489 196.966C60.0489 199.684 62.0127 201.362 64.5558 202.314C67.1006 203.268 70.5243 203.635 74.1882 203.635V201.583C70.6098 201.583 67.4769 201.217 65.2756 200.393C63.0727 199.567 62.101 198.424 62.101 196.966H60.0489ZM62.6821 192.093C61.1078 193.363 60.0489 194.988 60.0489 196.966H62.101C62.101 195.805 62.7023 194.713 63.97 193.691L62.6821 192.093ZM61.9977 179.658L62.3003 192.916L64.3518 192.869L64.0492 179.611L61.9977 179.658ZM56.7895 180.763C58.8963 180.875 61.0095 180.839 63.1123 180.656L62.9346 178.612C60.927 178.786 58.9094 178.821 56.898 178.714L56.7895 180.763ZM57.5693 192.915L57.8695 179.762L55.818 179.715L55.5177 192.868L57.5693 192.915ZM59.8216 196.966C59.8216 194.988 58.7622 193.362 57.1873 192.093L55.8997 193.69C57.1679 194.712 57.7695 195.805 57.7695 196.966H59.8216ZM45.6822 203.635C49.3461 203.635 52.7698 203.268 55.3146 202.314C57.8577 201.362 59.8216 199.684 59.8216 196.966H57.7695C57.7695 198.424 56.7978 199.567 54.5948 200.393C52.3935 201.217 49.2606 201.583 45.6822 201.583V203.635ZM44.5814 203.637C44.9445 203.636 45.3114 203.635 45.6822 203.635V201.583C45.3094 201.583 44.9408 201.584 44.5779 201.585L44.5814 203.637ZM31.7562 198.67C31.7562 199.907 32.1662 200.929 32.9739 201.7C33.7451 202.437 34.7945 202.864 35.9336 203.129C38.1879 203.654 41.2788 203.642 44.5814 203.637L44.578 201.585C41.1748 201.59 38.3669 201.589 36.3989 201.13C35.4269 200.904 34.7842 200.591 34.3912 200.216C34.0347 199.876 33.8082 199.413 33.8082 198.67H31.7562ZM45.6822 188.594C41.8342 188.594 38.394 189.887 35.9006 191.759C33.4408 193.604 31.7562 196.136 31.7562 198.67H33.8082C33.8082 197.029 34.9525 195.035 37.1322 193.4C39.2782 191.79 42.288 190.646 45.6822 190.646V188.594ZM48.6255 188.776C47.6757 188.657 46.691 188.594 45.6822 188.594V190.646C46.606 190.646 47.505 190.703 48.3687 190.812L48.6255 188.776ZM49.3301 178.737L47.4855 189.623L49.5087 189.966L51.3533 179.08L49.3301 178.737ZM34.4033 173.413C39.2674 176.621 44.6173 178.788 50.1367 179.914L50.5467 177.903C45.2784 176.829 40.1738 174.761 35.5333 171.7L34.4033 173.413ZM30.3803 178.588L35.6934 173.282L34.2433 171.83L28.9302 177.136L30.3803 178.588ZM16.846 178.588C20.5836 182.321 26.6428 182.321 30.3803 178.588L28.9302 177.136C25.9939 180.069 21.2325 180.069 18.2961 177.136L16.846 178.588ZM16.846 165.068C13.1078 168.802 13.1078 174.855 16.846 178.588L18.2961 177.136C15.3605 174.205 15.3605 169.452 18.2961 166.52L16.846 165.068ZM22.0714 159.85L16.846 165.068L18.2961 166.52L23.5215 161.302L22.0714 159.85ZM22.1553 110.261C11.5624 125.509 11.4937 145.84 21.949 161.154L23.6438 159.997C13.6679 145.385 13.7336 125.981 23.8406 111.432L22.1553 110.261ZM16.846 106.152L22.2729 111.572L23.723 110.12L18.2961 104.7L16.846 106.152ZM16.846 92.6321C13.1078 96.3655 13.1077 102.419 16.846 106.152L18.2961 104.7C15.3605 101.769 15.3605 97.0159 18.2961 94.0841L16.846 92.6321ZM30.3803 92.6321C26.6428 88.8995 20.5836 88.8995 16.846 92.6321L18.2961 94.0841C21.2325 91.1516 25.9939 91.1516 28.9302 94.0841L30.3803 92.6321ZM35.9923 98.2367L30.3803 92.6321L28.9302 94.0841L34.5422 99.6887L35.9923 98.2367ZM84.5146 98.6675C69.5629 88.4868 49.8377 88.2984 34.7093 98.1016L35.8252 99.8238C50.262 90.4687 69.0922 90.6489 83.3596 100.364L84.5146 98.6675ZM89.378 92.6318L83.2121 98.7896L84.6621 100.242L90.828 94.0838L89.378 92.6318ZM102.912 92.6318C99.1747 88.8992 93.1155 88.8992 89.378 92.6318L90.828 94.0838C93.7644 91.1513 98.5258 91.1513 101.462 94.0838L102.912 92.6318ZM102.912 106.152C106.651 102.419 106.651 96.3652 102.912 92.6318L101.462 94.0838C104.398 97.0156 104.398 101.768 101.462 104.7L102.912 106.152ZM96.6586 112.397L102.912 106.152L101.462 104.7L95.2086 110.945L96.6586 112.397ZM96.9897 160.304C106.688 145.377 106.621 125.97 96.7894 111.105L95.0778 112.237C104.458 126.42 104.522 144.944 95.2689 159.186L96.9897 160.304ZM102.912 165.068L96.8544 159.019L95.4043 160.471L101.462 166.52L102.912 165.068ZM102.912 178.589C106.651 174.855 106.651 168.802 102.912 165.068L101.462 166.52C104.398 169.452 104.398 174.205 101.462 177.137L102.912 178.589Z" fill="black"/>
<path d="M86.8208 136.953C86.8208 151.957 74.6411 164.122 59.6152 164.122C44.5892 164.122 32.4095 151.957 32.4095 136.953C32.4095 121.948 44.5892 109.784 59.6152 109.784C74.6411 109.784 86.8208 121.948 86.8208 136.953Z" fill="#FFA3A5" stroke="black" stroke-width="1.12864"/>
<path d="M41.7226 116.767C41.7226 122.417 45.6934 126.91 50.4903 126.91C55.2873 126.91 59.2581 122.417 59.2581 116.767C59.2581 111.117 55.2873 106.625 50.4903 106.625C45.6934 106.625 41.7226 111.117 41.7226 116.767Z" fill="white" stroke="black" stroke-width="0.713351"/>
<path d="M59.9711 116.767C59.9711 122.417 63.9419 126.91 68.7389 126.91C73.5358 126.91 77.5066 122.417 77.5066 116.767C77.5066 111.117 73.5358 106.625 68.7389 106.625C63.9419 106.625 59.9711 111.117 59.9711 116.767Z" fill="white" stroke="black" stroke-width="0.713351"/>
<ellipse cx="5.35564" cy="6.14096" rx="5.35564" ry="6.14096" transform="matrix(-1 0 0 1 70.7207 111.022)" fill="black"/>
<path d="M42.1185 117.163C42.1185 120.405 44.4009 122.947 47.1175 122.947C49.8341 122.947 52.1165 120.405 52.1165 117.163C52.1165 113.921 49.8341 111.379 47.1175 111.379C44.4009 111.379 42.1185 113.921 42.1185 117.163Z" fill="black" stroke="black" stroke-width="0.713351"/>
<mask id="path-13-outside-2_709_2132" maskUnits="userSpaceOnUse" x="81.2118" y="84.3546" width="233.109" height="205.173" fill="black">
<rect fill="white" x="81.2118" y="84.3546" width="233.109" height="205.173"/>
<path fill-rule="evenodd" clip-rule="evenodd" d="M146.343 158.177C146.072 159.071 145.825 159.967 145.602 160.864L139.024 157.857C137.224 157.034 136.233 155.115 136.628 153.213L138.108 146.083C139.778 145.026 141.188 143.503 142.12 141.592C143.821 138.102 143.508 134.173 141.632 131.143L146.194 127.743C146.238 127.709 146.282 127.675 146.324 127.64C149.712 129.566 154.519 129.379 158.023 127.181C162.756 124.211 168.421 115.496 165.642 110.874C162.862 106.251 152.69 107.471 147.957 110.44C143.887 112.993 141.392 118.374 142.538 122.771L135.924 126.674C130.889 125.04 125.242 127.389 122.824 132.35C122.414 133.19 122.121 134.056 121.939 134.929L118.925 136.707C116.638 138.057 115.816 141.116 117.125 143.404C118.434 145.693 121.338 146.273 123.482 144.674L124.258 144.096C124.489 144.366 124.734 144.626 124.994 144.873L123.628 151.457C122.217 158.256 125.759 165.12 132.196 168.063L142.74 172.883C143.136 173.064 143.547 173.202 143.966 173.297C143.434 196.632 156.153 221.336 170.034 247.602C172.042 251.403 173.046 253.303 174.534 254.341C175.848 255.259 177.399 255.727 179.004 255.69C180.819 255.648 182.712 254.622 186.497 252.57C212.766 238.328 237.183 224.75 249.677 204.908L258.349 207.882C265.051 210.181 272.56 207.477 276.403 201.38L279.819 195.959C280.911 198.025 283.36 199.327 285.752 198.93C288.596 198.459 290.189 195.78 289.235 193.071L287.583 188.384C288.096 187.498 288.492 186.524 288.746 185.479C290.049 180.109 287.132 174.746 282.133 172.911L279.841 166.405C281.468 164.716 282.233 162.28 281.666 159.829L280.885 156.448C280.846 156.282 280.671 156.173 280.503 156.21C280.342 156.245 280.173 156.146 280.126 155.989L276.337 143.35C276.048 142.386 274.999 141.734 273.995 141.893C272.99 142.053 272.41 142.964 272.699 143.928L276.444 156.421C276.549 156.772 276.343 157.121 275.982 157.2L275.033 157.408C274.674 157.487 274.297 157.267 274.192 156.916L270.696 145.254C270.407 144.29 269.358 143.637 268.354 143.797C267.349 143.957 266.769 144.868 267.058 145.832L270.615 157.698C270.72 158.049 270.513 158.398 270.153 158.477L269.107 158.706C268.747 158.785 268.371 158.565 268.266 158.214L264.934 147.099C264.645 146.135 263.596 145.483 262.591 145.642C261.587 145.802 261.007 146.713 261.296 147.677L265.673 162.28C265.799 162.7 266.069 163.061 266.417 163.321C266.57 163.435 266.695 163.585 266.753 163.76C267.713 166.691 270.435 168.674 273.469 168.802L274.434 173.05C271.3 174.326 268.792 177.058 267.93 180.609C267.227 183.507 267.752 186.402 269.171 188.743L265.894 193.943C264.836 195.622 262.768 196.366 260.922 195.733L255.134 193.748C255.428 192.926 255.703 192.094 255.958 191.252C265.316 160.434 248.363 128.047 218.094 118.914C187.824 109.781 155.7 127.36 146.343 158.177Z"/>
</mask>
<path d="M145.602 160.864L152.739 162.601L150.596 171.228L142.516 167.534L145.602 160.864ZM146.343 158.177L139.306 156.078L139.306 156.078L146.343 158.177ZM139.024 157.857L135.938 164.528L139.024 157.857ZM136.628 153.213L129.428 151.755L129.428 151.755L136.628 153.213ZM138.108 146.083L130.907 144.625L131.541 141.569L134.185 139.895L138.108 146.083ZM142.12 141.592L148.73 144.778L148.73 144.778L142.12 141.592ZM141.632 131.143L135.371 135.014L131.838 129.306L137.246 125.274L141.632 131.143ZM146.194 127.743L150.58 133.611L150.58 133.611L146.194 127.743ZM146.324 127.64L141.64 122.005L145.567 118.752L149.985 121.264L146.324 127.64ZM158.023 127.181L161.919 133.385L161.919 133.385L158.023 127.181ZM165.642 110.874L159.332 114.665L165.642 110.874ZM147.957 110.44L144.061 104.236L144.061 104.236L147.957 110.44ZM142.538 122.771L149.655 120.897L151.052 126.253L146.263 129.079L142.538 122.771ZM135.924 126.674L139.649 132.983L136.781 134.676L133.623 133.65L135.924 126.674ZM122.824 132.35L129.434 135.536L129.434 135.536L122.824 132.35ZM121.939 134.929L129.137 136.398L128.472 139.58L125.664 141.237L121.939 134.929ZM118.925 136.707L115.2 130.399L115.2 130.399L118.925 136.707ZM117.125 143.404L123.516 139.75L123.515 139.75L117.125 143.404ZM123.482 144.674L119.096 138.805L119.096 138.805L123.482 144.674ZM124.258 144.096L119.871 138.227L125.402 134.104L129.862 139.325L124.258 144.096ZM124.994 144.873L130.084 139.559L133.019 142.356L132.194 146.332L124.994 144.873ZM123.628 151.457L130.828 152.915L130.828 152.915L123.628 151.457ZM132.196 168.063L135.282 161.393L132.196 168.063ZM142.74 172.883L139.654 179.553L139.654 179.553L142.74 172.883ZM143.966 173.297L145.621 166.143L151.453 167.463L151.317 173.433L143.966 173.297ZM170.034 247.602L176.541 244.161L176.541 244.161L170.034 247.602ZM174.534 254.341L170.3 260.356L170.3 260.356L174.534 254.341ZM179.004 255.69L178.864 248.357L178.864 248.357L179.004 255.69ZM186.497 252.57L183.006 246.128L183.006 246.128L186.497 252.57ZM249.677 204.908L243.455 201.025L246.571 196.076L252.094 197.971L249.677 204.908ZM258.349 207.882L260.766 200.945L260.766 200.945L258.349 207.882ZM276.403 201.38L270.182 197.494L270.182 197.494L276.403 201.38ZM279.819 195.959L273.599 192.073L280.394 181.291L286.327 192.518L279.819 195.959ZM285.752 198.93L286.928 206.166L286.928 206.166L285.752 198.93ZM289.235 193.071L282.296 195.528L282.296 195.528L289.235 193.071ZM287.583 188.384L280.645 190.841L279.526 187.665L281.217 184.74L287.583 188.384ZM288.746 185.479L281.599 183.781L288.746 185.479ZM282.133 172.911L279.569 179.796L276.336 178.61L275.194 175.368L282.133 172.911ZM279.841 166.405L272.903 168.862L271.402 164.602L274.549 161.335L279.841 166.405ZM281.666 159.829L288.832 158.154L281.666 159.829ZM280.885 156.448L288.05 154.772L288.05 154.772L280.885 156.448ZM280.503 156.21L278.954 149.046L278.954 149.046L280.503 156.21ZM280.126 155.989L273.081 158.117L273.081 158.117L280.126 155.989ZM276.337 143.35L283.383 141.222L283.383 141.222L276.337 143.35ZM273.995 141.893L275.123 149.137L275.123 149.137L273.995 141.893ZM272.699 143.928L279.745 141.801L279.745 141.801L272.699 143.928ZM276.444 156.421L269.399 158.549L269.399 158.549L276.444 156.421ZM275.982 157.2L274.433 150.036L274.433 150.036L275.982 157.2ZM275.033 157.408L276.582 164.572L276.582 164.572L275.033 157.408ZM274.192 156.916L267.147 159.044L267.147 159.044L274.192 156.916ZM270.696 145.254L277.742 143.126L277.742 143.126L270.696 145.254ZM268.354 143.797L267.225 136.554L267.225 136.554L268.354 143.797ZM267.058 145.832L274.103 143.704L267.058 145.832ZM270.615 157.698L277.661 155.57L277.661 155.57L270.615 157.698ZM270.153 158.477L271.702 165.641L271.702 165.641L270.153 158.477ZM269.107 158.706L267.558 151.542L269.107 158.706ZM268.266 158.214L261.22 160.342L261.22 160.342L268.266 158.214ZM264.934 147.099L271.979 144.971L271.979 144.971L264.934 147.099ZM262.591 145.642L263.72 152.886L263.72 152.886L262.591 145.642ZM261.296 147.677L268.341 145.549L268.341 145.549L261.296 147.677ZM265.673 162.28L272.719 160.152L272.719 160.152L265.673 162.28ZM266.417 163.321L261.989 169.195L266.417 163.321ZM266.753 163.76L259.762 166.064L259.762 166.064L266.753 163.76ZM273.469 168.802L273.809 161.473L279.403 161.709L280.64 167.153L273.469 168.802ZM274.434 173.05L281.605 171.401L282.986 177.479L277.189 179.84L274.434 173.05ZM267.93 180.609L275.076 182.307L275.076 182.307L267.93 180.609ZM269.171 188.743L275.467 184.929L277.809 188.792L275.391 192.628L269.171 188.743ZM265.894 193.943L259.673 190.057L259.673 190.057L265.894 193.943ZM260.922 195.733L263.338 188.796L263.338 188.796L260.922 195.733ZM255.134 193.748L252.717 200.685L245.717 198.284L248.209 191.311L255.134 193.748ZM255.958 191.252L248.922 189.152L248.922 189.152L255.958 191.252ZM218.094 118.914L215.938 125.936L218.094 118.914ZM138.465 159.127C138.718 158.109 138.998 157.092 139.306 156.078L153.38 160.277C153.145 161.05 152.932 161.825 152.739 162.601L138.465 159.127ZM142.11 151.187L148.688 154.194L142.516 167.534L135.938 164.528L142.11 151.187ZM143.828 154.672C144.147 153.137 143.324 151.742 142.11 151.187L135.938 164.528C131.123 162.327 128.32 157.092 129.428 151.755L143.828 154.672ZM145.308 147.542L143.828 154.672L129.428 151.755L130.907 144.625L145.308 147.542ZM148.73 144.778C147.183 147.95 144.827 150.5 142.03 152.271L134.185 139.895C134.728 139.551 135.193 139.055 135.509 138.406L148.73 144.778ZM147.894 127.272C151.052 132.375 151.564 138.963 148.73 144.778L135.509 138.406C136.078 137.24 135.963 135.971 135.371 135.014L147.894 127.272ZM150.58 133.611L146.019 137.012L137.246 125.274L141.807 121.874L150.58 133.611ZM151.009 133.275C150.87 133.39 150.727 133.502 150.58 133.611L141.807 121.874C141.75 121.917 141.694 121.96 141.64 122.005L151.009 133.275ZM161.919 133.385C156.277 136.925 148.565 137.371 142.664 134.016L149.985 121.264C150.86 121.761 152.761 121.833 154.126 120.976L161.919 133.385ZM171.952 107.082C173.77 110.106 173.938 113.355 173.57 115.95C173.203 118.546 172.245 120.987 171.145 123.059C169.01 127.079 165.599 131.077 161.919 133.385L154.126 120.976C155.18 120.315 156.968 118.471 158.154 116.235C158.715 115.179 158.947 114.39 159.009 113.958C159.07 113.526 158.903 113.953 159.332 114.665L171.952 107.082ZM144.061 104.236C147.748 101.923 152.818 100.606 157.354 100.478C159.689 100.412 162.307 100.645 164.8 101.505C167.311 102.371 170.122 104.039 171.952 107.082L159.332 114.665C159.772 115.397 160.269 115.484 159.943 115.371C159.599 115.253 158.857 115.109 157.71 115.142C155.282 115.21 152.899 115.989 151.853 116.645L144.061 104.236ZM135.421 124.644C133.345 116.683 137.701 108.226 144.061 104.236L151.853 116.645C150.074 117.761 149.438 120.065 149.655 120.897L135.421 124.644ZM132.199 120.366L138.813 116.462L146.263 129.079L139.649 132.983L132.199 120.366ZM116.214 129.164C120.23 120.926 129.667 116.921 138.225 119.699L133.623 133.65C132.11 133.159 130.254 133.853 129.434 135.536L116.214 129.164ZM114.741 133.46C115.046 131.997 115.536 130.554 116.214 129.164L129.434 135.536C129.292 135.826 129.196 136.115 129.137 136.398L114.741 133.46ZM115.2 130.399L118.213 128.62L125.664 141.237L122.65 143.016L115.2 130.399ZM110.735 147.059C107.428 141.278 109.46 133.787 115.2 130.399L122.65 143.016C123.303 142.631 123.647 142.064 123.779 141.576C123.91 141.087 123.897 140.417 123.516 139.75L110.735 147.059ZM127.869 150.543C122.246 154.735 114.268 153.236 110.735 147.059L123.515 139.75C123.114 139.047 122.366 138.485 121.463 138.305C120.563 138.125 119.696 138.358 119.096 138.805L127.869 150.543ZM128.644 149.965L127.869 150.543L119.096 138.805L119.871 138.227L128.644 149.965ZM119.903 150.187C119.462 149.766 119.045 149.325 118.653 148.867L129.862 139.325C129.932 139.407 130.006 139.485 130.084 139.559L119.903 150.187ZM116.427 149.998L117.793 143.415L132.194 146.332L130.828 152.915L116.427 149.998ZM129.11 174.733C119.658 170.413 114.303 160.234 116.427 149.998L130.828 152.915C130.13 156.278 131.859 159.828 135.282 161.393L129.11 174.733ZM139.654 179.553L129.11 174.733L135.282 161.393L145.826 166.212L139.654 179.553ZM142.311 180.45C141.404 180.245 140.513 179.946 139.654 179.553L145.826 166.212C145.759 166.182 145.69 166.159 145.621 166.143L142.311 180.45ZM163.526 251.043C156.613 237.961 149.767 224.864 144.745 212.044C139.718 199.211 136.318 186.18 136.614 173.16L151.317 173.433C151.082 183.749 153.776 194.736 158.445 206.656C163.12 218.589 169.574 230.976 176.541 244.161L163.526 251.043ZM170.3 260.356C168.431 259.051 167.194 257.412 166.268 255.959C165.384 254.572 164.474 252.837 163.526 251.043L176.541 244.161C177.602 246.167 178.198 247.283 178.69 248.055C179.141 248.763 179.149 248.593 178.767 248.326L170.3 260.356ZM179.144 263.023C175.973 263.096 172.891 262.165 170.3 260.356L178.767 248.326C178.793 248.345 178.809 248.35 178.815 248.352C178.822 248.354 178.836 248.358 178.864 248.357L179.144 263.023ZM189.988 259.011C188.202 259.979 186.477 260.921 184.966 261.588C183.384 262.287 181.434 262.97 179.144 263.023L178.864 248.357C178.388 248.368 178.293 248.517 179.057 248.179C179.893 247.81 181.007 247.212 183.006 246.128L189.988 259.011ZM255.9 208.791C248.92 219.875 238.817 228.898 227.457 236.84C216.109 244.773 203.07 251.919 189.988 259.011L183.006 246.128C196.193 238.979 208.498 232.215 219.049 224.838C229.588 217.47 237.94 209.783 243.455 201.025L255.9 208.791ZM255.932 214.82L247.261 211.845L252.094 197.971L260.766 200.945L255.932 214.82ZM282.623 205.266C276.997 214.193 265.939 218.252 255.932 214.82L260.766 200.945C264.164 202.111 268.123 200.761 270.182 197.494L282.623 205.266ZM286.04 199.844L282.623 205.266L270.182 197.494L273.599 192.073L286.04 199.844ZM286.327 192.518C286.126 192.137 285.872 191.939 285.666 191.834C285.449 191.724 285.075 191.612 284.575 191.695L286.928 206.166C281.266 207.104 275.802 204.113 273.312 199.4L286.327 192.518ZM284.575 191.695C283.921 191.803 283.111 192.252 282.597 193.118C282.082 193.983 282.077 194.906 282.296 195.528L296.173 190.615C298.643 197.626 294.292 204.945 286.928 206.166L284.575 191.695ZM282.296 195.528L280.645 190.841L294.522 185.928L296.173 190.615L282.296 195.528ZM295.892 187.178C295.471 188.912 294.81 190.54 293.95 192.029L281.217 184.74C281.382 184.455 281.513 184.136 281.599 183.781L295.892 187.178ZM284.697 166.026C293.21 169.151 298.067 178.217 295.892 187.178L281.599 183.781C282.031 182.002 281.054 180.341 279.569 179.796L284.697 166.026ZM275.194 175.368L272.903 168.862L286.779 163.949L289.071 170.455L275.194 175.368ZM274.549 161.335C274.534 161.35 274.518 161.373 274.508 161.408C274.503 161.427 274.499 161.449 274.499 161.47C274.498 161.493 274.501 161.506 274.501 161.505L288.832 158.154C289.979 163.117 288.416 168.067 285.133 171.476L274.549 161.335ZM274.501 161.505L273.719 158.124L288.05 154.772L288.832 158.154L274.501 161.505ZM273.719 158.124C274.594 161.908 278.337 164.187 282.052 163.373L278.954 149.046C283.006 148.158 287.099 150.656 288.05 154.772L273.719 158.124ZM282.052 163.373C278.151 164.228 274.23 161.951 273.081 158.117L287.172 153.862C286.117 150.341 282.533 148.262 278.954 149.046L282.052 163.373ZM273.081 158.117L269.292 145.478L283.383 141.222L287.172 153.862L273.081 158.117ZM269.292 145.478C269.714 146.888 270.615 147.862 271.526 148.429C272.438 148.996 273.695 149.364 275.123 149.137L272.867 134.65C277.466 133.919 282.031 136.714 283.383 141.222L269.292 145.478ZM275.123 149.137C276.612 148.9 278.111 148.021 279.064 146.524C280.02 145.022 280.187 143.276 279.745 141.801L265.653 146.056C264.073 140.782 267.513 135.501 272.867 134.65L275.123 149.137ZM279.745 141.801L283.49 154.294L269.399 158.549L265.653 146.056L279.745 141.801ZM283.49 154.294C284.827 158.753 282.066 163.37 277.531 164.364L274.433 150.036C270.619 150.871 268.272 154.792 269.399 158.549L283.49 154.294ZM277.531 164.364L276.582 164.572L273.484 150.244L274.433 150.036L277.531 164.364ZM276.582 164.572C272.483 165.47 268.354 163.072 267.147 159.044L281.238 154.788C280.24 151.462 276.864 149.504 273.484 150.244L276.582 164.572ZM267.147 159.044L263.65 147.381L277.742 143.126L281.238 154.788L267.147 159.044ZM263.65 147.381C264.073 148.791 264.973 149.766 265.885 150.333C266.797 150.9 268.054 151.267 269.482 151.04L267.225 136.554C271.825 135.823 276.39 138.618 277.742 143.126L263.65 147.381ZM269.482 151.04C270.971 150.804 272.469 149.925 273.423 148.427C274.379 146.926 274.546 145.179 274.103 143.704L260.012 147.96C258.431 142.686 261.872 137.405 267.225 136.554L269.482 151.04ZM274.103 143.704L277.661 155.57L263.569 159.826L260.012 147.96L274.103 143.704ZM277.661 155.57C278.997 160.03 276.237 164.647 271.702 165.641L268.604 151.313C264.79 152.148 262.443 156.069 263.569 159.826L277.661 155.57ZM271.702 165.641L270.656 165.87L267.558 151.542L268.604 151.313L271.702 165.641ZM270.656 165.87C266.557 166.768 262.428 164.37 261.22 160.342L275.312 156.087C274.314 152.76 270.938 150.802 267.558 151.542L270.656 165.87ZM261.22 160.342L257.888 149.227L271.979 144.971L275.312 156.087L261.22 160.342ZM257.888 149.227C258.311 150.637 259.211 151.611 260.123 152.178C261.035 152.745 262.292 153.112 263.72 152.886L261.463 138.399C266.062 137.668 270.628 140.463 271.979 144.971L257.888 149.227ZM263.72 152.886C265.209 152.649 266.707 151.77 267.661 150.273C268.617 148.771 268.783 147.025 268.341 145.549L254.25 149.805C252.669 144.531 256.109 139.25 261.463 138.399L263.72 152.886ZM268.341 145.549L272.719 160.152L258.627 164.407L254.25 149.805L268.341 145.549ZM272.719 160.152C272.349 158.92 271.612 158.021 270.845 157.447L261.989 169.195C260.526 168.1 259.249 166.48 258.627 164.407L272.719 160.152ZM270.845 157.447C271.836 158.189 273.096 159.479 273.744 161.457L259.762 166.064C260.295 167.691 261.304 168.682 261.989 169.195L270.845 157.447ZM273.743 161.457C273.741 161.449 273.736 161.44 273.733 161.436C273.731 161.433 273.734 161.438 273.745 161.447C273.757 161.456 273.771 161.463 273.785 161.468C273.797 161.472 273.805 161.473 273.809 161.473L273.128 176.13C267.127 175.877 261.697 171.972 259.762 166.064L273.743 161.457ZM280.64 167.153L281.605 171.401L267.262 174.699L266.297 170.451L280.64 167.153ZM260.784 178.91C262.223 172.978 266.425 168.401 271.679 166.261L277.189 179.84C276.175 180.252 275.36 181.137 275.076 182.307L260.784 178.91ZM262.874 192.557C260.487 188.618 259.609 183.748 260.784 178.91L275.076 182.307C274.844 183.265 275.017 184.186 275.467 184.929L262.874 192.557ZM259.673 190.057L262.95 184.857L275.391 192.628L272.114 197.828L259.673 190.057ZM263.338 188.796C261.88 188.296 260.399 188.906 259.673 190.057L272.114 197.828C269.273 202.337 263.655 204.437 258.505 202.67L263.338 188.796ZM257.551 186.811L263.338 188.796L258.505 202.67L252.717 200.685L257.551 186.811ZM262.995 193.352C262.705 194.308 262.393 195.253 262.059 196.185L248.209 191.311C248.463 190.6 248.7 189.881 248.922 189.152L262.995 193.352ZM220.249 111.893C254.513 122.231 273.492 158.782 262.995 193.352L248.922 189.152C257.14 162.086 242.213 133.863 215.938 125.936L220.249 111.893ZM139.306 156.078C149.807 121.492 185.967 101.549 220.249 111.893L215.938 125.936C189.681 118.013 161.593 133.227 153.38 160.277L139.306 156.078Z" fill="white" mask="url(#path-13-outside-2_709_2132)"/>
<path fill-rule="evenodd" clip-rule="evenodd" d="M144.98 160.532C145.16 159.806 145.356 159.081 145.569 158.357C154.64 127.439 186.822 109.679 217.449 118.687C248.075 127.696 265.55 160.062 256.478 190.98C256.191 191.959 255.878 192.924 255.539 193.875L260.931 195.73C262.777 196.365 264.841 195.622 265.897 193.944L269.18 188.72C267.759 186.379 267.233 183.484 267.937 180.589C269.345 174.798 275.147 171.202 280.894 172.558C286.642 173.914 290.16 179.707 288.751 185.498C287.821 189.322 284.976 192.188 281.496 193.305L276.4 201.41C272.573 207.498 265.088 210.191 258.394 207.889L250.092 205.033C237.637 224.822 213.24 238.478 187.016 252.815C183.273 254.862 181.402 255.885 179.599 255.936C178.005 255.981 176.46 255.527 175.144 254.626C173.655 253.606 172.633 251.732 170.591 247.984C156.156 221.5 142.91 196.604 143.357 173.039C143.189 172.979 143.023 172.913 142.859 172.838L132.327 168.067C125.888 165.149 122.307 158.308 123.659 151.504L124.983 144.84C121.719 141.716 120.69 136.701 122.784 132.359C125.39 126.958 131.842 124.643 137.196 127.19C142.551 129.737 144.779 136.181 142.173 141.583C141.221 143.557 139.754 145.119 138.015 146.182L136.618 153.214C136.241 155.115 137.241 157.026 139.04 157.841L144.98 160.532Z" fill="#FF6265"/>
<path d="M145.569 158.357L146.814 158.716L146.814 158.716L145.569 158.357ZM144.98 160.532L146.239 160.839L145.862 162.356L144.439 161.711L144.98 160.532ZM217.449 118.687L217.078 119.929L217.449 118.687ZM256.478 190.98L257.723 191.339L257.723 191.339L256.478 190.98ZM255.539 193.875L255.112 195.099L253.879 194.675L254.316 193.446L255.539 193.875ZM260.931 195.73L261.358 194.506L260.931 195.73ZM265.897 193.944L264.798 193.259L265.897 193.944ZM269.18 188.72L270.291 188.047L270.704 188.728L270.279 189.405L269.18 188.72ZM267.937 180.589L266.676 180.288L267.937 180.589ZM280.894 172.558L280.591 173.818L280.591 173.818L280.894 172.558ZM288.751 185.498L290.012 185.799L288.751 185.498ZM281.496 193.305L280.398 192.62L280.651 192.218L281.103 192.072L281.496 193.305ZM276.4 201.41L275.302 200.725L276.4 201.41ZM258.394 207.889L258.821 206.665L258.394 207.889ZM250.092 205.033L248.994 204.348L249.543 203.474L250.518 203.809L250.092 205.033ZM187.016 252.815L186.396 251.681L187.016 252.815ZM179.599 255.936L179.631 257.23L179.631 257.23L179.599 255.936ZM175.144 254.626L174.407 255.694L174.407 255.694L175.144 254.626ZM170.591 247.984L171.731 247.362L171.731 247.362L170.591 247.984ZM143.357 173.039L143.794 171.818L144.672 172.128L144.654 173.058L143.357 173.039ZM142.859 172.838L143.4 171.659L143.4 171.659L142.859 172.838ZM132.327 168.067L131.787 169.246L132.327 168.067ZM123.659 151.504L124.932 151.752L123.659 151.504ZM124.983 144.84L125.883 143.904L126.394 144.393L126.256 145.087L124.983 144.84ZM122.784 132.359L123.953 132.917L123.953 132.917L122.784 132.359ZM142.173 141.583L141.005 141.025L141.005 141.025L142.173 141.583ZM138.015 146.182L136.743 145.935L136.854 145.377L137.341 145.079L138.015 146.182ZM136.618 153.214L137.891 153.461L137.891 153.461L136.618 153.214ZM139.04 157.841L138.5 159.02L139.04 157.841ZM146.814 158.716C146.606 159.423 146.415 160.13 146.239 160.839L143.72 160.225C143.905 159.481 144.106 158.739 144.324 157.997L146.814 158.716ZM217.078 119.929C187.151 111.126 155.686 128.477 146.814 158.716L144.324 157.997C153.594 126.401 186.493 108.231 217.82 117.445L217.078 119.929ZM255.233 190.62C264.107 160.376 247.01 128.733 217.078 119.929L217.82 117.445C249.141 126.658 266.992 159.748 257.723 191.339L255.233 190.62ZM254.316 193.446C254.647 192.517 254.953 191.576 255.233 190.62L257.723 191.339C257.429 192.342 257.108 193.33 256.761 194.304L254.316 193.446ZM260.505 196.954L255.112 195.099L255.966 192.651L261.358 194.506L260.505 196.954ZM266.995 194.629C265.625 196.808 262.933 197.789 260.505 196.954L261.358 194.506C262.621 194.94 264.058 194.436 264.798 193.259L266.995 194.629ZM270.279 189.405L266.995 194.629L264.798 193.259L268.082 188.035L270.279 189.405ZM269.198 180.89C268.577 183.441 269.041 185.987 270.291 188.047L268.07 189.394C266.478 186.77 265.888 183.526 266.676 180.288L269.198 180.89ZM280.591 173.818C275.55 172.629 270.44 175.782 269.198 180.89L266.676 180.288C268.251 173.814 274.743 169.776 281.197 171.298L280.591 173.818ZM287.491 185.198C288.732 180.092 285.63 175.006 280.591 173.818L281.197 171.298C287.655 172.821 291.587 179.323 290.012 185.799L287.491 185.198ZM281.103 192.072C284.166 191.09 286.671 188.566 287.491 185.198L290.012 185.799C288.972 190.077 285.786 193.287 281.889 194.537L281.103 192.072ZM275.302 200.725L280.398 192.62L282.595 193.99L277.499 202.095L275.302 200.725ZM258.821 206.665C264.932 208.767 271.79 206.312 275.302 200.725L277.499 202.095C273.356 208.684 265.244 211.616 257.967 209.113L258.821 206.665ZM250.518 203.809L258.821 206.665L257.967 209.113L249.665 206.257L250.518 203.809ZM186.396 251.681C199.517 244.507 212.108 237.542 222.973 229.911C233.836 222.282 242.895 214.038 248.994 204.348L251.19 205.719C244.834 215.818 235.467 224.297 224.462 232.027C213.458 239.755 200.739 246.787 187.636 253.95L186.396 251.681ZM179.566 254.642C180.225 254.623 180.965 254.428 182.054 253.942C183.156 253.451 184.506 252.714 186.396 251.681L187.636 253.95C185.784 254.963 184.326 255.761 183.106 256.305C181.872 256.856 180.775 257.198 179.631 257.23L179.566 254.642ZM175.88 253.558C176.972 254.305 178.247 254.68 179.566 254.642L179.631 257.23C177.762 257.283 175.948 256.749 174.407 255.694L175.88 253.558ZM171.731 247.362C172.762 249.255 173.5 250.607 174.162 251.617C174.816 252.617 175.334 253.184 175.88 253.558L174.407 255.694C173.464 255.048 172.727 254.168 171.988 253.039C171.256 251.921 170.461 250.461 169.45 248.606L171.731 247.362ZM144.654 173.058C144.436 184.597 147.569 196.529 152.596 208.928C157.624 221.329 164.509 234.111 171.731 247.362L169.45 248.606C162.238 235.373 155.282 222.465 150.19 209.906C145.098 197.345 141.832 185.046 142.06 173.019L144.654 173.058ZM143.4 171.659C143.529 171.718 143.661 171.771 143.794 171.818L142.92 174.259C142.717 174.187 142.517 174.107 142.319 174.017L143.4 171.659ZM132.867 166.888L143.4 171.659L142.319 174.017L131.787 169.246L132.867 166.888ZM124.932 151.752C123.7 157.95 126.959 164.211 132.867 166.888L131.787 169.246C124.817 166.088 120.915 158.665 122.386 151.257L124.932 151.752ZM126.256 145.087L124.932 151.752L122.386 151.257L123.71 144.593L126.256 145.087ZM123.953 132.917C122.106 136.746 123.016 141.16 125.883 143.904L124.083 145.776C120.422 142.272 119.274 136.656 121.616 131.802L123.953 132.917ZM136.634 128.359C131.937 126.124 126.253 128.149 123.953 132.917L121.616 131.802C124.527 125.766 131.748 123.162 137.758 126.021L136.634 128.359ZM141.005 141.025C143.304 136.258 141.331 130.593 136.634 128.359L137.758 126.021C143.77 128.881 146.254 136.104 143.342 142.141L141.005 141.025ZM137.341 145.079C138.872 144.143 140.164 142.768 141.005 141.025L143.342 142.141C142.278 144.347 140.637 146.096 138.69 147.286L137.341 145.079ZM135.346 152.967L136.743 145.935L139.288 146.43L137.891 153.461L135.346 152.967ZM138.5 159.02C136.17 157.965 134.848 155.473 135.346 152.967L137.891 153.461C137.634 154.757 138.312 156.088 139.58 156.662L138.5 159.02ZM144.439 161.711L138.5 159.02L139.58 156.662L145.52 159.353L144.439 161.711Z" fill="black"/>
<path d="M161.746 162.401C155.613 183.974 168.125 206.399 189.692 212.49C211.259 218.581 233.715 206.031 239.848 184.458C245.981 162.885 233.469 140.459 211.902 134.369C190.335 128.278 167.879 140.828 161.746 162.401Z" fill="#FFA3A5" stroke="black" stroke-width="1.4256"/>
<path d="M172.628 149.521C170.626 156.31 173.761 163.082 179.457 164.751C185.153 166.42 191.465 162.415 193.467 155.627C195.468 148.838 192.333 142.066 186.637 140.397C180.942 138.728 174.629 142.733 172.628 149.521Z" fill="white" stroke="black" stroke-width="0.901043"/>
<path d="M194.893 155.478C192.891 162.267 196.026 169.039 201.722 170.708C207.418 172.377 213.73 168.372 215.732 161.584C217.733 154.795 214.598 148.023 208.903 146.354C203.207 144.685 196.894 148.69 194.893 155.478Z" fill="white" stroke="black" stroke-width="0.901043"/>
<ellipse cx="6.63821" cy="7.68827" rx="6.63821" ry="7.68827" transform="matrix(-0.959584 -0.28111 -0.282856 0.959226 209.743 151.921)" fill="black"/>
<ellipse cx="6.63821" cy="7.68827" rx="6.63821" ry="7.68827" transform="matrix(-0.959584 -0.28111 -0.282856 0.959226 187.478 145.964)" fill="black"/>
<mask id="path-22-inside-3_709_2132" fill="white">
<path fill-rule="evenodd" clip-rule="evenodd" d="M146.263 127.469C149.748 129.597 154.842 129.365 158.41 126.98C162.999 123.912 168.27 115.136 165.303 110.641C162.336 106.146 152.254 107.636 147.665 110.704C143.89 113.228 141.661 118.273 142.642 122.486L118.875 136.912C116.616 138.283 115.923 141.304 117.358 143.526C118.793 145.748 121.768 146.26 123.871 144.647L146.148 127.562C146.187 127.532 146.225 127.501 146.263 127.469Z"/>
</mask>
<path fill-rule="evenodd" clip-rule="evenodd" d="M146.263 127.469C149.748 129.597 154.842 129.365 158.41 126.98C162.999 123.912 168.27 115.136 165.303 110.641C162.336 106.146 152.254 107.636 147.665 110.704C143.89 113.228 141.661 118.273 142.642 122.486L118.875 136.912C116.616 138.283 115.923 141.304 117.358 143.526C118.793 145.748 121.768 146.26 123.871 144.647L146.148 127.562C146.187 127.532 146.225 127.501 146.263 127.469Z" fill="#FF6265"/>
<path d="M158.41 126.98L159.343 128.434L158.41 126.98ZM146.263 127.469L147.153 125.973L146.114 125.339L145.175 126.132L146.263 127.469ZM165.303 110.641L163.879 111.621L165.303 110.641ZM147.665 110.704L146.732 109.25L147.665 110.704ZM142.642 122.486L143.511 123.981L144.6 123.32L144.309 122.071L142.642 122.486ZM118.875 136.912L118.006 135.417L118.875 136.912ZM117.358 143.526L115.924 144.491L115.924 144.491L117.358 143.526ZM123.871 144.647L122.846 143.259L123.871 144.647ZM146.148 127.562L147.172 128.95L147.172 128.95L146.148 127.562ZM157.477 125.526C154.419 127.571 150.034 127.732 147.153 125.973L145.373 128.965C149.462 131.462 155.265 131.16 159.343 128.434L157.477 125.526ZM163.879 111.621C164.337 112.314 164.541 113.266 164.419 114.498C164.296 115.734 163.854 117.142 163.155 118.585C161.743 121.501 159.466 124.196 157.477 125.526L159.343 128.434C161.944 126.695 164.597 123.469 166.226 120.106C167.047 118.409 167.653 116.589 167.828 114.82C168.003 113.046 167.753 111.215 166.728 109.662L163.879 111.621ZM148.598 112.158C150.588 110.828 153.945 109.757 157.173 109.576C158.77 109.487 160.24 109.622 161.43 109.991C162.618 110.359 163.419 110.924 163.879 111.621L166.728 109.662C165.704 108.111 164.132 107.176 162.452 106.656C160.773 106.135 158.879 105.992 157.012 106.096C153.309 106.303 149.332 107.512 146.732 109.25L148.598 112.158ZM144.309 122.071C143.515 118.663 145.35 114.329 148.598 112.158L146.732 109.25C142.429 112.127 139.807 117.884 140.975 122.9L144.309 122.071ZM119.744 138.407L143.511 123.981L141.773 120.991L118.006 135.417L119.744 138.407ZM118.792 142.561C117.891 141.167 118.328 139.266 119.744 138.407L118.006 135.417C114.904 137.3 113.954 141.442 115.924 144.491L118.792 142.561ZM122.846 143.259C121.534 144.265 119.686 143.946 118.792 142.561L115.924 144.491C117.9 147.551 122.001 148.256 124.895 146.036L122.846 143.259ZM145.123 126.173L122.846 143.259L124.895 146.036L147.172 128.95L145.123 126.173ZM145.175 126.132C145.158 126.146 145.141 126.16 145.123 126.173L147.172 128.95C147.233 128.904 147.292 128.856 147.35 128.807L145.175 126.132Z" fill="black" mask="url(#path-22-inside-3_709_2132)"/>
<path fill-rule="evenodd" clip-rule="evenodd" d="M275.932 143.197C275.643 142.317 274.686 141.808 273.794 142.059C272.903 142.31 272.414 143.227 272.703 144.107L276.784 156.534C276.899 156.882 276.707 157.25 276.356 157.357L275.138 157.725C274.786 157.831 274.407 157.634 274.292 157.285L270.291 145.102C270.002 144.222 269.045 143.713 268.154 143.964C267.262 144.215 266.774 145.132 267.063 146.012L271.085 158.258C271.199 158.607 271.007 158.975 270.656 159.081L269.343 159.478C268.991 159.585 268.612 159.387 268.498 159.038L264.527 146.947C264.238 146.067 263.281 145.558 262.389 145.809C261.498 146.06 261.009 146.977 261.298 147.857L266.085 162.434C266.16 162.662 266.281 162.866 266.433 163.038C266.478 163.089 266.515 163.148 266.535 163.213C267.456 166.233 270.158 168.227 273.141 168.392L280.204 195.03C280.891 197.621 283.645 199.188 286.232 198.459C288.82 197.73 290.179 195.005 289.207 192.494L279.085 166.327C281.117 164.489 282.025 161.58 281.172 158.784L280.393 156.227C280.379 156.181 280.329 156.155 280.283 156.169C280.237 156.182 280.188 156.157 280.173 156.111L275.932 143.197Z" fill="#FF6265"/>
<path d="M273.794 142.059L273.536 141.235L273.536 141.235L273.794 142.059ZM275.932 143.197L275.103 143.443L275.932 143.197ZM272.703 144.107L271.875 144.353L271.875 144.353L272.703 144.107ZM276.784 156.534L275.956 156.78L276.784 156.534ZM276.356 157.357L276.082 156.537L276.082 156.537L276.356 157.357ZM275.138 157.725L274.865 156.905L274.865 156.905L275.138 157.725ZM274.292 157.285L273.464 157.531L274.292 157.285ZM270.291 145.102L271.119 144.856L270.291 145.102ZM268.154 143.964L267.896 143.14L268.154 143.964ZM267.063 146.012L266.234 146.258L266.234 146.258L267.063 146.012ZM271.085 158.258L271.913 158.012L271.085 158.258ZM270.656 159.081L270.93 159.9L270.93 159.9L270.656 159.081ZM269.343 159.478L269.617 160.298L269.617 160.298L269.343 159.478ZM268.498 159.038L269.326 158.792L269.326 158.792L268.498 159.038ZM264.527 146.947L265.355 146.701L264.527 146.947ZM262.389 145.809L262.131 144.985L262.389 145.809ZM261.298 147.857L260.47 148.103L260.47 148.103L261.298 147.857ZM266.085 162.434L266.914 162.188L266.914 162.188L266.085 162.434ZM266.433 163.038L265.783 163.593L265.783 163.593L266.433 163.038ZM266.535 163.213L267.369 162.984L267.369 162.984L266.535 163.213ZM273.141 168.392L273.17 167.537L273.819 167.573L273.984 168.194L273.141 168.392ZM280.204 195.03L279.361 195.228L280.204 195.03ZM286.232 198.459L285.975 197.635L285.975 197.635L286.232 198.459ZM289.207 192.494L290.021 192.205L289.207 192.494ZM279.085 166.327L278.272 166.615L278.062 166.074L278.488 165.69L279.085 166.327ZM281.172 158.784L282.006 158.556L281.172 158.784ZM280.393 156.227L279.559 156.456L279.559 156.456L280.393 156.227ZM280.283 156.169L280.009 155.349L280.009 155.349L280.283 156.169ZM280.173 156.111L279.345 156.358L279.345 156.358L280.173 156.111ZM273.536 141.235C274.883 140.855 276.324 141.622 276.76 142.951L275.103 143.443C274.962 143.012 274.489 142.76 274.052 142.883L273.536 141.235ZM271.875 144.353C271.436 143.016 272.181 141.617 273.536 141.235L274.052 142.883C273.625 143.004 273.393 143.439 273.531 143.861L271.875 144.353ZM275.956 156.78L271.875 144.353L273.531 143.861L277.612 156.288L275.956 156.78ZM276.082 156.537C275.978 156.568 275.922 156.677 275.956 156.78L277.612 156.288C277.875 157.088 277.436 157.932 276.63 158.176L276.082 156.537ZM274.865 156.905L276.082 156.537L276.63 158.176L275.412 158.545L274.865 156.905ZM275.121 157.039C275.086 156.933 274.971 156.873 274.865 156.905L275.412 158.545C274.602 158.79 273.728 158.335 273.464 157.531L275.121 157.039ZM271.119 144.856L275.121 157.039L273.464 157.531L269.463 145.348L271.119 144.856ZM267.896 143.14C269.242 142.76 270.683 143.527 271.119 144.856L269.463 145.348C269.321 144.917 268.848 144.665 268.412 144.788L267.896 143.14ZM266.234 146.258C265.795 144.92 266.54 143.522 267.896 143.14L268.412 144.788C267.984 144.909 267.752 145.344 267.891 145.766L266.234 146.258ZM270.256 158.504L266.234 146.258L267.891 145.766L271.913 158.012L270.256 158.504ZM270.383 158.261C270.279 158.293 270.222 158.401 270.256 158.504L271.913 158.012C272.176 158.812 271.736 159.657 270.93 159.9L270.383 158.261ZM269.07 158.658L270.383 158.261L270.93 159.9L269.617 160.298L269.07 158.658ZM269.326 158.792C269.291 158.686 269.176 158.626 269.07 158.658L269.617 160.298C268.807 160.543 267.934 160.088 267.669 159.284L269.326 158.792ZM265.355 146.701L269.326 158.792L267.669 159.284L263.698 147.193L265.355 146.701ZM262.131 144.985C263.478 144.605 264.919 145.372 265.355 146.701L263.698 147.193C263.557 146.762 263.084 146.51 262.647 146.633L262.131 144.985ZM260.47 148.103C260.03 146.766 260.776 145.367 262.131 144.985L262.647 146.633C262.219 146.754 261.988 147.189 262.126 147.611L260.47 148.103ZM265.257 162.68L260.47 148.103L262.126 147.611L266.914 162.188L265.257 162.68ZM265.783 163.593C265.552 163.333 265.37 163.025 265.257 162.68L266.914 162.188C266.951 162.3 267.009 162.399 267.083 162.483L265.783 163.593ZM265.701 163.441C265.725 163.52 265.763 163.57 265.783 163.593L267.083 162.483C267.194 162.608 267.305 162.775 267.369 162.984L265.701 163.441ZM273.113 169.248C269.763 169.062 266.732 166.823 265.701 163.441L267.369 162.984C268.179 165.643 270.552 167.391 273.17 167.537L273.113 169.248ZM273.984 168.194L281.046 194.832L279.361 195.228L272.299 168.59L273.984 168.194ZM281.046 194.832C281.607 196.948 283.86 198.23 285.975 197.635L286.49 199.283C283.429 200.145 280.174 198.295 279.361 195.228L281.046 194.832ZM285.975 197.635C288.08 197.042 289.185 194.827 288.394 192.782L290.021 192.205C291.172 195.183 289.559 198.419 286.49 199.283L285.975 197.635ZM288.394 192.782L278.272 166.615L279.898 166.038L290.021 192.205L288.394 192.782ZM282.006 158.556C282.959 161.68 281.943 164.92 279.682 166.964L278.488 165.69C280.292 164.059 281.091 161.48 280.339 159.013L282.006 158.556ZM281.227 155.999L282.006 158.556L280.339 159.013L279.559 156.456L281.227 155.999ZM280.009 155.349C280.521 155.194 281.071 155.488 281.227 155.999L279.559 156.456C279.687 156.874 280.138 157.115 280.556 156.988L280.009 155.349ZM281.001 155.865C280.867 155.456 280.422 155.224 280.009 155.349L280.556 156.988C280.052 157.141 279.509 156.858 279.345 156.358L281.001 155.865ZM276.76 142.951L281.001 155.865L279.345 156.358L275.103 143.443L276.76 142.951Z" fill="black"/>
<mask id="path-26-outside-4_709_2132" maskUnits="userSpaceOnUse" x="87.3635" y="-5.27565" width="137.596" height="125.881" fill="black">
<rect fill="white" x="87.3635" y="-5.27565" width="137.596" height="125.881"/>
<path fill-rule="evenodd" clip-rule="evenodd" d="M183.763 38.094C183.862 38.3243 183.957 38.5552 184.05 38.7867L186.851 37.1668C187.8 36.6181 188.248 35.4998 187.936 34.4605L186.853 30.8543C185.654 30.39 184.588 29.5464 183.854 28.3704C182.712 26.541 182.649 24.3489 183.493 22.5409L180.73 20.9585L180.715 20.9501C178.944 22.3435 176.149 22.5849 173.998 21.5499C171.181 20.1938 167.501 15.6982 168.776 12.9512C170.052 10.2042 175.799 10.246 178.617 11.6021C180.973 12.736 182.658 15.4515 182.401 17.9168L186.364 19.6477C189.132 18.3213 192.526 19.2754 194.199 21.9546C194.478 22.4027 194.693 22.8725 194.846 23.3531L196.567 24.105C197.934 24.7019 198.575 26.3433 197.97 27.6987C197.366 29.0541 195.765 29.5677 194.465 28.8231L194.092 28.6097C194.011 28.7298 193.925 28.8472 193.835 28.9618L194.983 32.7856C196.107 36.5289 194.493 40.5568 191.076 42.533L185.895 45.5294C188.01 58.8629 182.147 73.9358 175.714 90.0108C174.828 92.2241 174.385 93.3308 173.627 93.9951C172.956 94.5825 172.128 94.9373 171.24 95.0185C170.236 95.1104 169.128 94.6687 166.913 93.7852C151.389 87.5939 136.907 81.6613 128.532 71.6237L124.001 73.7109C120.403 75.3677 116.118 74.3158 113.669 71.1751L111.631 68.561C111.153 69.829 109.842 70.7299 108.433 70.6395C106.747 70.5313 105.619 69.0495 105.967 67.4022L106.489 64.9397C106.132 64.4653 105.84 63.9307 105.628 63.3439C104.595 60.4877 105.823 57.3705 108.392 55.9489L109.199 52.1372C108.206 51.3098 107.646 50.0181 107.816 48.6273L108.061 46.6135C108.07 46.5406 108.138 46.486 108.212 46.4928C108.284 46.4994 108.351 46.4474 108.362 46.3764L109.493 39.1291C109.586 38.5345 110.153 38.0758 110.759 38.1045C111.366 38.1332 111.782 38.6385 111.689 39.2332L110.581 46.3337C110.549 46.5376 110.692 46.7194 110.899 46.7383L111.298 46.7747C111.502 46.7934 111.692 46.6462 111.724 46.4448L112.764 39.7785C112.857 39.1839 113.424 38.7252 114.03 38.7539C114.637 38.7826 115.053 39.2879 114.961 39.8826L113.906 46.6374C113.874 46.8414 114.017 47.0231 114.224 47.042L114.678 47.0835C114.882 47.1021 115.072 46.9549 115.104 46.7536L116.097 40.3868C116.19 39.7921 116.757 39.3334 117.364 39.3621C117.97 39.3908 118.387 39.8962 118.294 40.4908L116.995 48.8102C116.953 49.0823 116.811 49.326 116.612 49.5075C116.533 49.5789 116.473 49.6693 116.452 49.7704C116.101 51.4391 114.745 52.719 113.101 53.0363L112.895 55.3846C114.774 55.8791 116.388 57.2597 117.099 59.2254C117.647 60.7422 117.558 62.3326 116.969 63.7036L119.103 66.4403C119.778 67.3058 120.959 67.5956 121.95 67.1391L124.685 65.8793C124.341 65.2167 124.018 64.5382 123.72 63.8431C116.554 47.1521 124.186 27.8572 140.766 20.7468C157.347 13.6364 176.597 21.403 183.763 38.094Z"/>
</mask>
<path d="M184.05 38.7867L180.225 40.2986L181.998 44.7272L186.125 42.3401L184.05 38.7867ZM183.763 38.094L187.549 36.4881L187.549 36.4881L183.763 38.094ZM186.851 37.1668L188.926 40.7201L186.851 37.1668ZM187.936 34.4605L183.99 35.6271L183.99 35.6271L187.936 34.4605ZM186.853 30.8543L190.799 29.6877L190.219 27.7572L188.334 27.0273L186.853 30.8543ZM183.854 28.3704L180.358 30.532L180.359 30.532L183.854 28.3704ZM183.493 22.5409L187.229 24.2829L188.825 20.8645L185.537 18.9819L183.493 22.5409ZM180.73 20.9585L178.67 24.5081L178.678 24.5129L178.686 24.5176L180.73 20.9585ZM180.715 20.9501L182.775 17.4004L180.35 15.9975L178.157 17.7242L180.715 20.9501ZM173.998 21.5499L172.217 25.2467L172.217 25.2467L173.998 21.5499ZM168.776 12.9512L172.515 14.6854L168.776 12.9512ZM178.617 11.6021L176.835 15.2989L176.835 15.2989L178.617 11.6021ZM182.401 17.9168L178.304 17.4807L177.993 20.4693L180.758 21.6769L182.401 17.9168ZM186.364 19.6477L184.72 23.4079L186.455 24.1655L188.158 23.3495L186.364 19.6477ZM194.199 21.9546L190.703 24.1162L190.703 24.1162L194.199 21.9546ZM194.846 23.3531L190.92 24.5825L191.486 26.3633L193.202 27.1132L194.846 23.3531ZM196.567 24.105L198.211 20.3449L198.211 20.3449L196.567 24.105ZM194.465 28.8231L192.421 32.3822L192.421 32.3822L194.465 28.8231ZM194.092 28.6097L196.135 25.0506L192.81 23.1463L190.673 26.309L194.092 28.6097ZM193.835 28.9618L190.591 26.4214L189.277 28.0909L189.889 30.1284L193.835 28.9618ZM194.983 32.7856L198.929 31.619L198.929 31.619L194.983 32.7856ZM191.076 42.533L193.151 46.0863L193.151 46.0863L191.076 42.533ZM185.895 45.5294L183.82 41.9761L181.387 43.3835L181.827 46.1586L185.895 45.5294ZM175.714 90.0108L179.541 91.5423L179.541 91.5423L175.714 90.0108ZM173.627 93.9951L176.35 97.084L176.35 97.084L173.627 93.9951ZM171.24 95.0185L171.629 99.1076L171.629 99.1076L171.24 95.0185ZM166.913 93.7852L168.433 89.9734L166.913 93.7852ZM128.532 71.6237L131.696 69.0037L129.668 66.5723L126.795 67.8951L128.532 71.6237ZM124.001 73.7109L125.738 77.4394L125.738 77.4394L124.001 73.7109ZM113.669 71.1751L116.918 68.6613L116.918 68.6613L113.669 71.1751ZM111.631 68.561L114.88 66.0472L110.356 60.2457L107.773 67.1083L111.631 68.561ZM108.433 70.6395L108.181 74.7372L108.181 74.7372L108.433 70.6395ZM105.967 67.4022L109.998 68.2617L109.998 68.2617L105.967 67.4022ZM106.489 64.9397L110.519 65.7993L110.904 63.979L109.784 62.4863L106.489 64.9397ZM105.628 63.3439L109.502 61.9623L105.628 63.3439ZM108.392 55.9489L110.399 59.5405L112.035 58.635L112.422 56.8084L108.392 55.9489ZM109.199 52.1372L113.229 52.9967L113.741 50.5795L111.836 48.991L109.199 52.1372ZM107.816 48.6273L103.727 48.1201L103.727 48.1201L107.816 48.6273ZM108.061 46.6135L103.972 46.1062L103.972 46.1062L108.061 46.6135ZM108.212 46.4928L108.575 42.4037L108.575 42.4037L108.212 46.4928ZM108.362 46.3764L112.432 47.0198L112.432 47.0198L108.362 46.3764ZM109.493 39.1291L105.423 38.4857L105.423 38.4858L109.493 39.1291ZM110.759 38.1045L110.576 42.2061L110.576 42.2061L110.759 38.1045ZM111.689 39.2332L115.76 39.8765L115.76 39.8765L111.689 39.2332ZM110.581 46.3337L114.651 46.9771L114.651 46.9771L110.581 46.3337ZM110.899 46.7383L111.263 42.6492L111.263 42.6492L110.899 46.7383ZM111.298 46.7747L111.661 42.6856L111.661 42.6856L111.298 46.7747ZM111.724 46.4448L115.794 47.0882L115.794 47.0882L111.724 46.4448ZM112.764 39.7785L116.834 40.4219L116.834 40.4219L112.764 39.7785ZM114.03 38.7539L113.847 42.8555L113.847 42.8555L114.03 38.7539ZM114.961 39.8826L110.89 39.2392L110.89 39.2392L114.961 39.8826ZM113.906 46.6374L117.976 47.2808L117.976 47.2808L113.906 46.6374ZM114.224 47.042L113.861 51.1311L113.861 51.1311L114.224 47.042ZM114.678 47.0835L115.041 42.9944L115.041 42.9944L114.678 47.0835ZM115.104 46.7536L119.174 47.397L119.174 47.397L115.104 46.7536ZM116.097 40.3868L120.167 41.0301L120.167 41.0301L116.097 40.3868ZM117.364 39.3621L117.547 35.2605L117.547 35.2605L117.364 39.3621ZM118.294 40.4908L114.224 39.8474L114.224 39.8474L118.294 40.4908ZM116.995 48.8102L112.925 48.1669L112.925 48.1669L116.995 48.8102ZM116.612 49.5075L113.829 46.4714L113.829 46.4714L116.612 49.5075ZM116.452 49.7704L112.42 48.9165L112.42 48.9165L116.452 49.7704ZM113.101 53.0363L112.306 49.0049L109.267 49.5915L108.997 52.6668L113.101 53.0363ZM112.895 55.3846L108.792 55.015L108.489 58.4687L111.855 59.3546L112.895 55.3846ZM117.099 59.2254L113.224 60.6071L113.224 60.6071L117.099 59.2254ZM116.969 63.7036L113.182 62.0778L112.227 64.3021L113.72 66.2174L116.969 63.7036ZM119.103 66.4403L122.352 63.9265L119.103 66.4403ZM121.95 67.1391L120.213 63.4106L120.213 63.4106L121.95 67.1391ZM124.685 65.8793L126.422 69.6079L130.325 67.8104L128.34 63.9971L124.685 65.8793ZM123.72 63.8431L127.506 62.2372L123.72 63.8431ZM140.766 20.7468L142.404 24.5196L140.766 20.7468ZM187.875 37.2748C187.77 37.0119 187.661 36.7496 187.549 36.4881L179.977 39.6998C180.062 39.8989 180.145 40.0985 180.225 40.2986L187.875 37.2748ZM184.776 33.6135L181.975 35.2334L186.125 42.3401L188.926 40.7201L184.776 33.6135ZM183.99 35.6271C183.748 34.8219 184.105 34.0017 184.776 33.6135L188.926 40.7201C191.495 39.2346 192.748 36.1777 191.882 33.2939L183.99 35.6271ZM182.907 32.0209L183.99 35.6271L191.882 33.2939L190.799 29.6877L182.907 32.0209ZM180.359 30.532C181.58 32.4896 183.365 33.9042 185.371 34.6813L188.334 27.0273C187.943 26.8758 187.596 26.6032 187.35 26.2088L180.359 30.532ZM179.758 20.799C178.35 23.8145 178.453 27.4785 180.358 30.532L187.35 26.2088C186.972 25.6036 186.948 24.8834 187.229 24.2829L179.758 20.799ZM178.686 24.5176L181.45 26.1L185.537 18.9819L182.773 17.3994L178.686 24.5176ZM178.655 24.4997L178.67 24.5081L182.789 17.4088L182.775 17.4004L178.655 24.4997ZM172.217 25.2467C175.669 26.9084 180.169 26.6195 183.273 24.1759L178.157 17.7242C177.72 18.0675 176.628 18.2613 175.78 17.8531L172.217 25.2467ZM165.037 11.217C164.205 13.0094 164.303 14.8289 164.664 16.2554C165.024 17.6803 165.706 18.9823 166.445 20.0687C167.878 22.1764 170.023 24.1908 172.217 25.2467L175.78 17.8531C175.156 17.5529 174.052 16.6414 173.26 15.4756C172.886 14.9251 172.711 14.5035 172.652 14.2705C172.593 14.0391 172.71 14.2665 172.515 14.6854L165.037 11.217ZM180.399 7.90533C178.201 6.84778 175.295 6.43365 172.761 6.64621C171.455 6.75568 170.013 7.04889 168.678 7.68125C167.335 8.31768 165.873 9.41596 165.037 11.217L172.515 14.6854C172.317 15.1129 172.052 15.1863 172.233 15.1004C172.423 15.0103 172.833 14.8837 173.476 14.8297C174.839 14.7155 176.215 15.0003 176.835 15.2989L180.399 7.90533ZM186.498 18.3528C186.957 13.9432 184.113 9.69278 180.399 7.90532L176.835 15.2989C177.833 15.7792 178.358 16.9598 178.304 17.4807L186.498 18.3528ZM188.007 15.8875L184.045 14.1566L180.758 21.6769L184.72 23.4079L188.007 15.8875ZM197.694 19.7931C194.906 15.325 189.228 13.7139 184.57 15.9458L188.158 23.3495C189.036 22.9287 190.147 23.2257 190.703 24.1162L197.694 19.7931ZM198.772 22.1236C198.516 21.3185 198.157 20.5352 197.694 19.7931L190.703 24.1162C190.799 24.2701 190.87 24.4265 190.92 24.5825L198.772 22.1236ZM198.211 20.3449L196.49 19.5929L193.202 27.1132L194.924 27.8652L198.211 20.3449ZM201.736 29.3756C203.268 25.9383 201.673 21.857 198.211 20.3449L194.924 27.8652C194.531 27.6935 194.284 27.3895 194.17 27.0965C194.055 26.8036 194.031 26.4129 194.205 26.0219L201.736 29.3756ZM192.421 32.3822C195.818 34.3275 200.132 32.9738 201.736 29.3756L194.205 26.0219C194.601 25.1345 195.711 24.8079 196.508 25.264L192.421 32.3822ZM192.048 32.1688L192.421 32.3822L196.508 25.264L196.135 25.0506L192.048 32.1688ZM197.079 31.5022C197.231 31.3094 197.375 31.112 197.511 30.9105L190.673 26.309C190.647 26.3475 190.62 26.385 190.591 26.4214L197.079 31.5022ZM198.929 31.619L197.781 27.7952L189.889 30.1284L191.038 33.9522L198.929 31.619ZM193.151 46.0863C198.188 43.1733 200.607 37.2068 198.929 31.619L191.038 33.9522C191.608 35.851 190.798 37.9404 189.001 38.9797L193.151 46.0863ZM187.97 49.0828L193.151 46.0863L189.001 38.9797L183.82 41.9761L187.97 49.0828ZM179.541 91.5423C182.743 83.5397 185.91 75.5325 187.988 67.8184C190.069 60.0962 191.148 52.3643 189.964 44.9003L181.827 46.1586C182.758 52.028 181.962 58.4992 180.032 65.6657C178.099 72.8402 175.118 80.4069 171.887 88.4793L179.541 91.5423ZM176.35 97.084C177.302 96.2502 177.889 95.273 178.315 94.4158C178.722 93.5973 179.123 92.5869 179.541 91.5423L171.888 88.4793C171.42 89.6481 171.157 90.2976 170.931 90.7518C170.724 91.1674 170.71 91.0756 170.903 90.9062L176.35 97.084ZM171.629 99.1076C173.385 98.9469 175.029 98.2408 176.35 97.084L170.903 90.9062C170.889 90.9183 170.881 90.9224 170.877 90.9238C170.874 90.9253 170.867 90.9281 170.851 90.9295L171.629 99.1076ZM165.393 97.597C166.438 98.0136 167.449 98.4203 168.325 98.6903C169.243 98.9734 170.362 99.2235 171.629 99.1076L170.851 90.9295C171.114 90.9055 171.176 90.9806 170.736 90.8449C170.254 90.6962 169.603 90.4402 168.433 89.9734L165.393 97.597ZM125.369 74.2436C130.036 79.8374 136.268 84.1312 143.112 87.769C149.952 91.4037 157.662 94.5139 165.393 97.597L168.433 89.9734C160.639 86.8652 153.347 83.9134 146.971 80.5247C140.6 77.1389 135.404 73.4476 131.696 69.0037L125.369 74.2436ZM125.738 77.4394L130.269 75.3522L126.795 67.8951L122.264 69.9824L125.738 77.4394ZM110.42 73.6889C114.04 78.3322 120.39 79.9024 125.738 77.4394L122.264 69.9824C120.417 70.8329 118.195 70.2994 116.918 68.6613L110.42 73.6889ZM108.381 71.0748L110.42 73.6889L116.918 68.6613L114.88 66.0472L108.381 71.0748ZM107.773 67.1083C107.854 66.8935 107.981 66.7625 108.098 66.6849C108.222 66.603 108.423 66.5249 108.685 66.5417L108.181 74.7372C111.477 74.9487 114.404 72.8927 115.488 70.0137L107.773 67.1083ZM108.685 66.5418C109.025 66.5636 109.431 66.7488 109.715 67.1214C109.999 67.4937 110.068 67.9316 109.998 68.2617L101.937 66.5426C101.07 70.638 103.982 74.4679 108.181 74.7372L108.685 66.5418ZM109.998 68.2617L110.519 65.7993L102.458 64.0802L101.937 66.5426L109.998 68.2617ZM101.753 64.7256C102.105 65.7 102.594 66.5953 103.193 67.3932L109.784 62.4863C109.671 62.3352 109.574 62.1613 109.502 61.9623L101.753 64.7256ZM106.384 52.3573C102.077 54.7407 100.027 59.9508 101.753 64.7256L109.502 61.9623C109.163 61.0246 109.568 60.0003 110.399 59.5405L106.384 52.3573ZM112.422 56.8084L113.229 52.9967L105.168 51.2776L104.361 55.0893L112.422 56.8084ZM111.836 48.991C111.858 49.0098 111.878 49.0354 111.891 49.0673C111.897 49.0836 111.902 49.0998 111.903 49.1143C111.905 49.1293 111.904 49.1369 111.905 49.1345L103.727 48.1201C103.384 50.9321 104.526 53.586 106.561 55.2834L111.836 48.991ZM111.905 49.1346L112.15 47.1207L103.972 46.1062L103.727 48.1201L111.905 49.1346ZM112.15 47.1207C111.889 49.264 109.971 50.7758 107.848 50.5819L108.575 42.4037C106.304 42.1963 104.251 43.8171 103.972 46.1062L112.15 47.1207ZM107.848 50.5818C110.072 50.785 112.086 49.2366 112.432 47.0198L104.292 45.733C104.615 43.6583 106.496 42.2137 108.575 42.4037L107.848 50.5818ZM112.432 47.0198L113.563 39.7725L105.423 38.4858L104.292 45.733L112.432 47.0198ZM113.563 39.7725C113.438 40.5755 113.014 41.1869 112.535 41.5743C112.056 41.9619 111.376 42.244 110.576 42.2061L110.942 34.0029C108.255 33.8756 105.841 35.8062 105.423 38.4857L113.563 39.7725ZM110.576 42.2061C109.747 42.1668 108.902 41.7787 108.307 41.0575C107.712 40.335 107.489 39.4237 107.619 38.5898L115.76 39.8765C116.233 36.8422 113.976 34.1466 110.942 34.0029L110.576 42.2061ZM107.619 38.5898L106.511 45.6903L114.651 46.9771L115.76 39.8765L107.619 38.5898ZM106.511 45.6903C106.111 48.251 107.968 50.5928 110.536 50.8274L111.263 42.6492C113.416 42.8459 114.987 44.8242 114.651 46.9771L106.511 45.6903ZM110.536 50.8273L110.935 50.8638L111.661 42.6856L111.263 42.6492L110.536 50.8273ZM110.935 50.8638C113.29 51.079 115.427 49.4353 115.794 47.0882L107.653 45.8015C107.957 43.857 109.714 42.5078 111.661 42.6856L110.935 50.8638ZM115.794 47.0882L116.834 40.4219L108.694 39.1352L107.653 45.8015L115.794 47.0882ZM116.834 40.4219C116.709 41.2249 116.285 41.8364 115.806 42.2237C115.327 42.6113 114.647 42.8934 113.847 42.8555L114.213 34.6523C111.526 34.525 109.112 36.4556 108.694 39.1352L116.834 40.4219ZM113.847 42.8555C113.018 42.8162 112.173 42.4281 111.578 41.7069C110.983 40.9844 110.76 40.0731 110.89 39.2392L119.031 40.5259C119.504 37.4916 117.247 34.796 114.213 34.6523L113.847 42.8555ZM110.89 39.2392L109.836 45.994L117.976 47.2808L119.031 40.5259L110.89 39.2392ZM109.836 45.994C109.436 48.5548 111.293 50.8966 113.861 51.1311L114.588 42.9529C116.741 43.1497 118.312 45.128 117.976 47.2808L109.836 45.994ZM113.861 51.1311L114.315 51.1726L115.041 42.9944L114.588 42.9529L113.861 51.1311ZM114.315 51.1726C116.67 51.3877 118.807 49.7441 119.174 47.397L111.033 46.1102C111.337 44.1658 113.094 42.8165 115.041 42.9944L114.315 51.1726ZM119.174 47.397L120.167 41.0301L112.027 39.7434L111.033 46.1102L119.174 47.397ZM120.167 41.0301C120.042 41.8331 119.618 42.4446 119.14 42.832C118.661 43.2195 117.981 43.5016 117.181 43.4637L117.547 35.2605C114.859 35.1333 112.445 37.0639 112.027 39.7434L120.167 41.0301ZM117.181 43.4637C116.352 43.4244 115.506 43.0364 114.912 42.3151C114.316 41.5926 114.093 40.6813 114.224 39.8474L122.364 41.1342C122.838 38.0998 120.58 35.4042 117.547 35.2605L117.181 43.4637ZM114.224 39.8474L112.925 48.1669L121.065 49.4536L122.364 41.1342L114.224 39.8474ZM112.925 48.1669C113.04 47.4311 113.407 46.8558 113.829 46.4714L119.394 52.5436C120.215 51.7961 120.866 50.7336 121.065 49.4536L112.925 48.1669ZM113.829 46.4714C113.286 46.9659 112.66 47.7743 112.42 48.9165L120.483 50.6243C120.286 51.5642 119.781 52.1918 119.394 52.5436L113.829 46.4714ZM112.42 48.9165C112.42 48.917 112.42 48.9174 112.419 48.9183C112.419 48.9192 112.418 48.9213 112.416 48.9246C112.412 48.9316 112.404 48.9433 112.39 48.9569C112.359 48.9876 112.324 49.0014 112.306 49.0049L113.896 57.0678C117.11 56.4473 119.783 53.9577 120.483 50.6243L112.42 48.9165ZM108.997 52.6668L108.792 55.015L116.999 55.7542L117.204 53.4059L108.997 52.6668ZM120.973 57.8438C119.784 54.5539 117.076 52.2411 113.935 51.4146L111.855 59.3546C112.473 59.5171 112.992 59.9656 113.224 60.6071L120.973 57.8438ZM120.757 65.3295C121.739 63.0422 121.889 60.3774 120.973 57.8438L113.224 60.6071C113.405 61.1071 113.377 61.6231 113.182 62.0778L120.757 65.3295ZM122.352 63.9265L120.219 61.1898L113.72 66.2174L115.854 68.9541L122.352 63.9265ZM120.213 63.4106C120.972 63.0609 121.856 63.2894 122.352 63.9265L115.854 68.9541C117.7 71.3222 120.945 72.1304 123.687 70.8676L120.213 63.4106ZM122.948 62.1508L120.213 63.4106L123.687 70.8676L126.422 69.6079L122.948 62.1508ZM119.934 65.449C120.273 66.2386 120.639 67.0092 121.03 67.7616L128.34 63.9971C128.042 63.4242 127.764 62.8378 127.506 62.2372L119.934 65.449ZM139.129 16.974C120.443 24.9874 111.885 46.7007 119.934 65.449L127.506 62.2372C121.223 47.6035 127.929 30.727 142.404 24.5196L139.129 16.974ZM187.549 36.4881C179.495 17.7283 157.827 8.95551 139.129 16.974L142.404 24.5196C156.867 18.3172 173.699 25.0776 179.977 39.6999L187.549 36.4881Z" fill="white" mask="url(#path-26-outside-4_709_2132)"/>
<path fill-rule="evenodd" clip-rule="evenodd" d="M184.115 38.7431C184.029 38.5269 183.94 38.3112 183.848 38.0961C176.714 21.4034 157.457 13.6339 140.837 20.7423C124.217 27.8506 116.526 47.1452 123.66 63.8378C123.961 64.5415 124.286 65.2281 124.635 65.8985L121.946 67.1385C120.954 67.5956 119.773 67.3062 119.098 66.4408L116.963 63.7047C117.553 62.3331 117.642 60.7416 117.092 59.224C115.945 56.0541 112.448 54.4069 109.281 55.5451C106.115 56.6832 104.478 60.1755 105.625 63.3455C106.441 65.5992 108.444 67.0832 110.672 67.3437L113.666 71.181C116.116 74.3207 120.401 75.3707 123.997 73.7125L128.481 71.6446C136.849 81.6729 151.333 87.6038 166.857 93.7952C169.066 94.6764 170.171 95.1169 171.174 95.0257C172.06 94.9451 172.886 94.5917 173.557 94.0062C174.316 93.3441 174.761 92.2408 175.651 90.0343C182.143 73.9324 188.064 58.8354 185.957 45.4836L191.063 42.5314C194.479 40.5563 196.096 36.5304 194.976 32.7875L193.83 28.957C195.37 26.9991 195.598 24.202 194.196 21.9534C192.406 19.0837 188.638 18.1939 185.78 19.9659C182.922 21.738 182.056 25.5008 183.846 28.3705C184.581 29.5496 185.65 30.3945 186.853 30.8578L187.931 34.4598C188.242 35.4989 187.793 36.6167 186.845 37.1651L184.115 38.7431Z" fill="#FF6265"/>
<path d="M183.848 38.0961L183.179 38.3786L183.179 38.3787L183.848 38.0961ZM184.115 38.7431L183.44 39.0102L183.753 39.7913L184.481 39.3703L184.115 38.7431ZM140.837 20.7423L140.549 20.0761L140.837 20.7423ZM123.66 63.8378L122.992 64.1204L123.66 63.8378ZM124.635 65.8985L124.941 66.5565L125.629 66.2392L125.28 65.5664L124.635 65.8985ZM121.946 67.1385L122.252 67.7965L122.252 67.7965L121.946 67.1385ZM119.098 66.4408L118.525 66.8848L119.098 66.4408ZM116.963 63.7047L116.295 63.4178L116.126 63.8107L116.39 64.1488L116.963 63.7047ZM117.092 59.224L117.776 58.9796L117.776 58.9796L117.092 59.224ZM109.281 55.5451L109.53 56.2269L109.53 56.2269L109.281 55.5451ZM105.625 63.3455L106.308 63.1011L105.625 63.3455ZM110.672 67.3437L111.245 66.8997L111.058 66.6594L110.755 66.6239L110.672 67.3437ZM113.666 71.181L114.239 70.737L113.666 71.181ZM123.997 73.7125L123.69 73.0545L123.997 73.7125ZM128.481 71.6446L129.039 71.1819L128.681 70.753L128.174 70.9866L128.481 71.6446ZM166.857 93.7952L166.589 94.4681L166.857 93.7952ZM171.174 95.0257L171.242 95.7475L171.174 95.0257ZM173.557 94.0062L173.078 93.4603L173.078 93.4603L173.557 94.0062ZM175.651 90.0343L174.976 89.7623L175.651 90.0343ZM185.957 45.4836L185.591 44.8564L185.162 45.1046L185.239 45.5944L185.957 45.4836ZM191.063 42.5314L191.429 43.1587L191.063 42.5314ZM194.976 32.7875L195.673 32.5821L194.976 32.7875ZM193.83 28.957L193.258 28.5088L193.026 28.8032L193.134 29.1624L193.83 28.957ZM194.196 21.9534L193.579 22.3349L193.579 22.3349L194.196 21.9534ZM185.78 19.9659L186.165 20.5817L185.78 19.9659ZM183.846 28.3705L184.462 27.9889L184.462 27.9889L183.846 28.3705ZM186.853 30.8578L187.55 30.6523L187.448 30.3104L187.114 30.1818L186.853 30.8578ZM187.931 34.4598L187.235 34.6652L187.235 34.6652L187.931 34.4598ZM186.845 37.1651L186.479 36.5379L186.845 37.1651ZM183.179 38.3787C183.269 38.5886 183.356 38.7991 183.44 39.0102L184.79 38.4761C184.702 38.2547 184.61 38.0338 184.516 37.8135L183.179 38.3787ZM141.125 21.4084C157.373 14.4593 176.202 22.053 183.179 38.3786L184.516 37.8135C177.225 20.7538 157.541 12.8085 140.549 20.0761L141.125 21.4084ZM124.329 63.5552C117.351 47.2275 124.875 28.3586 141.125 21.4084L140.549 20.0761C123.559 27.3427 115.702 47.0629 122.992 64.1204L124.329 63.5552ZM125.28 65.5664C124.94 64.9121 124.622 64.242 124.329 63.5552L122.992 64.1204C123.3 64.841 123.633 65.5441 123.989 66.2306L125.28 65.5664ZM122.252 67.7965L124.941 66.5565L124.328 65.2406L121.639 66.4806L122.252 67.7965ZM118.525 66.8848C119.407 68.0152 120.952 68.396 122.252 67.7965L121.639 66.4806C120.957 66.7953 120.14 66.5972 119.671 65.9967L118.525 66.8848ZM116.39 64.1488L118.525 66.8848L119.671 65.9967L117.536 63.2607L116.39 64.1488ZM116.409 59.4684C116.893 60.8064 116.815 62.208 116.295 63.4178L117.631 63.9917C118.29 62.4581 118.39 60.6768 117.776 58.9796L116.409 59.4684ZM109.53 56.2269C112.317 55.2251 115.398 56.6742 116.409 59.4684L117.776 58.9796C116.493 55.4339 112.579 53.5888 109.033 54.8632L109.53 56.2269ZM106.308 63.1011C105.297 60.3061 106.741 57.2291 109.53 56.2269L109.033 54.8632C105.488 56.1372 103.659 60.045 104.941 63.5898L106.308 63.1011ZM110.755 66.6239C108.791 66.3943 107.027 65.0867 106.308 63.1011L104.941 63.5898C105.854 66.1118 108.097 67.7721 110.589 68.0635L110.755 66.6239ZM114.239 70.737L111.245 66.8997L110.099 67.7878L113.093 71.6251L114.239 70.737ZM123.69 73.0545C120.403 74.5703 116.482 73.6116 114.239 70.737L113.093 71.6251C115.749 75.0297 120.398 76.1711 124.303 74.3704L123.69 73.0545ZM128.174 70.9866L123.69 73.0545L124.303 74.3704L128.787 72.3026L128.174 70.9866ZM167.125 93.1224C159.358 90.0245 151.892 87.0079 145.326 83.5193C138.76 80.0313 133.138 76.0946 129.039 71.1819L127.923 72.1072C132.191 77.2229 137.996 81.2658 144.645 84.7982C151.293 88.33 158.832 91.3746 166.589 94.4681L167.125 93.1224ZM171.106 94.304C170.739 94.3373 170.316 94.2786 169.681 94.0827C169.038 93.8846 168.241 93.5674 167.125 93.1224L166.589 94.4681C167.682 94.9042 168.543 95.2479 169.255 95.4675C169.975 95.6894 170.606 95.8053 171.242 95.7475L171.106 94.304ZM173.078 93.4603C172.522 93.9456 171.839 94.2372 171.106 94.304L171.242 95.7475C172.281 95.6529 173.251 95.2378 174.037 94.5522L173.078 93.4603ZM174.976 89.7623C174.527 90.8765 174.206 91.6722 173.904 92.2745C173.607 92.87 173.356 93.2174 173.078 93.4603L174.037 94.5522C174.517 94.1329 174.869 93.5976 175.205 92.9243C175.539 92.2578 175.885 91.3986 176.325 90.3062L174.976 89.7623ZM185.239 45.5944C186.27 52.1288 185.342 59.1292 183.327 66.5361C181.312 73.9443 178.225 81.7051 174.976 89.7623L176.325 90.3062C179.569 82.2615 182.689 74.4228 184.73 66.9192C186.772 59.4142 187.751 52.1902 186.675 45.3729L185.239 45.5944ZM190.697 41.9042L185.591 44.8564L186.323 46.1108L191.429 43.1587L190.697 41.9042ZM194.28 32.993C195.302 36.4103 193.828 40.0942 190.697 41.9042L191.429 43.1587C195.131 41.0183 196.89 36.6505 195.673 32.5821L194.28 32.993ZM193.134 29.1624L194.28 32.993L195.673 32.5821L194.527 28.7515L193.134 29.1624ZM193.579 22.3349C194.815 24.3177 194.614 26.7838 193.258 28.5088L194.403 29.4051C196.125 27.2144 196.381 24.0863 194.812 21.5718L193.579 22.3349ZM186.165 20.5817C188.68 19.0225 192 19.8032 193.579 22.3349L194.812 21.5718C192.812 18.3642 188.596 17.3653 185.395 19.3502L186.165 20.5817ZM184.462 27.9889C182.883 25.4567 183.649 22.1412 186.165 20.5817L185.395 19.3502C182.194 21.3348 181.228 25.5449 183.229 28.752L184.462 27.9889ZM187.114 30.1818C186.054 29.7736 185.112 29.0296 184.462 27.9889L183.229 28.752C184.051 30.0696 185.247 31.0154 186.593 31.5338L187.114 30.1818ZM188.628 34.2543L187.55 30.6523L186.157 31.0632L187.235 34.6652L188.628 34.2543ZM187.211 37.7923C188.445 37.0788 189.036 35.6191 188.628 34.2543L187.235 34.6652C187.448 35.3788 187.142 36.1547 186.479 36.5379L187.211 37.7923ZM184.481 39.3703L187.211 37.7923L186.479 36.5379L183.75 38.1159L184.481 39.3703Z" fill="black"/>
<path d="M174.747 41.4527C179.678 53.0609 174.262 66.4517 162.652 71.3621C151.042 76.2725 137.633 70.8432 132.703 59.235C127.772 47.6268 133.188 34.236 144.798 29.3256C156.408 24.4152 169.817 29.8445 174.747 41.4527Z" fill="#FFA3A5" stroke="black" stroke-width="0.798338"/>
<path d="M167.724 35.066C169.294 38.7319 167.98 42.7381 164.888 44.0585C161.796 45.3789 157.986 43.5609 156.416 39.895C154.846 36.229 156.161 32.2228 159.253 30.9025C162.345 29.5821 166.154 31.4001 167.724 35.066Z" fill="white" stroke="black" stroke-width="0.504586"/>
<path d="M155.792 39.9825C157.362 43.6484 156.047 47.6546 152.955 48.975C149.863 50.2954 146.054 48.4774 144.484 44.8115C142.914 41.1455 144.228 37.1393 147.32 35.819C150.412 34.4986 154.222 36.3166 155.792 39.9825Z" fill="white" stroke="black" stroke-width="0.504586"/>
<ellipse cx="3.75692" cy="4.33299" rx="3.75692" ry="4.33299" transform="matrix(0.919625 -0.392698 0.393732 0.919245 147.182 38.9805)" fill="black"/>
<ellipse cx="3.75692" cy="4.33299" rx="3.75692" ry="4.33299" transform="matrix(0.919625 -0.392698 0.393732 0.919245 159.115 34.064)" fill="black"/>
<mask id="path-35-inside-5_709_2132" fill="white">
<path fill-rule="evenodd" clip-rule="evenodd" d="M180.701 20.8927C178.914 22.336 176.053 22.576 173.889 21.5013C171.112 20.1218 167.542 15.6117 168.87 12.895C170.198 10.1783 175.921 10.2838 178.698 11.6633C180.977 12.7953 182.58 15.4347 182.348 17.8465L196.582 24.1507C197.939 24.7518 198.543 26.3842 197.904 27.7247C197.264 29.0652 195.644 29.5641 194.357 28.817L180.739 20.9156C180.726 20.9081 180.714 20.9005 180.701 20.8927Z"/>
</mask>
<path fill-rule="evenodd" clip-rule="evenodd" d="M180.701 20.8927C178.914 22.336 176.053 22.576 173.889 21.5013C171.112 20.1218 167.542 15.6117 168.87 12.895C170.198 10.1783 175.921 10.2838 178.698 11.6633C180.977 12.7953 182.58 15.4347 182.348 17.8465L196.582 24.1507C197.939 24.7518 198.543 26.3842 197.904 27.7247C197.264 29.0652 195.644 29.5641 194.357 28.817L180.739 20.9156C180.726 20.9081 180.714 20.9005 180.701 20.8927Z" fill="#FF6265"/>
<path d="M173.889 21.5013L174.307 20.6289L173.889 21.5013ZM180.701 20.8927L180.096 20.1306L180.618 19.7083L181.195 20.0627L180.701 20.8927ZM168.87 12.895L169.734 13.3325L168.87 12.895ZM178.698 11.6633L179.116 10.7909L178.698 11.6633ZM182.348 17.8465L181.969 18.737L181.322 18.4506L181.39 17.7434L182.348 17.8465ZM196.582 24.1507L196.203 25.0412L196.582 24.1507ZM194.357 28.817L194.83 27.9744L194.83 27.9744L194.357 28.817ZM180.739 20.9156L181.213 20.073L181.213 20.073L180.739 20.9156ZM174.307 20.6289C176.163 21.5506 178.621 21.3217 180.096 20.1306L181.306 21.6549C179.207 23.3503 175.943 23.6015 173.471 22.3736L174.307 20.6289ZM169.734 13.3325C169.529 13.7529 169.484 14.2993 169.641 14.9786C169.799 15.6599 170.148 16.4137 170.641 17.168C171.639 18.6918 173.103 20.0309 174.307 20.6289L173.471 22.3736C171.898 21.5922 170.189 19.9864 169.039 18.2312C168.46 17.3459 167.992 16.3766 167.767 15.405C167.541 14.4316 167.548 13.3955 168.007 12.4575L169.734 13.3325ZM178.28 12.5356C177.076 11.9373 175.129 11.5823 173.319 11.7134C172.423 11.7783 171.614 11.959 170.979 12.2494C170.345 12.5395 169.94 12.911 169.734 13.3325L168.007 12.4575C168.465 11.5207 169.273 10.8866 170.172 10.4755C171.07 10.0647 172.115 9.8486 173.163 9.77269C175.241 9.62221 177.543 10.0097 179.116 10.7909L178.28 12.5356ZM181.39 17.7434C181.579 15.7861 180.242 13.5099 178.28 12.5356L179.116 10.7909C181.713 12.0807 183.582 15.0834 183.306 17.9496L181.39 17.7434ZM196.203 25.0412L181.969 18.737L182.728 16.956L196.962 23.2602L196.203 25.0412ZM197.036 27.2956C197.439 26.4513 197.056 25.4192 196.203 25.0412L196.962 23.2602C198.823 24.0845 199.647 26.3172 198.772 28.1538L197.036 27.2956ZM194.83 27.9744C195.633 28.4405 196.638 28.1304 197.036 27.2956L198.772 28.1538C197.891 30 195.655 30.6877 193.884 29.6596L194.83 27.9744ZM181.213 20.073L194.83 27.9744L193.884 29.6596L180.266 21.7582L181.213 20.073ZM181.195 20.0627C181.201 20.0662 181.207 20.0697 181.213 20.073L180.266 21.7582C180.246 21.7465 180.226 21.7347 180.207 21.7228L181.195 20.0627Z" fill="black" mask="url(#path-35-inside-5_709_2132)"/>
<path fill-rule="evenodd" clip-rule="evenodd" d="M109.73 39.0159C109.827 38.4828 110.342 38.1057 110.881 38.1735C111.419 38.2413 111.776 38.7284 111.679 39.2614L110.376 46.4146C110.339 46.6177 110.475 46.8073 110.68 46.8372L111.301 46.928C111.504 46.9576 111.697 46.8188 111.734 46.6173L113 39.6663C113.097 39.1332 113.612 38.7561 114.151 38.8239C114.689 38.8917 115.046 39.3788 114.949 39.9118L113.677 46.8968C113.64 47.1 113.776 47.2896 113.98 47.3194L114.657 47.4183C114.86 47.4479 115.053 47.3091 115.09 47.1076L116.335 40.2742C116.432 39.7411 116.947 39.364 117.485 39.4318C118.023 39.4996 118.381 39.9867 118.284 40.5197L116.753 48.9207C116.725 49.0765 116.661 49.2191 116.571 49.3411C116.526 49.4017 116.491 49.4698 116.477 49.543C116.155 51.2494 114.806 52.5325 113.174 52.8458L111.392 67.9787C111.209 69.5313 109.745 70.6689 108.188 70.4669C106.632 70.2649 105.625 68.8063 105.986 67.2768L109.568 52.0791C108.383 51.2144 107.716 49.735 107.964 48.1791L108.224 46.5466C108.23 46.5099 108.265 46.4843 108.302 46.4897C108.338 46.495 108.372 46.4702 108.379 46.4343L109.73 39.0159Z" fill="#FF6265"/>
<path d="M110.881 38.1735L110.809 38.6515L110.881 38.1735ZM109.73 39.0159L109.252 38.9404L109.73 39.0159ZM111.679 39.2614L112.157 39.3369L112.157 39.3369L111.679 39.2614ZM110.376 46.4146L110.854 46.49L110.854 46.49L110.376 46.4146ZM110.68 46.8372L110.761 46.3604L110.761 46.3604L110.68 46.8372ZM111.301 46.928L111.22 47.4047L111.22 47.4047L111.301 46.928ZM111.734 46.6173L112.212 46.6927L112.212 46.6927L111.734 46.6173ZM113 39.6663L113.478 39.7417L113.478 39.7417L113 39.6663ZM114.151 38.8239L114.222 38.3459L114.151 38.8239ZM114.949 39.9118L114.471 39.8364L114.471 39.8364L114.949 39.9118ZM113.677 46.8968L113.199 46.8213L113.677 46.8968ZM113.98 47.3194L114.062 46.8427L114.062 46.8427L113.98 47.3194ZM114.657 47.4183L114.738 46.9415L114.657 47.4183ZM115.09 47.1076L115.568 47.1831L115.568 47.1831L115.09 47.1076ZM116.335 40.2742L115.857 40.1987L115.857 40.1987L116.335 40.2742ZM117.485 39.4318L117.413 39.9098L117.413 39.9098L117.485 39.4318ZM118.284 40.5197L117.806 40.4443L117.806 40.4443L118.284 40.5197ZM116.753 48.9207L117.231 48.9961L117.231 48.9961L116.753 48.9207ZM116.571 49.3411L116.96 49.62L116.571 49.3411ZM116.477 49.543L116 49.4645L116 49.4645L116.477 49.543ZM113.174 52.8458L113.092 52.3728L112.734 52.4416L112.691 52.8004L113.174 52.8458ZM111.392 67.9787L111.875 68.0241L111.392 67.9787ZM108.188 70.4669L108.115 70.9447L108.188 70.4669ZM105.986 67.2768L105.513 67.177L105.986 67.2768ZM109.568 52.0791L110.041 52.1789L110.113 51.8724L109.861 51.6887L109.568 52.0791ZM107.964 48.1791L107.484 48.1142L107.964 48.1791ZM108.224 46.5466L108.704 46.6114L108.224 46.5466ZM108.302 46.4897L108.22 46.9664L108.22 46.9664L108.302 46.4897ZM108.379 46.4343L107.901 46.3588L108.379 46.4343ZM110.952 37.6955C110.155 37.595 109.396 38.1503 109.252 38.9404L110.208 39.0913C110.259 38.8153 110.53 38.6164 110.809 38.6515L110.952 37.6955ZM112.157 39.3369C112.303 38.5352 111.762 37.7975 110.952 37.6955L110.809 38.6515C111.076 38.6852 111.249 38.9216 111.201 39.186L112.157 39.3369ZM110.854 46.49L112.157 39.3369L111.201 39.186L109.898 46.3391L110.854 46.49ZM110.761 46.3604C110.823 46.3695 110.865 46.4282 110.854 46.49L109.898 46.3391C109.813 46.8072 110.127 47.2451 110.598 47.3139L110.761 46.3604ZM111.382 46.4512L110.761 46.3604L110.598 47.3139L111.22 47.4047L111.382 46.4512ZM111.256 46.5418C111.267 46.4826 111.323 46.4425 111.382 46.4512L111.22 47.4047C111.685 47.4727 112.128 47.1549 112.212 46.6927L111.256 46.5418ZM112.522 39.5908L111.256 46.5418L112.212 46.6927L113.478 39.7417L112.522 39.5908ZM114.222 38.3459C113.425 38.2454 112.666 38.8007 112.522 39.5908L113.478 39.7417C113.529 39.4657 113.8 39.2668 114.079 39.3019L114.222 38.3459ZM115.427 39.9873C115.573 39.1856 115.032 38.4479 114.222 38.3459L114.079 39.3019C114.346 39.3356 114.519 39.572 114.471 39.8364L115.427 39.9873ZM114.155 46.9723L115.427 39.9873L114.471 39.8364L113.199 46.8213L114.155 46.9723ZM114.062 46.8427C114.124 46.8518 114.166 46.9105 114.155 46.9723L113.199 46.8213C113.113 47.2894 113.428 47.7273 113.899 47.7962L114.062 46.8427ZM114.738 46.9415L114.062 46.8427L113.899 47.7962L114.576 47.895L114.738 46.9415ZM114.612 47.0321C114.623 46.973 114.678 46.9328 114.738 46.9415L114.576 47.895C115.041 47.963 115.484 47.6452 115.568 47.1831L114.612 47.0321ZM115.857 40.1987L114.612 47.0321L115.568 47.1831L116.813 40.3496L115.857 40.1987ZM117.557 38.9538C116.759 38.8533 116.001 39.4086 115.857 40.1987L116.813 40.3496C116.863 40.0736 117.135 39.8747 117.413 39.9098L117.557 38.9538ZM118.762 40.5952C118.908 39.7935 118.366 39.0558 117.557 38.9538L117.413 39.9098C117.68 39.9435 117.854 40.1799 117.806 40.4443L118.762 40.5952ZM117.231 48.9961L118.762 40.5952L117.806 40.4443L116.275 48.8452L117.231 48.9961ZM116.96 49.62C117.094 49.4396 117.189 49.2279 117.231 48.9961L116.275 48.8452C116.261 48.9252 116.228 48.9985 116.181 49.0622L116.96 49.62ZM116.955 49.6214C116.953 49.6308 116.951 49.6354 116.951 49.6345C116.952 49.6335 116.954 49.6285 116.96 49.62L116.181 49.0622C116.105 49.1645 116.031 49.3002 116 49.4645L116.955 49.6214ZM113.256 53.3188C115.084 52.968 116.594 51.5315 116.955 49.6214L116 49.4645C115.716 50.9674 114.529 52.097 113.092 52.3728L113.256 53.3188ZM112.691 52.8004L110.91 67.9333L111.875 68.0241L113.656 52.8913L112.691 52.8004ZM110.91 67.9333C110.759 69.2137 109.547 70.1559 108.262 69.9891L108.115 70.9447C109.942 71.1819 111.66 69.8489 111.875 68.0241L110.91 67.9333ZM108.262 69.9891C106.986 69.8235 106.163 68.6318 106.459 67.3766L105.513 67.177C105.087 68.9809 106.278 70.7062 108.115 70.9447L108.262 69.9891ZM106.459 67.3766L110.041 52.1789L109.095 51.9793L105.513 67.177L106.459 67.3766ZM107.484 48.1142C107.207 49.854 107.953 51.5053 109.274 52.4694L109.861 51.6887C108.813 50.9236 108.225 49.616 108.444 48.244L107.484 48.1142ZM107.744 46.4817L107.484 48.1142L108.444 48.244L108.704 46.6114L107.744 46.4817ZM108.383 46.013C108.079 45.9686 107.792 46.1794 107.744 46.4817L108.704 46.6114C108.667 46.8405 108.45 47 108.22 46.9664L108.383 46.013ZM107.901 46.3588C107.942 46.1341 108.156 45.9799 108.383 46.013L108.22 46.9664C108.519 47.0101 108.803 46.8063 108.857 46.5097L107.901 46.3588ZM109.252 38.9404L107.901 46.3588L108.857 46.5097L110.208 39.0913L109.252 38.9404Z" fill="black"/>
</svg>
