<svg width="391" height="391" viewBox="0 0 391 391" fill="none" xmlns="http://www.w3.org/2000/svg">
<mask id="path-1-outside-1_329_1447" maskUnits="userSpaceOnUse" x="-0.674072" y="-0.109863" width="391" height="391" fill="black">
<rect fill="white" x="-0.674072" y="-0.109863" width="391" height="391"/>
<path fill-rule="evenodd" clip-rule="evenodd" d="M195.102 370.436C181.313 370.436 170.135 359.257 170.135 345.468V321.203C118.569 311.878 77.7069 271.789 67.2418 220.629H45.2935C31.5043 220.629 20.3259 209.451 20.3259 195.662C20.3259 181.873 31.5043 170.694 45.2935 170.694H66.8773C76.7253 118.652 117.948 77.7067 170.135 68.2697V45.8577C170.135 32.0685 181.313 20.8901 195.102 20.8901C208.891 20.8901 220.07 32.0685 220.07 45.8577V69.0366C270.403 79.7619 309.83 119.954 319.432 170.694H344.904C358.693 170.694 369.872 181.873 369.872 195.662C369.872 209.451 358.693 220.629 344.904 220.629H319.068C308.867 270.494 269.79 309.841 220.07 320.436V345.468C220.07 359.257 208.891 370.436 195.102 370.436Z"/>
</mask>
<path fill-rule="evenodd" clip-rule="evenodd" d="M195.102 370.436C181.313 370.436 170.135 359.257 170.135 345.468V321.203C118.569 311.878 77.7069 271.789 67.2418 220.629H45.2935C31.5043 220.629 20.3259 209.451 20.3259 195.662C20.3259 181.873 31.5043 170.694 45.2935 170.694H66.8773C76.7253 118.652 117.948 77.7067 170.135 68.2697V45.8577C170.135 32.0685 181.313 20.8901 195.102 20.8901C208.891 20.8901 220.07 32.0685 220.07 45.8577V69.0366C270.403 79.7619 309.83 119.954 319.432 170.694H344.904C358.693 170.694 369.872 181.873 369.872 195.662C369.872 209.451 358.693 220.629 344.904 220.629H319.068C308.867 270.494 269.79 309.841 220.07 320.436V345.468C220.07 359.257 208.891 370.436 195.102 370.436Z" fill="#FF6265"/>
<path d="M170.135 321.203H190.413V304.263L173.743 301.248L170.135 321.203ZM67.2418 220.629L87.1085 216.565L83.7918 200.351H67.2418V220.629ZM20.3259 195.662H40.6041H20.3259ZM66.8773 170.694V190.972H83.678L86.8018 174.465L66.8773 170.694ZM170.135 68.2697L173.743 88.2242L190.413 85.2098V68.2697H170.135ZM195.102 20.8901V0.611998V20.8901ZM220.07 69.0366H199.792V85.4491L215.844 88.8695L220.07 69.0366ZM319.432 170.694L299.508 174.465L302.631 190.972H319.432V170.694ZM319.068 220.629V200.351H302.518L299.201 216.565L319.068 220.629ZM220.07 320.436L215.844 300.603L199.791 304.023V320.436H220.07ZM149.856 345.468C149.856 370.457 170.114 390.714 195.102 390.714V350.158C192.512 350.158 190.413 348.058 190.413 345.468H149.856ZM149.856 321.203V345.468H190.413V321.203H149.856ZM173.743 301.248C130.354 293.402 95.9158 259.621 87.1085 216.565L47.375 224.693C59.498 283.957 106.784 330.354 166.526 341.157L173.743 301.248ZM45.2935 240.907H67.2418V200.351H45.2935V240.907ZM0.0477886 195.662C0.0477905 220.65 20.305 240.907 45.2935 240.907V200.351C42.7036 200.351 40.6041 198.252 40.6041 195.662H0.0477886ZM45.2935 150.416C20.305 150.416 0.0477867 170.673 0.0477886 195.662H40.6041C40.6041 193.072 42.7036 190.972 45.2935 190.972V150.416ZM66.8773 150.416H45.2935V190.972H66.8773V150.416ZM86.8018 174.465C95.0893 130.669 129.829 96.1653 173.743 88.2242L166.526 48.3152C106.068 59.2481 58.3613 106.635 46.9527 166.924L86.8018 174.465ZM149.856 45.8577V68.2697H190.413V45.8577H149.856ZM195.102 0.611998C170.114 0.611994 149.856 20.8692 149.856 45.8577H190.413C190.413 43.2678 192.512 41.1683 195.102 41.1683V0.611998ZM240.348 45.8577C240.348 20.8692 220.091 0.612001 195.102 0.611998V41.1683C197.692 41.1683 199.792 43.2678 199.792 45.8577H240.348ZM240.348 69.0366V45.8577H199.792V69.0366H240.348ZM215.844 88.8695C258.204 97.8958 291.428 131.77 299.508 174.465L339.357 166.924C328.232 108.138 282.603 61.6279 224.296 49.2038L215.844 88.8695ZM344.904 150.416H319.432V190.972H344.904V150.416ZM390.15 195.662C390.15 170.673 369.892 150.416 344.904 150.416V190.972C347.494 190.972 349.593 193.072 349.593 195.662H390.15ZM344.904 240.907C369.892 240.907 390.15 220.65 390.15 195.662H349.593C349.593 198.252 347.494 200.351 344.904 200.351V240.907ZM319.068 240.907H344.904V200.351H319.068V240.907ZM299.201 216.565C290.617 258.526 257.685 291.687 215.844 300.603L224.296 340.269C281.894 327.995 327.117 282.462 338.934 224.693L299.201 216.565ZM240.348 345.468V320.436H199.791V345.468H240.348ZM195.102 390.714C220.091 390.714 240.348 370.457 240.348 345.468H199.791C199.791 348.058 197.692 350.158 195.102 350.158V390.714Z" fill="white" mask="url(#path-1-outside-1_329_1447)"/>
<mask id="path-3-outside-2_329_1447" maskUnits="userSpaceOnUse" x="14.3259" y="14.8901" width="362" height="362" fill="black">
<rect fill="white" x="14.3259" y="14.8901" width="362" height="362"/>
<path fill-rule="evenodd" clip-rule="evenodd" d="M195.102 370.436C181.313 370.436 170.135 359.257 170.135 345.468V321.203C118.569 311.878 77.7069 271.789 67.2418 220.629H45.2935C31.5043 220.629 20.3259 209.451 20.3259 195.662C20.3259 181.873 31.5043 170.694 45.2935 170.694H66.8773C76.7253 118.652 117.948 77.7067 170.135 68.2697V45.8577C170.135 32.0685 181.313 20.8901 195.102 20.8901C208.891 20.8901 220.07 32.0685 220.07 45.8577V69.0366C270.403 79.7619 309.83 119.954 319.432 170.694H344.904C358.693 170.694 369.872 181.873 369.872 195.662C369.872 209.451 358.693 220.629 344.904 220.629H319.068C308.867 270.494 269.79 309.841 220.07 320.436V345.468C220.07 359.257 208.891 370.436 195.102 370.436Z"/>
</mask>
<path fill-rule="evenodd" clip-rule="evenodd" d="M195.102 370.436C181.313 370.436 170.135 359.257 170.135 345.468V321.203C118.569 311.878 77.7069 271.789 67.2418 220.629H45.2935C31.5043 220.629 20.3259 209.451 20.3259 195.662C20.3259 181.873 31.5043 170.694 45.2935 170.694H66.8773C76.7253 118.652 117.948 77.7067 170.135 68.2697V45.8577C170.135 32.0685 181.313 20.8901 195.102 20.8901C208.891 20.8901 220.07 32.0685 220.07 45.8577V69.0366C270.403 79.7619 309.83 119.954 319.432 170.694H344.904C358.693 170.694 369.872 181.873 369.872 195.662C369.872 209.451 358.693 220.629 344.904 220.629H319.068C308.867 270.494 269.79 309.841 220.07 320.436V345.468C220.07 359.257 208.891 370.436 195.102 370.436Z" fill="#FF6265"/>
<path d="M170.135 321.203H175.928V316.363L171.166 315.501L170.135 321.203ZM67.2418 220.629L72.918 219.468L71.9703 214.836H67.2418V220.629ZM20.3259 195.662H26.1197H20.3259ZM66.8773 170.694V176.488H71.6775L72.57 171.771L66.8773 170.694ZM170.135 68.2697L171.166 73.971L175.928 73.1098V68.2697H170.135ZM195.102 20.8901V15.0964V20.8901ZM220.07 69.0366H214.276V73.7259L218.862 74.7032L220.07 69.0366ZM319.432 170.694L313.739 171.771L314.632 176.488H319.432V170.694ZM319.068 220.629V214.836H314.339L313.391 219.468L319.068 220.629ZM220.07 320.436L218.862 314.769L214.276 315.746V320.436H220.07ZM164.341 345.468C164.341 362.457 178.113 376.23 195.102 376.23V364.642C184.513 364.642 175.928 356.058 175.928 345.468H164.341ZM164.341 321.203V345.468H175.928V321.203H164.341ZM171.166 315.501C121.936 306.599 82.9095 268.312 72.918 219.468L61.5656 221.79C72.5044 275.266 115.202 317.157 169.104 326.904L171.166 315.501ZM45.2935 226.423H67.2418V214.836H45.2935V226.423ZM14.5322 195.662C14.5322 212.651 28.3045 226.423 45.2935 226.423V214.836C34.7041 214.836 26.1197 206.251 26.1197 195.662H14.5322ZM45.2935 164.901C28.3045 164.901 14.5322 178.673 14.5322 195.662H26.1197C26.1197 185.072 34.7041 176.488 45.2935 176.488V164.901ZM66.8773 164.901H45.2935V176.488H66.8773V164.901ZM72.57 171.771C81.9721 122.086 121.343 82.9806 171.166 73.971L169.104 62.5685C114.554 72.4328 71.4784 115.219 61.1846 169.617L72.57 171.771ZM164.341 45.8577V68.2697H175.928V45.8577H164.341ZM195.102 15.0964C178.113 15.0964 164.341 28.8687 164.341 45.8577H175.928C175.928 35.2683 184.513 26.6839 195.102 26.6839V15.0964ZM225.863 45.8577C225.863 28.8687 212.091 15.0964 195.102 15.0964V26.6839C205.691 26.6839 214.276 35.2683 214.276 45.8577H225.863ZM225.863 69.0366V45.8577H214.276V69.0366H225.863ZM218.862 74.7032C266.918 84.943 304.573 123.33 313.739 171.771L325.125 169.617C315.088 116.578 273.889 74.5808 221.277 63.3701L218.862 74.7032ZM344.904 164.9H319.432V176.488H344.904V164.9ZM375.665 195.662C375.665 178.673 361.893 164.9 344.904 164.9V176.488C355.493 176.488 364.078 185.072 364.078 195.662H375.665ZM344.904 226.423C361.893 226.423 375.665 212.651 375.665 195.662H364.078C364.078 206.251 355.493 214.836 344.904 214.836V226.423ZM319.068 226.423H344.904V214.836H319.068V226.423ZM313.391 219.468C303.653 267.075 266.331 304.654 218.862 314.769L221.277 326.102C273.248 315.028 314.082 273.914 324.744 221.79L313.391 219.468ZM225.863 345.468V320.436H214.276V345.468H225.863ZM195.102 376.23C212.091 376.23 225.863 362.457 225.863 345.468H214.276C214.276 356.058 205.691 364.642 195.102 364.642V376.23Z" fill="black" mask="url(#path-3-outside-2_329_1447)"/>
<circle cx="194.718" cy="199.981" r="79.9538" fill="#FFA3A5" stroke="black" stroke-width="2.3175"/>
<path d="M172.685 130.102C172.685 140.979 175.586 151.41 180.748 159.101C185.911 166.792 192.913 171.113 200.214 171.113C207.515 171.113 214.517 166.792 219.68 159.101C224.842 151.41 227.742 140.979 227.742 130.102L200.214 130.102L172.685 130.102Z" fill="white"/>
<path d="M172.685 130.102C172.685 140.979 175.586 151.41 180.748 159.101C185.911 166.792 192.913 171.113 200.214 171.113C207.515 171.113 214.517 166.792 219.68 159.101C224.842 151.41 227.742 140.979 227.742 130.102L200.214 130.102L172.685 130.102Z" fill="white"/>
<path d="M172.685 130.102C172.685 140.979 175.586 151.41 180.748 159.101C185.911 166.792 192.913 171.113 200.214 171.113C207.515 171.113 214.517 166.792 219.68 159.101C224.842 151.41 227.742 140.979 227.742 130.102L200.214 130.102L172.685 130.102Z" fill="white"/>
<path d="M172.685 130.102C172.685 140.979 175.586 151.41 180.748 159.101C185.911 166.792 192.913 171.113 200.214 171.113C207.515 171.113 214.517 166.792 219.68 159.101C224.842 151.41 227.742 140.979 227.742 130.102L200.214 130.102L172.685 130.102Z" fill="white"/>
<path d="M172.685 130.102C172.685 140.979 175.586 151.41 180.748 159.101C185.911 166.792 192.913 171.113 200.214 171.113C207.515 171.113 214.517 166.792 219.68 159.101C224.842 151.41 227.742 140.979 227.742 130.102L200.214 130.102L172.685 130.102Z" stroke="black" stroke-width="2.27839"/>
<path d="M115.976 130.102C115.976 140.979 118.877 151.41 124.039 159.101C129.202 166.792 136.204 171.113 143.505 171.113C150.806 171.113 157.808 166.792 162.971 159.101C168.133 151.41 171.033 140.979 171.033 130.102L143.505 130.102L115.976 130.102Z" fill="white"/>
<path d="M115.976 130.102C115.976 140.979 118.877 151.41 124.039 159.101C129.202 166.792 136.204 171.113 143.505 171.113C150.806 171.113 157.808 166.792 162.971 159.101C168.133 151.41 171.033 140.979 171.033 130.102L143.505 130.102L115.976 130.102Z" fill="white"/>
<path d="M115.976 130.102C115.976 140.979 118.877 151.41 124.039 159.101C129.202 166.792 136.204 171.113 143.505 171.113C150.806 171.113 157.808 166.792 162.971 159.101C168.133 151.41 171.033 140.979 171.033 130.102L143.505 130.102L115.976 130.102Z" fill="white"/>
<path d="M115.976 130.102C115.976 140.979 118.877 151.41 124.039 159.101C129.202 166.792 136.204 171.113 143.505 171.113C150.806 171.113 157.808 166.792 162.971 159.101C168.133 151.41 171.033 140.979 171.033 130.102L143.505 130.102L115.976 130.102Z" fill="white"/>
<path d="M115.976 130.102C115.976 140.979 118.877 151.41 124.039 159.101C129.202 166.792 136.204 171.113 143.505 171.113C150.806 171.113 157.808 166.792 162.971 159.101C168.133 151.41 171.033 140.979 171.033 130.102L143.505 130.102L115.976 130.102Z" stroke="black" stroke-width="2.27839"/>
<path d="M177.079 130.102C177.079 136.809 178.868 143.242 182.051 147.985C185.235 152.728 189.553 155.392 194.055 155.392C198.557 155.392 202.875 152.728 206.059 147.985C209.242 143.242 211.031 136.809 211.031 130.102L194.055 130.102L177.079 130.102Z" fill="black"/>
<path d="M120.564 130.102C120.564 136.81 122.353 143.242 125.537 147.985C128.72 152.728 133.038 155.393 137.54 155.393C142.043 155.393 146.361 152.728 149.544 147.985C152.728 143.242 154.516 136.81 154.516 130.102L137.54 130.102L120.564 130.102Z" fill="black"/>
</svg>
