<svg width="227" height="185" viewBox="0 0 227 185" fill="none" xmlns="http://www.w3.org/2000/svg">
<mask id="path-1-outside-1_377_2049" maskUnits="userSpaceOnUse" x="-0.0241699" y="0" width="227" height="185" fill="black">
<rect fill="white" x="-0.0241699" width="227" height="185"/>
<path fill-rule="evenodd" clip-rule="evenodd" d="M182.278 77.1345L182.278 77.2143L187.997 76.6602C190.196 76.4473 191.967 74.7652 192.294 72.5807L193.383 65.2917C191.127 63.3719 189.53 60.6572 189.063 57.4963C188.412 53.0957 190.108 48.8896 193.208 46.1458L189.232 40.8531L189.224 40.8421C189.214 40.8284 189.204 40.8147 189.194 40.8009C184.558 42.2801 178.712 40.3765 175.425 36.4633C171.338 31.5966 168.353 20.2192 173.105 16.2275C177.858 12.2359 188.549 17.1415 192.636 22.0083C195.891 25.884 196.771 31.8928 194.594 36.1952C194.622 36.2232 194.649 36.2516 194.677 36.2806L200.962 42.9867C207.408 42.6547 213.171 47.2748 214.134 53.7908C214.3 54.9137 214.314 56.024 214.19 57.1005L216.784 59.8682C218.871 62.0955 218.661 65.6186 216.323 67.5818C213.986 69.545 210.479 69.1434 208.646 66.7026L208.382 66.3508C208.219 66.4544 208.053 66.5545 207.884 66.6509L206.597 75.2649C205.403 83.2529 198.926 89.4033 190.887 90.182L180.695 91.1693C174.397 119.098 150.195 143.554 124.006 169.533C120.529 172.982 118.79 174.707 116.816 175.345C115.069 175.91 113.217 175.91 111.471 175.345C109.496 174.707 107.758 172.982 104.28 169.533C79.9408 145.388 57.3166 122.559 49.188 97.0343L38.6459 96.9597C30.5695 96.9024 23.5685 91.3555 21.6659 83.5061L19.6313 75.1121L18.8793 76.3854C17.327 79.0139 13.8864 79.8003 11.3463 78.1074C8.80625 76.4145 8.20808 72.9361 10.0367 70.4919L12.6884 66.9475C12.3184 65.6315 12.1568 64.2327 12.2394 62.7914C12.6229 56.0997 18.1322 50.9192 24.7352 50.8449L29.3948 44.6166C27.5203 41.8522 27.3905 38.1161 29.3572 35.1653L29.8232 34.4661L29.8347 34.4487L39.6889 19.6634C40.2672 18.7958 41.4393 18.5612 42.3069 19.1395C43.1745 19.7177 43.4091 20.8898 42.8308 21.7574L34.4506 34.331C34.2149 34.6848 34.3105 35.1626 34.6642 35.3984L35.9708 36.2692C36.3245 36.505 36.8024 36.4093 37.0382 36.0556L45.4184 23.4819C45.9966 22.6143 47.1687 22.3798 48.0363 22.958C48.9039 23.5363 49.1385 24.7084 48.5603 25.576L40.18 38.1496C39.9443 38.5034 40.0399 38.9812 40.3937 39.217L41.7925 40.1493C42.1462 40.3851 42.6241 40.2894 42.8599 39.9357L51.3017 27.2695C51.88 26.4019 53.0521 26.1674 53.9197 26.7456C54.7873 27.3239 55.0219 28.496 54.4436 29.3636L44.5894 44.1489L44.5835 44.1576L44.0501 44.9579C42.0834 47.9088 38.5849 49.2269 35.3119 48.5605L32.4754 53.3634C35.7633 55.8243 37.7945 59.8344 37.5419 64.2416C37.359 67.4316 36.0113 70.2782 33.9356 72.3919L35.6717 79.5545C36.1921 81.7011 38.1067 83.2182 40.3155 83.2338L46.3118 83.2763C46.1117 81.2494 46.0088 79.2027 46.0088 77.1345C46.0088 39.5049 76.5136 9 114.143 9C151.773 9 182.278 39.5049 182.278 77.1345Z"/>
</mask>
<path d="M182.278 77.2143L173.778 77.2094L173.772 86.5779L183.097 85.6747L182.278 77.2143ZM182.278 77.1345L190.778 77.1394V77.1345H182.278ZM187.997 76.6602L187.178 68.1998L187.178 68.1998L187.997 76.6602ZM192.294 72.5807L200.7 73.8368L200.7 73.8368L192.294 72.5807ZM193.383 65.2917L201.79 66.5478L202.487 61.8777L198.891 58.8179L193.383 65.2917ZM189.063 57.4963L197.471 56.2535V56.2535L189.063 57.4963ZM193.208 46.1458L198.841 52.5106L204.714 47.3124L200.004 41.0413L193.208 46.1458ZM189.232 40.8531L182.428 45.9478L182.436 45.9575L189.232 40.8531ZM189.224 40.8421L182.406 45.9177L182.413 45.9273L182.42 45.9368L189.224 40.8421ZM189.194 40.8009L196.081 35.8187L192.473 30.8323L186.61 32.7032L189.194 40.8009ZM175.425 36.4633L181.934 30.9967V30.9967L175.425 36.4633ZM173.105 16.2275L167.639 9.71862V9.71862L173.105 16.2275ZM192.636 22.0083L186.127 27.4749V27.4749L192.636 22.0083ZM194.594 36.1952L187.01 32.3576L184.228 37.8545L188.586 42.2085L194.594 36.1952ZM194.677 36.2806L200.879 30.468L200.878 30.4674L194.677 36.2806ZM200.962 42.9867L194.76 48.7993L197.458 51.6784L201.399 51.4754L200.962 42.9867ZM214.134 53.7908L205.726 55.0336L205.726 55.0336L214.134 53.7908ZM214.19 57.1005L205.745 56.1288L205.295 60.0403L207.988 62.9131L214.19 57.1005ZM216.784 59.8682L210.582 65.6809L210.582 65.6809L216.784 59.8682ZM216.323 67.5818L221.79 74.0907V74.0907L216.323 67.5818ZM208.646 66.7026L215.443 61.5981H215.443L208.646 66.7026ZM208.382 66.3508L215.179 61.2463L210.462 54.9658L203.829 59.1729L208.382 66.3508ZM207.884 66.6509L203.667 59.2705L200.087 61.3162L199.477 65.3948L207.884 66.6509ZM206.597 75.2649L198.19 74.0088L206.597 75.2649ZM190.887 90.182L191.706 98.6424L190.887 90.182ZM180.695 91.1693L179.875 82.7089L173.755 83.3017L172.403 89.2996L180.695 91.1693ZM124.006 169.533L118.02 163.499L118.02 163.499L124.006 169.533ZM116.816 175.345L114.202 167.257L114.202 167.257L116.816 175.345ZM111.471 175.345L114.085 167.257L114.085 167.257L111.471 175.345ZM104.28 169.533L110.267 163.499L110.267 163.499L104.28 169.533ZM49.188 97.0343L57.2872 94.455L55.4156 88.5782L49.2482 88.5345L49.188 97.0343ZM38.6459 96.9597L38.5857 105.459H38.5857L38.6459 96.9597ZM21.6659 83.5061L13.4051 85.5084H13.4051L21.6659 83.5061ZM19.6313 75.1121L27.8921 73.1098L22.9597 52.7607L12.3123 70.7898L19.6313 75.1121ZM18.8793 76.3854L26.1983 80.7078H26.1983L18.8793 76.3854ZM11.3463 78.1074L16.0604 71.0344H16.0604L11.3463 78.1074ZM10.0367 70.4919L3.23059 65.4001H3.23059L10.0367 70.4919ZM12.6884 66.9475L19.4945 72.0394L22.0056 68.6828L20.8712 64.6472L12.6884 66.9475ZM12.2394 62.7914L3.75332 62.305L12.2394 62.7914ZM24.7352 50.8449L24.8308 59.3444L29.0273 59.2972L31.5413 55.9368L24.7352 50.8449ZM29.3948 44.6166L36.2009 49.7085L39.829 44.859L36.4299 39.8462L29.3948 44.6166ZM29.3572 35.1653L36.4302 39.8794V39.8794L29.3572 35.1653ZM29.8232 34.4661L36.8962 39.1802L36.9089 39.1612L36.9214 39.1422L29.8232 34.4661ZM29.8347 34.4487L22.7617 29.7346L22.7491 29.7535L22.7365 29.7726L29.8347 34.4487ZM39.6889 19.6634L46.7619 24.3775L46.7619 24.3775L39.6889 19.6634ZM42.3069 19.1395L47.021 12.0665L47.021 12.0665L42.3069 19.1395ZM42.8308 21.7574L35.7578 17.0433L35.7578 17.0433L42.8308 21.7574ZM34.4506 34.331L41.5236 39.0451V39.0451L34.4506 34.331ZM34.6642 35.3984L29.9502 42.4714H29.9502L34.6642 35.3984ZM35.9708 36.2692L40.6849 29.1962L40.6849 29.1962L35.9708 36.2692ZM37.0382 36.0556L44.1112 40.7697L44.1112 40.7697L37.0382 36.0556ZM45.4184 23.4819L52.4914 28.196L52.4914 28.196L45.4184 23.4819ZM48.0363 22.958L52.7504 15.885L52.7504 15.885L48.0363 22.958ZM48.5603 25.576L41.4873 20.8619L41.4872 20.8619L48.5603 25.576ZM40.18 38.1496L47.253 42.8637L47.2531 42.8637L40.18 38.1496ZM40.3937 39.217L35.6796 46.29L35.6796 46.29L40.3937 39.217ZM41.7925 40.1493L46.5066 33.0763L46.5066 33.0763L41.7925 40.1493ZM42.8599 39.9357L49.9329 44.6498L49.9329 44.6498L42.8599 39.9357ZM51.3017 27.2695L44.2287 22.5554L44.2287 22.5555L51.3017 27.2695ZM53.9197 26.7456L58.6338 19.6726L58.6338 19.6726L53.9197 26.7456ZM54.4436 29.3636L61.5166 34.0777L61.5166 34.0776L54.4436 29.3636ZM44.5894 44.1489L51.6485 48.8837L51.6554 48.8734L51.6624 48.8629L44.5894 44.1489ZM44.5835 44.1576L37.5244 39.4227L37.5174 39.4331L37.5105 39.4435L44.5835 44.1576ZM44.0501 44.9579L51.1231 49.672L51.1231 49.672L44.0501 44.9579ZM35.3119 48.5605L37.0078 40.2314L31.0728 39.0229L27.9929 44.2381L35.3119 48.5605ZM32.4754 53.3634L25.1565 49.041L21.2816 55.6023L27.382 60.1683L32.4754 53.3634ZM37.5419 64.2416L46.0279 64.728L46.0279 64.728L37.5419 64.2416ZM33.9356 72.3919L27.871 66.4362L24.5625 69.8052L25.6748 74.3942L33.9356 72.3919ZM35.6717 79.5545L27.411 81.5568L27.411 81.5568L35.6717 79.5545ZM40.3155 83.2338L40.3757 74.734H40.3757L40.3155 83.2338ZM46.3118 83.2763L46.2516 91.7761L55.6992 91.843L54.7707 82.441L46.3118 83.2763ZM190.778 77.2192L190.778 77.1394L173.778 77.1297L173.778 77.2094L190.778 77.2192ZM187.178 68.1998L181.458 68.7539L183.097 85.6747L188.817 85.1206L187.178 68.1998ZM183.887 71.3245C184.137 69.6513 185.494 68.363 187.178 68.1998L188.817 85.1206C194.898 84.5316 199.798 79.8792 200.7 73.8368L183.887 71.3245ZM184.976 64.0356L183.887 71.3245L200.7 73.8368L201.79 66.5478L184.976 64.0356ZM180.654 58.7391C181.434 64.0142 184.11 68.5622 187.875 71.7655L198.891 58.8179C198.143 58.1817 197.626 57.3002 197.471 56.2535L180.654 58.7391ZM187.574 39.781C182.414 44.348 179.566 51.3781 180.654 58.7391L197.471 56.2535C197.259 54.8133 197.801 53.4311 198.841 52.5106L187.574 39.781ZM182.436 45.9575L186.411 51.2503L200.004 41.0413L196.029 35.7486L182.436 45.9575ZM182.42 45.9368L182.428 45.9478L196.036 35.7584L196.028 35.7474L182.42 45.9368ZM182.307 45.7831C182.34 45.8281 182.373 45.873 182.406 45.9177L196.042 35.7665C196.055 35.7839 196.068 35.8013 196.081 35.8187L182.307 45.7831ZM168.916 41.93C174.184 48.2018 183.522 51.533 191.778 48.8987L186.61 32.7032C185.595 33.0272 183.24 32.5511 181.934 30.9967L168.916 41.93ZM167.639 9.71862C164.517 12.3403 163.107 15.8154 162.538 18.7982C161.972 21.7691 162.124 24.7781 162.567 27.4239C163.429 32.556 165.71 38.1118 168.916 41.93L181.934 30.9967C181.576 30.5703 181.021 29.713 180.478 28.4496C179.949 27.2212 179.545 25.8722 179.333 24.6106C179.114 23.3047 179.155 22.4168 179.238 21.9797C179.319 21.5545 179.317 22.1106 178.572 22.7364L167.639 9.71862ZM199.145 16.5416C195.938 12.7235 190.86 9.51706 185.954 7.78224C183.425 6.88787 180.487 6.21906 177.463 6.26331C174.427 6.30773 170.76 7.09696 167.639 9.71862L178.572 22.7364C177.827 23.3623 177.279 23.2678 177.712 23.2615C178.157 23.255 179.038 23.3683 180.287 23.8097C181.493 24.2362 182.752 24.8675 183.87 25.6004C185.021 26.3542 185.769 27.0486 186.127 27.4749L199.145 16.5416ZM202.178 40.0329C206.039 32.402 204.371 22.7642 199.145 16.5416L186.127 27.4749C187.411 29.0038 187.502 31.3835 187.01 32.3576L202.178 40.0329ZM200.878 30.4674C200.787 30.3707 200.695 30.2756 200.601 30.182L188.586 42.2085C188.549 42.1708 188.512 42.1325 188.475 42.0939L200.878 30.4674ZM207.164 37.1741L200.879 30.468L188.475 42.0933L194.76 48.7993L207.164 37.1741ZM222.543 52.548C220.933 41.6563 211.305 33.9427 200.525 34.4979L201.399 51.4754C203.512 51.3666 205.409 52.8932 205.726 55.0336L222.543 52.548ZM222.634 58.0723C222.842 56.2657 222.818 54.4109 222.543 52.548L205.726 55.0336C205.782 55.4166 205.785 55.7823 205.745 56.1288L222.634 58.0723ZM222.986 54.0556L220.392 51.2879L207.988 62.9131L210.582 65.6809L222.986 54.0556ZM221.79 74.0907C227.861 68.9915 228.408 59.8407 222.986 54.0556L210.582 65.6809C209.335 64.3503 209.46 62.2457 210.857 61.0729L221.79 74.0907ZM201.85 71.8071C206.611 78.1469 215.719 79.1899 221.79 74.0907L210.857 61.0729C212.253 59.9001 214.348 60.14 215.443 61.5981L201.85 71.8071ZM201.585 71.4552L201.85 71.8071L215.443 61.5981L215.179 61.2463L201.585 71.4552ZM212.1 74.0313C212.383 73.8697 212.662 73.702 212.935 73.5286L203.829 59.1729C203.776 59.2068 203.722 59.2393 203.667 59.2705L212.1 74.0313ZM215.003 76.521L216.29 67.907L199.477 65.3948L198.19 74.0088L215.003 76.521ZM191.706 98.6424C203.628 97.4876 213.233 88.3668 215.003 76.521L198.19 74.0088C197.573 78.1389 194.224 81.319 190.067 81.7216L191.706 98.6424ZM181.514 99.6297L191.706 98.6424L190.067 81.7216L179.875 82.7089L181.514 99.6297ZM129.992 175.568C143.025 162.639 156.002 149.67 166.49 136.338C176.992 122.99 185.447 108.735 188.986 93.0389L172.403 89.2996C169.645 101.532 162.85 113.47 153.129 125.827C143.395 138.2 131.176 150.448 118.02 163.499L129.992 175.568ZM119.429 183.433C121.912 182.631 123.822 181.262 125.33 179.989C126.768 178.775 128.352 177.195 129.992 175.568L118.02 163.499C116.183 165.321 115.159 166.328 114.365 166.998C113.641 167.609 113.693 167.421 114.202 167.257L119.429 183.433ZM108.857 183.433C112.303 184.547 115.984 184.547 119.429 183.433L114.202 167.257C114.168 167.268 114.151 167.268 114.143 167.268C114.136 167.268 114.118 167.268 114.085 167.257L108.857 183.433ZM98.2943 175.568C99.9345 177.195 101.518 178.775 102.957 179.989C104.465 181.262 106.374 182.631 108.857 183.433L114.085 167.257C114.593 167.421 114.646 167.609 113.922 166.998C113.128 166.328 112.104 165.321 110.267 163.499L98.2943 175.568ZM41.0888 99.6137C45.6075 113.803 54.0169 126.844 64.067 139.172C74.1109 151.492 86.1732 163.544 98.2943 175.568L110.267 163.499C98.0481 151.378 86.6285 139.942 77.2432 128.43C67.8641 116.926 60.8971 105.79 57.2872 94.455L41.0888 99.6137ZM38.5857 105.459L49.1277 105.534L49.2482 88.5345L38.7061 88.4599L38.5857 105.459ZM13.4051 85.5084C16.2266 97.1487 26.6087 105.375 38.5857 105.459L38.7061 88.4599C34.5302 88.4303 30.9104 85.5622 29.9267 81.5038L13.4051 85.5084ZM11.3705 77.1144L13.4051 85.5084L29.9267 81.5038L27.8921 73.1098L11.3705 77.1144ZM12.3123 70.7898L11.5603 72.0631L26.1983 80.7078L26.9503 79.4345L12.3123 70.7898ZM11.5603 72.0631C12.4876 70.4929 14.543 70.0231 16.0604 71.0344L6.63225 85.1804C13.2298 89.5776 22.1664 87.5348 26.1983 80.7078L11.5603 72.0631ZM16.0604 71.0344C17.5778 72.0457 17.9352 74.1236 16.8428 75.5838L3.23059 65.4001C-1.51902 71.7487 0.0346632 80.7832 6.63225 85.1804L16.0604 71.0344ZM16.8428 75.5838L19.4945 72.0394L5.88227 61.8556L3.23059 65.4001L16.8428 75.5838ZM3.75332 62.305C3.61616 64.698 3.88438 67.0381 4.50554 69.2478L20.8712 64.6472C20.7525 64.2248 20.6974 63.7673 20.7255 63.2778L3.75332 62.305ZM24.6396 42.3455C13.5992 42.4697 4.39433 51.1212 3.75332 62.305L20.7255 63.2778C20.8515 61.0782 22.6653 59.3688 24.8308 59.3444L24.6396 42.3455ZM31.5413 55.9368L36.2009 49.7085L22.5887 39.5248L17.9291 45.7531L31.5413 55.9368ZM36.4299 39.8462C36.435 39.8537 36.4359 39.8575 36.4355 39.8562C36.435 39.8544 36.4349 39.8526 36.4349 39.853C36.4349 39.8544 36.4347 39.8613 36.4316 39.8719C36.4301 39.877 36.4285 39.8812 36.4272 39.8839C36.4259 39.8868 36.4263 39.8853 36.4302 39.8794L22.2842 30.4512C18.3358 36.3754 18.6129 43.8616 22.3596 49.387L36.4299 39.8462ZM36.4302 39.8794L36.8962 39.1802L22.7502 29.752L22.2842 30.4512L36.4302 39.8794ZM36.9214 39.1422L36.9328 39.1248L22.7365 29.7726L22.7251 29.79L36.9214 39.1422ZM36.9077 39.1628L46.7619 24.3775L32.6159 14.9493L22.7617 29.7346L36.9077 39.1628ZM46.7619 24.3775C44.7367 27.4162 40.6315 28.2377 37.5928 26.2125L47.021 12.0665C42.247 8.88469 35.7977 10.1754 32.6159 14.9493L46.7619 24.3775ZM37.5928 26.2125C34.5541 24.1872 33.7325 20.082 35.7578 17.0433L49.9038 26.4715C53.0856 21.6976 51.7949 15.2482 47.021 12.0665L37.5928 26.2125ZM35.7578 17.0433L27.3776 29.6169L41.5236 39.0451L49.9038 26.4715L35.7578 17.0433ZM27.3776 29.6169C24.5383 33.877 25.6901 39.6321 29.9502 42.4714L39.3783 28.3254C42.9309 30.6932 43.8914 35.4925 41.5236 39.0451L27.3776 29.6169ZM29.9502 42.4714L31.2567 43.3422L40.6849 29.1962L39.3783 28.3254L29.9502 42.4714ZM31.2567 43.3422C35.5168 46.1815 41.2719 45.0297 44.1112 40.7697L29.9652 31.3415C32.3329 27.7889 37.1323 26.8284 40.6849 29.1962L31.2567 43.3422ZM44.1112 40.7697L52.4914 28.196L38.3454 18.7679L29.9652 31.3415L44.1112 40.7697ZM52.4914 28.196C50.4661 31.2347 46.361 32.0563 43.3223 30.031L52.7504 15.885C47.9765 12.7033 41.5271 13.9939 38.3454 18.7679L52.4914 28.196ZM43.3222 30.031C40.2835 28.0058 39.462 23.9006 41.4873 20.8619L55.6333 30.2901C58.815 25.5161 57.5243 19.0668 52.7504 15.885L43.3222 30.031ZM41.4872 20.8619L33.107 33.4355L47.2531 42.8637L55.6333 30.2901L41.4872 20.8619ZM33.1071 33.4355C30.2677 37.6956 31.4195 43.4507 35.6796 46.29L45.1077 32.144C48.6603 34.5117 49.6208 39.3111 47.253 42.8637L33.1071 33.4355ZM35.6796 46.29L37.0784 47.2223L46.5066 33.0763L45.1077 32.144L35.6796 46.29ZM37.0784 47.2223C41.3385 50.0616 47.0936 48.9098 49.9329 44.6498L35.7869 35.2216C38.1546 31.6691 42.954 30.7085 46.5066 33.0763L37.0784 47.2223ZM49.9329 44.6498L58.3747 31.9836L44.2287 22.5555L35.7869 35.2216L49.9329 44.6498ZM58.3747 31.9836C56.3495 35.0223 52.2443 35.8439 49.2056 33.8186L58.6338 19.6726C53.8598 16.4908 47.4105 17.7816 44.2287 22.5554L58.3747 31.9836ZM49.2056 33.8186C46.1669 31.7934 45.3453 27.6882 47.3706 24.6495L61.5166 34.0776C64.6984 29.3037 63.4077 22.8544 58.6338 19.6726L49.2056 33.8186ZM47.3706 24.6495L37.5164 39.4348L51.6624 48.8629L61.5166 34.0777L47.3706 24.6495ZM37.5303 39.414L37.5244 39.4227L51.6426 48.8925L51.6485 48.8837L37.5303 39.414ZM37.5105 39.4435L36.9771 40.2439L51.1231 49.672L51.6565 48.8717L37.5105 39.4435ZM36.9771 40.2438C36.9731 40.2498 36.9719 40.2507 36.974 40.2484C36.976 40.2462 36.9793 40.243 36.9835 40.2397C36.9921 40.2328 36.9983 40.2299 36.9996 40.2294C37 40.2293 36.9983 40.2298 36.9964 40.23C36.9951 40.2301 36.9989 40.2296 37.0078 40.2314L33.6159 56.8896C40.1579 58.2216 47.1745 55.5965 51.1231 49.672L36.9771 40.2438ZM27.9929 44.2381L25.1565 49.041L39.7944 57.6857L42.6308 52.8828L27.9929 44.2381ZM46.0279 64.728C46.4505 57.3562 43.0414 50.6546 37.5688 46.5584L27.382 60.1683C28.4852 60.994 29.1385 62.3125 29.0558 63.7552L46.0279 64.728ZM40.0002 78.3476C43.4638 74.8207 45.7228 70.0517 46.0279 64.728L29.0558 63.7552C28.9953 64.8115 28.5589 65.7357 27.871 66.4362L40.0002 78.3476ZM43.9325 77.5521L42.1964 70.3895L25.6748 74.3942L27.411 81.5568L43.9325 77.5521ZM40.3757 74.734C42.0675 74.746 43.534 75.9079 43.9325 77.5521L27.411 81.5568C28.8502 87.4944 34.1459 91.6903 40.2553 91.7336L40.3757 74.734ZM46.3721 74.7765L40.3757 74.734L40.2553 91.7336L46.2516 91.7761L46.3721 74.7765ZM37.5088 77.1345C37.5088 79.4853 37.6258 81.8108 37.853 84.1116L54.7707 82.441C54.5976 80.688 54.5088 78.9201 54.5088 77.1345H37.5088ZM114.143 0.5C71.8192 0.5 37.5088 34.8105 37.5088 77.1345H54.5088C54.5088 44.1993 81.2081 17.5 114.143 17.5V0.5ZM190.778 77.1345C190.778 34.8104 156.467 0.5 114.143 0.5V17.5C147.079 17.5 173.778 44.1993 173.778 77.1345H190.778Z" fill="white" mask="url(#path-1-outside-1_377_2049)"/>
<path fill-rule="evenodd" clip-rule="evenodd" d="M182.278 77.2142C182.278 77.1876 182.278 77.1611 182.278 77.1345C182.278 39.5049 151.773 9 114.143 9C76.5136 9 46.0088 39.5049 46.0088 77.1345C46.0088 79.2027 46.1117 81.2494 46.3118 83.2763L40.3155 83.2338C38.1067 83.2182 36.1921 81.7011 35.6717 79.5545L33.9356 72.3919C36.0113 70.2782 37.359 67.4316 37.5419 64.2416C37.9423 57.2545 32.6028 51.2657 25.6157 50.8653C18.6287 50.4648 12.6399 55.8043 12.2394 62.7914C11.932 68.1553 15.0074 72.9309 19.6142 75.0415L21.6659 83.5061C23.5685 91.3555 30.5695 96.9024 38.6459 96.9597L49.188 97.0343C57.3166 122.559 79.9408 145.388 104.28 169.533C107.758 172.982 109.496 174.707 111.471 175.345C113.217 175.91 115.069 175.91 116.816 175.345C118.79 174.707 120.529 172.982 124.006 169.533C150.195 143.554 174.397 119.098 180.695 91.1692L190.887 90.1819C198.926 89.4032 205.403 83.2528 206.597 75.2648L207.884 66.6508C212.283 64.1371 214.92 59.1057 214.134 53.7907C213.111 46.8674 206.669 42.0844 199.746 43.1076C192.822 44.1309 188.039 50.5729 189.063 57.4962C189.53 60.6571 191.127 63.3718 193.383 65.2916L192.294 72.5806C191.967 74.7651 190.196 76.4472 187.997 76.6601L182.278 77.2142Z" fill="#FF6265"/>
<path d="M182.278 77.2142L180.778 77.2124L180.776 78.8667L182.422 78.7072L182.278 77.2142ZM46.3118 83.2763L46.3012 84.7762L47.9684 84.7881L47.8046 83.1289L46.3118 83.2763ZM40.3155 83.2338L40.3261 81.7338H40.3261L40.3155 83.2338ZM35.6717 79.5545L34.214 79.9078L35.6717 79.5545ZM33.9356 72.3919L32.8654 71.3409L32.2815 71.9354L32.4778 72.7452L33.9356 72.3919ZM37.5419 64.2416L39.0394 64.3274L37.5419 64.2416ZM25.6157 50.8653L25.5299 52.3628H25.5299L25.6157 50.8653ZM12.2394 62.7914L13.7369 62.8772L12.2394 62.7914ZM19.6142 75.0415L21.072 74.6881L20.9005 73.9809L20.2389 73.6777L19.6142 75.0415ZM21.6659 83.5061L20.2081 83.8594L21.6659 83.5061ZM38.6459 96.9597L38.6353 98.4596L38.6459 96.9597ZM49.188 97.0343L50.6172 96.5792L50.287 95.5421L49.1986 95.5344L49.188 97.0343ZM104.28 169.533L103.224 170.598L104.28 169.533ZM111.471 175.345L111.01 176.773L111.01 176.773L111.471 175.345ZM116.816 175.345L117.277 176.773L117.277 176.773L116.816 175.345ZM124.006 169.533L122.95 168.468L124.006 169.533ZM180.695 91.1692L180.55 89.6761L179.47 89.7808L179.231 90.8392L180.695 91.1692ZM190.887 90.1819L190.742 88.6889L190.887 90.1819ZM206.597 75.2648L205.113 75.0431L206.597 75.2648ZM207.884 66.6508L207.14 65.3484L206.508 65.7094L206.4 66.4291L207.884 66.6508ZM214.134 53.7907L212.65 54.01V54.01L214.134 53.7907ZM189.063 57.4962L190.547 57.2769V57.2769L189.063 57.4962ZM193.383 65.2916L194.866 65.5132L194.989 64.6891L194.355 64.1491L193.383 65.2916ZM192.294 72.5806L193.777 72.8022V72.8022L192.294 72.5806ZM187.997 76.6601L188.142 78.1532L187.997 76.6601ZM180.778 77.1345C180.778 77.1605 180.778 77.1865 180.778 77.2124L183.778 77.2159C183.778 77.1888 183.778 77.1617 183.778 77.1345H180.778ZM114.143 10.5C150.945 10.5 180.778 40.3333 180.778 77.1345H183.778C183.778 38.6764 152.601 7.5 114.143 7.5V10.5ZM47.5088 77.1345C47.5088 40.3333 77.3421 10.5 114.143 10.5V7.5C75.6852 7.5 44.5088 38.6764 44.5088 77.1345H47.5088ZM47.8046 83.1289C47.6092 81.1503 47.5088 79.1528 47.5088 77.1345H44.5088C44.5088 79.2526 44.6142 81.3484 44.8191 83.4237L47.8046 83.1289ZM40.3049 84.7338L46.3012 84.7762L46.3225 81.7763L40.3261 81.7338L40.3049 84.7338ZM34.214 79.9078C34.8964 82.7235 37.4078 84.7132 40.3049 84.7338L40.3261 81.7338C38.8057 81.7231 37.4877 80.6788 37.1295 79.2011L34.214 79.9078ZM32.4778 72.7452L34.214 79.9078L37.1295 79.2011L35.3934 72.0385L32.4778 72.7452ZM36.0443 64.1558C35.8831 66.9692 34.6962 69.4766 32.8654 71.3409L35.0058 73.4429C37.3265 71.0798 38.835 67.894 39.0394 64.3274L36.0443 64.1558ZM25.5299 52.3628C31.6899 52.7159 36.3974 57.9958 36.0443 64.1558L39.0394 64.3274C39.4873 56.5133 33.5157 49.8156 25.7016 49.3677L25.5299 52.3628ZM13.7369 62.8772C14.09 56.7172 19.3699 52.0097 25.5299 52.3628L25.7016 49.3677C17.8874 48.9198 11.1897 54.8914 10.7419 62.7055L13.7369 62.8772ZM20.2389 73.6777C16.175 71.8159 13.466 67.6039 13.7369 62.8772L10.7419 62.7055C10.3979 68.7068 13.8399 74.046 18.9894 76.4052L20.2389 73.6777ZM23.1237 83.1527L21.072 74.6881L18.1564 75.3948L20.2081 83.8594L23.1237 83.1527ZM38.6566 95.4597C31.2684 95.4074 24.8641 90.3331 23.1237 83.1527L20.2081 83.8594C22.2729 92.3778 29.8705 98.3975 38.6353 98.4596L38.6566 95.4597ZM49.1986 95.5344L38.6566 95.4597L38.6353 98.4596L49.1773 98.5343L49.1986 95.5344ZM105.337 168.468C93.1585 156.387 81.4742 144.698 71.8177 132.853C62.1623 121.01 54.6014 109.089 50.6172 96.5792L47.7587 97.4895C51.9032 110.503 59.7187 122.76 69.4925 134.749C79.2652 146.736 91.0629 158.534 103.224 170.598L105.337 168.468ZM111.932 173.918C111.209 173.684 110.454 173.231 109.407 172.347C108.347 171.453 107.093 170.21 105.337 168.468L103.224 170.598C104.945 172.305 106.299 173.65 107.472 174.64C108.657 175.64 109.758 176.368 111.01 176.773L111.932 173.918ZM116.354 173.918C114.908 174.385 113.379 174.385 111.932 173.918L111.01 176.773C113.056 177.434 115.231 177.434 117.277 176.773L116.354 173.918ZM122.95 168.468C121.194 170.21 119.939 171.453 118.88 172.347C117.833 173.231 117.078 173.684 116.354 173.918L117.277 176.773C118.528 176.368 119.63 175.64 120.815 174.64C121.988 173.65 123.341 172.305 125.063 170.598L122.95 168.468ZM179.231 90.8392C176.152 104.498 168.673 117.39 158.631 130.155C148.586 142.923 136.055 155.468 122.95 168.468L125.063 170.598C138.146 157.619 150.811 144.947 160.989 132.01C171.169 119.07 178.94 105.769 182.158 91.4991L179.231 90.8392ZM190.742 88.6889L180.55 89.6761L180.839 92.6622L191.031 91.6749L190.742 88.6889ZM205.113 75.0431C204.021 82.3503 198.096 87.9765 190.742 88.6889L191.031 91.6749C199.756 90.8298 206.785 84.1552 208.08 75.4864L205.113 75.0431ZM206.4 66.4291L205.113 75.0431L208.08 75.4864L209.367 66.8725L206.4 66.4291ZM212.65 54.01C213.343 58.6936 211.021 63.1308 207.14 65.3484L208.628 67.9532C213.546 65.1433 216.497 59.5179 215.618 53.5714L212.65 54.01ZM199.965 44.5915C206.069 43.6894 211.748 47.9062 212.65 54.01L215.618 53.5714C214.474 45.8285 207.269 40.4794 199.526 41.6237L199.965 44.5915ZM190.547 57.2769C189.644 51.1731 193.861 45.4936 199.965 44.5915L199.526 41.6237C191.784 42.7681 186.434 49.9726 187.579 57.7155L190.547 57.2769ZM194.355 64.1491C192.365 62.4559 190.959 60.0647 190.547 57.2769L187.579 57.7155C188.101 61.2495 189.888 64.2878 192.411 66.434L194.355 64.1491ZM193.777 72.8022L194.866 65.5132L191.899 65.0699L190.81 72.3589L193.777 72.8022ZM188.142 78.1532C191.026 77.8738 193.349 75.6676 193.777 72.8022L190.81 72.3589C190.585 73.8627 189.366 75.0205 187.853 75.1671L188.142 78.1532ZM182.422 78.7072L188.142 78.1532L187.853 75.1671L182.133 75.7212L182.422 78.7072Z" fill="black"/>
<circle cx="114.375" cy="75.9689" r="47.3559" fill="#FFA3A5" stroke="black" stroke-width="1.65"/>
<path d="M153.251 57.957C153.251 66.2203 147.452 72.789 140.447 72.789C133.442 72.789 127.643 66.2203 127.643 57.957C127.643 49.6937 133.442 43.125 140.447 43.125C147.452 43.125 153.251 49.6937 153.251 57.957Z" fill="white" stroke="black" stroke-width="1.04288"/>
<path d="M126.6 57.957C126.6 66.2203 120.8 72.789 113.796 72.789C106.791 72.789 100.992 66.2203 100.992 57.957C100.992 49.6937 106.791 43.125 113.796 43.125C120.8 43.125 126.6 49.6937 126.6 57.957Z" fill="white" stroke="black" stroke-width="1.04288"/>
<ellipse cx="118.72" cy="57.957" rx="7.82157" ry="8.98032" fill="black"/>
<ellipse cx="145.372" cy="57.957" rx="7.82157" ry="8.98032" fill="black"/>
<mask id="path-10-inside-2_377_2049" fill="white">
<path fill-rule="evenodd" clip-rule="evenodd" d="M189.194 40.8009C184.559 42.2801 178.712 40.3765 175.425 36.4633C171.338 31.5966 168.353 20.2192 173.105 16.2275C177.858 12.2359 188.549 17.1415 192.636 22.0083C195.891 25.884 196.771 31.8927 194.594 36.1952C194.622 36.2231 194.65 36.2516 194.677 36.2806L216.784 59.8682C218.871 62.0955 218.661 65.6186 216.324 67.5818C213.986 69.545 210.48 69.1434 208.646 66.7026L189.233 40.853C189.22 40.8357 189.207 40.8184 189.194 40.8009Z"/>
</mask>
<path fill-rule="evenodd" clip-rule="evenodd" d="M189.194 40.8009C184.559 42.2801 178.712 40.3765 175.425 36.4633C171.338 31.5966 168.353 20.2192 173.105 16.2275C177.858 12.2359 188.549 17.1415 192.636 22.0083C195.891 25.884 196.771 31.8927 194.594 36.1952C194.622 36.2231 194.65 36.2516 194.677 36.2806L216.784 59.8682C218.871 62.0955 218.661 65.6186 216.324 67.5818C213.986 69.545 210.48 69.1434 208.646 66.7026L189.233 40.853C189.22 40.8357 189.207 40.8184 189.194 40.8009Z" fill="#FF6265"/>
<path d="M189.194 40.8009L188.586 38.8955L189.966 38.4553L190.815 39.6287L189.194 40.8009ZM194.594 36.1952L193.18 37.6101L192.155 36.5856L192.809 35.2922L194.594 36.1952ZM194.677 36.2806L193.217 37.6483L194.677 36.2806ZM216.784 59.8682L218.243 58.5005L216.784 59.8682ZM208.646 66.7026L207.047 67.9036L208.646 66.7026ZM189.233 40.853L190.832 39.652L190.832 39.652L189.233 40.853ZM176.957 35.1771C179.777 38.5352 184.802 40.1029 188.586 38.8955L189.802 42.7062C184.315 44.4573 177.646 42.2177 173.894 37.7496L176.957 35.1771ZM174.392 17.759C173.658 18.3749 173.12 19.3602 172.853 20.7632C172.585 22.1692 172.618 23.8681 172.923 25.6863C173.539 29.3602 175.187 33.0695 176.957 35.1771L173.894 37.7496C171.576 34.9904 169.688 30.5776 168.978 26.3482C168.62 24.2148 168.542 22.0168 168.923 20.0147C169.305 18.0098 170.176 16.076 171.819 14.696L174.392 17.759ZM191.105 23.2945C189.335 21.187 185.966 18.9235 182.454 17.6816C180.715 17.067 179.048 16.7412 177.617 16.7622C176.188 16.7831 175.125 17.1432 174.392 17.759L171.819 14.696C173.462 13.316 175.517 12.7925 177.558 12.7626C179.596 12.7328 181.748 13.1892 183.787 13.9104C187.83 15.3401 191.85 17.9628 194.168 20.722L191.105 23.2945ZM192.809 35.2922C194.59 31.7729 193.896 26.618 191.105 23.2945L194.168 20.722C197.887 25.1499 198.952 32.0125 196.379 37.0981L192.809 35.2922ZM193.217 37.6483C193.205 37.6353 193.193 37.6226 193.18 37.6101L196.007 34.7802C196.051 34.8236 196.094 34.8678 196.136 34.9129L193.217 37.6483ZM215.325 61.2359L193.217 37.6483L196.136 34.9129L218.243 58.5005L215.325 61.2359ZM215.037 66.0503C216.496 64.8249 216.627 62.626 215.325 61.2359L218.243 58.5005C221.115 61.5649 220.826 66.4122 217.61 69.1133L215.037 66.0503ZM210.246 65.5015C211.39 67.025 213.578 67.2756 215.037 66.0503L217.61 69.1133C214.394 71.8144 209.569 71.2619 207.047 67.9036L210.246 65.5015ZM190.832 39.652L210.246 65.5015L207.047 67.9036L187.633 42.0541L190.832 39.652ZM190.815 39.6287C190.82 39.6365 190.826 39.6443 190.832 39.652L187.633 42.0541C187.613 42.0272 187.593 42.0002 187.574 41.9731L190.815 39.6287Z" fill="black" mask="url(#path-10-inside-2_377_2049)"/>
<path fill-rule="evenodd" clip-rule="evenodd" d="M51.3018 27.2696C51.8801 26.402 53.0522 26.1675 53.9198 26.7457C54.7874 27.324 55.022 28.4961 54.4437 29.3637L44.5895 44.149L44.5838 44.1574L44.0502 44.958C42.0835 47.9089 38.585 49.227 35.312 48.5606L18.8795 76.3855C17.3272 79.0139 13.8866 79.8004 11.3465 78.1074C8.80641 76.4145 8.20824 72.9362 10.0369 70.4919L29.3949 44.6167C27.5204 41.8523 27.3906 38.1162 29.3573 35.1654L29.8233 34.4662L29.8348 34.4488L39.689 19.6635C40.2673 18.7959 41.4394 18.5613 42.307 19.1396C43.1746 19.7178 43.4092 20.8899 42.8309 21.7575L34.4507 34.3311C34.215 34.6849 34.3106 35.1627 34.6643 35.3985L35.9709 36.2693C36.3246 36.5051 36.8025 36.4094 37.0383 36.0557L45.4185 23.482C45.9967 22.6144 47.1688 22.3799 48.0364 22.9581C48.904 23.5364 49.1386 24.7085 48.5604 25.5761L40.1801 38.1497C39.9444 38.5035 40.04 38.9813 40.3938 39.2171L41.7926 40.1494C42.1463 40.3852 42.6242 40.2895 42.86 39.9358L51.3018 27.2696Z" fill="#FF6265"/>
<path d="M51.3018 27.2696L50.4697 26.715L51.3018 27.2696ZM44.5895 44.149L45.4201 44.7057L45.4216 44.7036L44.5895 44.149ZM44.5838 44.1574L43.7532 43.6006L43.7517 43.6028L44.5838 44.1574ZM35.312 48.5606L35.5115 47.5807L34.8133 47.4385L34.4509 48.0521L35.312 48.5606ZM18.8795 76.3855L19.7405 76.894L18.8795 76.3855ZM10.0369 70.4919L10.8376 71.091L10.0369 70.4919ZM29.3949 44.6167L30.1956 45.2158L30.6224 44.6453L30.2226 44.0555L29.3949 44.6167ZM29.8233 34.4662L30.6554 35.0208L30.6584 35.0163L29.8233 34.4662ZM29.8348 34.4488L29.0027 33.8942L28.9997 33.8987L29.8348 34.4488ZM42.8309 21.7575L41.9988 21.2029L42.8309 21.7575ZM40.1801 38.1497L39.348 37.5951L40.1801 38.1497ZM40.3938 39.2171L39.8392 40.0492L40.3938 39.2171ZM41.7926 40.1494L42.3472 39.3173L41.7926 40.1494ZM54.4744 25.9136C53.1472 25.0291 51.3543 25.3879 50.4697 26.715L52.134 27.8242C52.4059 27.4162 52.9572 27.3059 53.3652 27.5778L54.4744 25.9136ZM55.2758 29.9183C56.1604 28.5911 55.8016 26.7981 54.4744 25.9136L53.3652 27.5778C53.7732 27.8498 53.8835 28.401 53.6116 28.8091L55.2758 29.9183ZM45.4216 44.7036L55.2758 29.9183L53.6116 28.8091L43.7574 43.5944L45.4216 44.7036ZM45.4145 44.7142L45.4201 44.7057L43.7588 43.5922L43.7532 43.6006L45.4145 44.7142ZM44.8823 45.5126L45.4159 44.712L43.7517 43.6028L43.2181 44.4034L44.8823 45.5126ZM35.1125 49.5405C38.7701 50.2852 42.6824 48.8133 44.8823 45.5126L43.2181 44.4034C41.4845 47.0045 38.3999 48.1688 35.5115 47.5807L35.1125 49.5405ZM34.4509 48.0521L18.0184 75.877L19.7405 76.894L36.1731 49.0691L34.4509 48.0521ZM18.0184 75.877C16.7579 78.0114 13.9638 78.6501 11.9011 77.2753L10.7919 78.9396C13.8093 80.9506 17.8965 80.0164 19.7405 76.894L18.0184 75.877ZM11.9011 77.2753C9.83836 75.9005 9.35261 73.0759 10.8376 71.091L9.23613 69.8929C7.06388 72.7965 7.77446 76.9285 10.7919 78.9396L11.9011 77.2753ZM10.8376 71.091L30.1956 45.2158L28.5942 44.0177L9.23613 69.8929L10.8376 71.091ZM28.5252 34.6108C26.3254 37.9114 26.4725 42.0887 28.5672 45.178L30.2226 44.0555C28.5683 41.6159 28.4559 38.321 30.1894 35.72L28.5252 34.6108ZM28.9912 33.9116L28.5252 34.6108L30.1894 35.72L30.6554 35.0208L28.9912 33.9116ZM28.9997 33.8987L28.9882 33.9161L30.6584 35.0163L30.6699 34.9989L28.9997 33.8987ZM38.8569 19.1089L29.0027 33.8942L30.6669 35.0034L40.5211 20.2181L38.8569 19.1089ZM42.8616 18.3074C41.5344 17.4229 39.7415 17.7817 38.8569 19.1089L40.5211 20.2181C40.7931 19.81 41.3443 19.6997 41.7524 19.9717L42.8616 18.3074ZM43.663 22.3121C44.5476 20.9849 44.1888 19.192 42.8616 18.3074L41.7524 19.9717C42.1604 20.2436 42.2707 20.7949 41.9988 21.2029L43.663 22.3121ZM35.2828 34.8857L43.663 22.3121L41.9988 21.2029L33.6186 33.7765L35.2828 34.8857ZM35.2189 34.5664C35.3248 34.6369 35.3534 34.7799 35.2828 34.8857L33.6186 33.7765C33.0766 34.5898 33.2964 35.6886 34.1097 36.2306L35.2189 34.5664ZM36.5255 35.4372L35.2189 34.5664L34.1097 36.2306L35.4163 37.1014L36.5255 35.4372ZM36.2062 35.5011C36.2767 35.3953 36.4197 35.3667 36.5255 35.4372L35.4163 37.1014C36.2296 37.6435 37.3283 37.4236 37.8704 36.6103L36.2062 35.5011ZM44.5864 22.9274L36.2062 35.5011L37.8704 36.6103L46.2506 24.0366L44.5864 22.9274ZM48.591 22.126C47.2639 21.2415 45.4709 21.6003 44.5864 22.9274L46.2506 24.0366C46.5226 23.6286 47.0738 23.5183 47.4818 23.7902L48.591 22.126ZM49.3925 26.1307C50.277 24.8035 49.9182 23.0105 48.591 22.126L47.4818 23.7902C47.8899 24.0622 48.0002 24.6134 47.7282 25.0215L49.3925 26.1307ZM41.0123 38.7043L49.3925 26.1307L47.7282 25.0215L39.348 37.5951L41.0123 38.7043ZM40.9484 38.385C41.0542 38.4555 41.0828 38.5985 41.0123 38.7043L39.348 37.5951C38.806 38.4084 39.0259 39.5072 39.8392 40.0492L40.9484 38.385ZM42.3472 39.3173L40.9484 38.385L39.8392 40.0492L41.238 40.9815L42.3472 39.3173ZM42.0279 39.3812C42.0984 39.2754 42.2414 39.2468 42.3472 39.3173L41.238 40.9815C42.0513 41.5236 43.15 41.3037 43.6921 40.4904L42.0279 39.3812ZM50.4697 26.715L42.0279 39.3812L43.6921 40.4904L52.134 27.8242L50.4697 26.715Z" fill="black"/>
</svg>
