<svg width="149" height="182" viewBox="0 0 149 182" fill="none" xmlns="http://www.w3.org/2000/svg">
<mask id="path-1-outside-1_377_2048" maskUnits="userSpaceOnUse" x="0" y="0.134033" width="149" height="182" fill="black">
<rect fill="white" y="0.134033" width="149" height="182"/>
<path fill-rule="evenodd" clip-rule="evenodd" d="M136.241 136.374C131.366 141.249 123.461 141.249 118.586 136.374L110.007 127.794C103.364 132.403 96.0453 135.615 88.4606 137.431L91.2345 153.823C92.5593 153.656 93.9354 153.567 95.3472 153.567C105.924 153.567 114.187 160.697 114.187 166.802C114.187 172.594 106.751 172.581 96.9574 172.565C96.4273 172.564 95.8903 172.563 95.3472 172.563C84.7704 172.563 76.1961 170.416 76.1961 164.311C76.1961 162.015 77.4082 160.029 79.483 158.354L79.0409 138.96C76.0368 139.222 73.0177 139.273 70.0078 139.113L69.5692 158.354C71.6441 160.029 72.8562 162.015 72.8562 164.311C72.8562 170.416 64.2819 172.563 53.705 172.563C53.1619 172.563 52.6249 172.564 52.0948 172.565C42.3014 172.581 34.8653 172.594 34.8653 166.802C34.8653 160.697 43.1282 153.567 53.705 153.567C55.1168 153.567 56.4929 153.656 57.8177 153.823L60.5126 137.899C52.639 136.29 45.0086 133.196 38.071 128.614L30.3111 136.374C25.4359 141.249 17.5316 141.249 12.6564 136.374C7.78119 131.499 7.78119 123.595 12.6564 118.719L20.2874 111.088C5.36957 89.2071 5.46767 60.1561 20.5817 38.369L12.6579 30.4452C7.78267 25.57 7.78266 17.6657 12.6579 12.7904C17.5331 7.91523 25.4374 7.91523 30.3126 12.7904L38.5076 20.9854C60.0952 6.9816 88.2449 7.2521 109.579 21.7969L118.585 12.7911C123.46 7.91593 131.364 7.91592 136.239 12.7911C141.115 17.6664 141.115 25.5707 136.239 30.4459L127.105 39.5805C141.128 60.8167 141.224 88.5441 127.391 109.868L136.241 118.719C141.116 123.594 141.116 131.498 136.241 136.374Z"/>
</mask>
<path fill-rule="evenodd" clip-rule="evenodd" d="M136.241 136.374C131.366 141.249 123.461 141.249 118.586 136.374L110.007 127.794C103.364 132.403 96.0453 135.615 88.4606 137.431L91.2345 153.823C92.5593 153.656 93.9354 153.567 95.3472 153.567C105.924 153.567 114.187 160.697 114.187 166.802C114.187 172.594 106.751 172.581 96.9574 172.565C96.4273 172.564 95.8903 172.563 95.3472 172.563C84.7704 172.563 76.1961 170.416 76.1961 164.311C76.1961 162.015 77.4082 160.029 79.483 158.354L79.0409 138.96C76.0368 139.222 73.0177 139.273 70.0078 139.113L69.5692 158.354C71.6441 160.029 72.8562 162.015 72.8562 164.311C72.8562 170.416 64.2819 172.563 53.705 172.563C53.1619 172.563 52.6249 172.564 52.0948 172.565C42.3014 172.581 34.8653 172.594 34.8653 166.802C34.8653 160.697 43.1282 153.567 53.705 153.567C55.1168 153.567 56.4929 153.656 57.8177 153.823L60.5126 137.899C52.639 136.29 45.0086 133.196 38.071 128.614L30.3111 136.374C25.4359 141.249 17.5316 141.249 12.6564 136.374C7.78119 131.499 7.78119 123.595 12.6564 118.719L20.2874 111.088C5.36957 89.2071 5.46767 60.1561 20.5817 38.369L12.6579 30.4452C7.78267 25.57 7.78266 17.6657 12.6579 12.7904C17.5331 7.91523 25.4374 7.91523 30.3126 12.7904L38.5076 20.9854C60.0952 6.9816 88.2449 7.2521 109.579 21.7969L118.585 12.7911C123.46 7.91593 131.364 7.91592 136.239 12.7911C141.115 17.6664 141.115 25.5707 136.239 30.4459L127.105 39.5805C141.128 60.8167 141.224 88.5441 127.391 109.868L136.241 118.719C141.116 123.594 141.116 131.498 136.241 136.374Z" fill="#FF6265"/>
<path d="M118.586 136.374L124.95 130.01L124.95 130.01L118.586 136.374ZM136.241 136.374L142.605 142.737L136.241 136.374ZM110.007 127.794L116.371 121.43L111.055 116.114L104.877 120.399L110.007 127.794ZM88.4606 137.431L86.3646 128.679L78.183 130.638L79.5867 138.933L88.4606 137.431ZM91.2345 153.823L82.3606 155.325L83.8006 163.833L92.3623 162.752L91.2345 153.823ZM96.9574 172.565L96.9421 181.565H96.9422L96.9574 172.565ZM79.483 158.354L85.1363 165.356L88.5816 162.575L88.4807 158.148L79.483 158.354ZM79.0409 138.96L88.0386 138.755L87.8199 129.162L78.2602 129.994L79.0409 138.96ZM70.0078 139.113L70.4846 130.126L61.2215 129.634L61.0101 138.908L70.0078 139.113ZM69.5692 158.354L60.5715 158.148L60.4706 162.575L63.9159 165.356L69.5692 158.354ZM52.0948 172.565L52.1101 181.565H52.1101L52.0948 172.565ZM57.8177 153.823L56.6899 162.752L65.2516 163.833L66.6916 155.325L57.8177 153.823ZM60.5126 137.899L69.3864 139.4L70.8381 130.822L62.3138 129.081L60.5126 137.899ZM38.071 128.614L43.0305 121.104L36.901 117.056L31.707 122.25L38.071 128.614ZM30.3111 136.374L36.6751 142.738L36.6751 142.738L30.3111 136.374ZM12.6564 136.374L6.29245 142.738H6.29245L12.6564 136.374ZM12.6564 118.719L19.0204 125.083H19.0204L12.6564 118.719ZM20.2874 111.088L26.6514 117.452L31.924 112.18L27.7237 106.019L20.2874 111.088ZM20.5817 38.369L27.9766 43.4989L32.262 37.3214L26.9457 32.005L20.5817 38.369ZM12.6579 30.4452L19.0218 24.0812L19.0218 24.0812L12.6579 30.4452ZM12.6579 12.7904L19.0218 19.1544L12.6579 12.7904ZM30.3126 12.7904L36.6766 6.42649L36.6766 6.42648L30.3126 12.7904ZM38.5076 20.9854L32.1436 27.3494L37.2944 32.5001L43.4055 28.5359L38.5076 20.9854ZM109.579 21.7969L104.509 29.2331L110.67 33.4335L115.943 28.1608L109.579 21.7969ZM118.585 12.7911L112.221 6.42718L112.221 6.42719L118.585 12.7911ZM136.239 12.7911L142.603 6.42718L142.603 6.42718L136.239 12.7911ZM136.239 30.4459L142.603 36.8098V36.8098L136.239 30.4459ZM127.105 39.5805L120.741 33.2165L115.547 38.4104L119.595 44.5399L127.105 39.5805ZM127.391 109.868L119.84 104.97L115.876 111.082L121.027 116.232L127.391 109.868ZM136.241 118.719L129.877 125.083H129.877L136.241 118.719ZM112.222 142.737C120.612 151.127 134.215 151.127 142.605 142.737L129.877 130.01C128.516 131.37 126.311 131.37 124.95 130.01L112.222 142.737ZM103.643 134.158L112.222 142.737L124.95 130.01L116.371 121.43L103.643 134.158ZM90.5566 146.184C99.2048 144.113 107.556 140.448 115.137 135.189L104.877 120.399C99.1715 124.357 92.8857 127.117 86.3646 128.679L90.5566 146.184ZM100.108 152.321L97.3344 135.93L79.5867 138.933L82.3606 155.325L100.108 152.321ZM95.3472 144.567C93.5618 144.567 91.8089 144.679 90.1066 144.894L92.3623 162.752C93.3097 162.632 94.3091 162.567 95.3472 162.567V144.567ZM123.187 166.802C123.187 159.838 118.757 154.17 114.14 150.7C109.228 147.009 102.629 144.567 95.3472 144.567V162.567C98.6423 162.567 101.463 163.69 103.327 165.09C105.485 166.712 105.187 167.661 105.187 166.802H123.187ZM96.9422 181.565C101.397 181.572 106.948 181.638 111.288 180.627C113.564 180.096 116.584 179.052 119.092 176.653C121.92 173.949 123.187 170.413 123.187 166.802H105.187C105.187 166.087 105.525 164.722 106.652 163.644C107.46 162.871 108.009 162.908 107.201 163.097C106.471 163.267 105.277 163.415 103.404 163.494C101.564 163.571 99.4717 163.569 96.9726 163.565L96.9422 181.565ZM95.3472 181.563C95.8815 181.563 96.4111 181.564 96.9421 181.565L96.9727 163.565C96.4436 163.564 95.8991 163.563 95.3472 163.563V181.563ZM67.1961 164.311C67.1961 172.885 73.6814 177.292 78.6447 179.153C83.6185 181.019 89.6832 181.563 95.3472 181.563V163.563C90.4344 163.563 86.9236 163.034 84.966 162.3C84.0291 161.948 84.0314 161.762 84.343 162.103C84.8264 162.631 85.1961 163.496 85.1961 164.311H67.1961ZM73.8297 151.351C70.4091 154.112 67.1961 158.439 67.1961 164.311H85.1961C85.1961 164.539 85.1646 164.781 85.1005 165.016C85.0372 165.248 84.9559 165.423 84.8928 165.535C84.7753 165.742 84.7646 165.657 85.1363 165.356L73.8297 151.351ZM70.0433 139.165L70.4853 158.559L88.4807 158.148L88.0386 138.755L70.0433 139.165ZM69.531 148.1C72.9599 148.282 76.3991 148.224 79.8216 147.926L78.2602 129.994C75.6744 130.219 73.0756 130.263 70.4846 130.126L69.531 148.1ZM78.5669 158.559L79.0055 139.318L61.0101 138.908L60.5715 158.148L78.5669 158.559ZM81.8562 164.311C81.8562 158.439 78.6431 154.112 75.2225 151.351L63.9159 165.356C64.2877 165.657 64.277 165.742 64.1595 165.535C64.0964 165.423 64.0151 165.248 63.9518 165.016C63.8876 164.781 63.8562 164.539 63.8562 164.311H81.8562ZM53.705 181.563C59.3691 181.563 65.4338 181.019 70.4076 179.153C75.3708 177.292 81.8562 172.885 81.8562 164.311H63.8562C63.8562 163.496 64.2258 162.631 64.7092 162.103C65.0209 161.762 65.0232 161.948 64.0863 162.3C62.1287 163.034 58.6179 163.563 53.705 163.563V181.563ZM52.1101 181.565C52.6412 181.564 53.1708 181.563 53.705 181.563V163.563C53.1531 163.563 52.6087 163.564 52.0796 163.565L52.1101 181.565ZM25.8653 166.802C25.8653 170.413 27.1324 173.949 29.9598 176.653C32.4686 179.052 35.4886 180.096 37.7642 180.627C42.1045 181.638 47.6548 181.572 52.1101 181.565L52.0796 163.565C49.5806 163.569 47.4882 163.571 45.6482 163.494C43.7757 163.415 42.5808 163.267 41.8509 163.097C41.0433 162.908 41.5921 162.871 42.4007 163.644C43.5277 164.722 43.8653 166.087 43.8653 166.802H25.8653ZM53.705 144.567C46.4233 144.567 39.8244 147.009 34.9126 150.7C30.2948 154.17 25.8653 159.838 25.8653 166.802H43.8653C43.8653 167.661 43.5672 166.712 45.7251 165.09C47.589 163.69 50.4099 162.567 53.705 162.567V144.567ZM58.9455 144.894C57.2433 144.679 55.4905 144.567 53.705 144.567V162.567C54.7431 162.567 55.7425 162.632 56.6899 162.752L58.9455 144.894ZM51.6387 136.397L48.9439 152.321L66.6916 155.325L69.3864 139.4L51.6387 136.397ZM33.1116 136.125C41.0295 141.353 49.7358 144.883 58.7113 146.717L62.3138 129.081C55.5422 127.698 48.9878 125.038 43.0305 121.104L33.1116 136.125ZM36.6751 142.738L44.435 134.978L31.707 122.25L23.9472 130.01L36.6751 142.738ZM6.29245 142.738C14.6824 151.128 28.2852 151.128 36.6751 142.738L23.9472 130.01C22.5867 131.371 20.3809 131.371 19.0204 130.01L6.29245 142.738ZM6.29246 112.355C-2.09748 120.745 -2.09748 134.348 6.29245 142.738L19.0204 130.01C17.6599 128.65 17.6599 126.444 19.0204 125.083L6.29246 112.355ZM13.9234 104.725L6.29246 112.355L19.0204 125.083L26.6514 117.452L13.9234 104.725ZM13.1869 33.2391C-4.05383 58.0917 -4.16505 91.199 12.8512 116.158L27.7237 106.019C14.9042 87.2152 14.9892 62.2204 27.9766 43.4989L13.1869 33.2391ZM6.29392 36.8091L14.2178 44.733L26.9457 32.005L19.0218 24.0812L6.29392 36.8091ZM6.29392 6.42648C-2.09602 14.8164 -2.09601 28.4192 6.29392 36.8091L19.0218 24.0812C17.6613 22.7207 17.6613 20.5149 19.0218 19.1544L6.29392 6.42648ZM36.6766 6.42648C28.2866 -1.96344 14.6839 -1.96346 6.29392 6.42648L19.0218 19.1544C20.3823 17.7939 22.5881 17.7939 23.9486 19.1544L36.6766 6.42648ZM44.8715 14.6214L36.6766 6.42649L23.9486 19.1544L32.1436 27.3494L44.8715 14.6214ZM114.649 14.3606C90.3118 -2.23132 58.2327 -2.53797 33.6096 13.4349L43.4055 28.5359C61.9577 16.5012 86.1779 16.7355 104.509 29.2331L114.649 14.3606ZM112.221 6.42719L103.215 15.4329L115.943 28.1608L124.949 19.1551L112.221 6.42719ZM142.603 6.42718C134.213 -1.96276 120.611 -1.96274 112.221 6.42718L124.949 19.1551C126.309 17.7946 128.515 17.7946 129.875 19.1551L142.603 6.42718ZM142.603 36.8098C150.993 28.4199 150.993 14.8171 142.603 6.42718L129.875 19.1551C131.236 20.5156 131.236 22.7214 129.875 24.0819L142.603 36.8098ZM133.469 45.9444L142.603 36.8098L129.875 24.0819L120.741 33.2165L133.469 45.9444ZM134.941 114.766C150.72 90.4427 150.612 58.8453 134.615 34.621L119.595 44.5399C131.645 62.7881 131.727 86.6454 119.84 104.97L134.941 114.766ZM142.605 112.355L133.755 103.504L121.027 116.232L129.877 125.083L142.605 112.355ZM142.605 142.737C150.995 134.348 150.995 120.745 142.605 112.355L129.877 125.083C131.237 126.443 131.237 128.649 129.877 130.01L142.605 142.737Z" fill="white" mask="url(#path-1-outside-1_377_2048)"/>
<path fill-rule="evenodd" clip-rule="evenodd" d="M136.241 136.374C131.366 141.249 123.461 141.249 118.586 136.374L110.007 127.794C103.364 132.403 96.0453 135.615 88.4606 137.431L91.2345 153.823C92.5593 153.656 93.9354 153.567 95.3472 153.567C105.924 153.567 114.187 160.697 114.187 166.802C114.187 172.594 106.751 172.581 96.9574 172.565C96.4273 172.564 95.8903 172.563 95.3472 172.563C84.7704 172.563 76.1961 170.416 76.1961 164.311C76.1961 162.015 77.4082 160.029 79.483 158.354L79.0409 138.96C76.0368 139.222 73.0177 139.273 70.0078 139.113L69.5692 158.354C71.6441 160.029 72.8562 162.015 72.8562 164.311C72.8562 170.416 64.2819 172.563 53.705 172.563C53.1619 172.563 52.6249 172.564 52.0948 172.565C42.3014 172.581 34.8653 172.594 34.8653 166.802C34.8653 160.697 43.1282 153.567 53.705 153.567C55.1168 153.567 56.4929 153.656 57.8177 153.823L60.5126 137.899C52.639 136.29 45.0086 133.196 38.071 128.614L30.3111 136.374C25.4359 141.249 17.5316 141.249 12.6564 136.374C7.78119 131.499 7.78119 123.595 12.6564 118.719L20.2874 111.088C5.36957 89.2071 5.46767 60.1561 20.5817 38.369L12.6579 30.4452C7.78267 25.57 7.78266 17.6657 12.6579 12.7904C17.5331 7.91523 25.4374 7.91523 30.3126 12.7904L38.5076 20.9854C60.0952 6.9816 88.2449 7.2521 109.579 21.7969L118.585 12.7911C123.46 7.91593 131.364 7.91592 136.239 12.7911C141.115 17.6664 141.115 25.5707 136.239 30.4459L127.105 39.5805C141.128 60.8167 141.224 88.5441 127.391 109.868L136.241 118.719C141.116 123.594 141.116 131.498 136.241 136.374Z" fill="#FF6265"/>
<path d="M118.586 136.374L119.647 135.313H119.647L118.586 136.374ZM136.241 136.374L137.302 137.434L136.241 136.374ZM110.007 127.794L111.068 126.734L110.182 125.848L109.152 126.562L110.007 127.794ZM88.4606 137.431L88.1112 135.973L86.7476 136.299L86.9816 137.682L88.4606 137.431ZM91.2345 153.823L89.7555 154.073L89.9955 155.491L91.4225 155.311L91.2345 153.823ZM96.9574 172.565L96.9549 174.065H96.9549L96.9574 172.565ZM79.483 158.354L80.4252 159.521L80.9994 159.057L80.9826 158.319L79.483 158.354ZM79.0409 138.96L80.5405 138.926L80.5041 137.327L78.9108 137.466L79.0409 138.96ZM70.0078 139.113L70.0873 137.615L68.5434 137.533L68.5082 139.079L70.0078 139.113ZM69.5692 158.354L68.0696 158.319L68.0528 159.057L68.627 159.521L69.5692 158.354ZM52.0948 172.565L52.0974 174.065H52.0974L52.0948 172.565ZM57.8177 153.823L57.6298 155.311L59.0567 155.491L59.2967 154.073L57.8177 153.823ZM60.5126 137.899L61.9915 138.149L62.2335 136.719L60.8128 136.429L60.5126 137.899ZM38.071 128.614L38.8976 127.363L37.876 126.688L37.0103 127.554L38.071 128.614ZM30.3111 136.374L31.3718 137.435H31.3718L30.3111 136.374ZM12.6564 136.374L11.5958 137.435H11.5958L12.6564 136.374ZM12.6564 118.719L13.7171 119.78H13.7171L12.6564 118.719ZM20.2874 111.088L21.3481 112.149L22.2268 111.27L21.5268 110.244L20.2874 111.088ZM20.5817 38.369L21.8142 39.224L22.5284 38.1944L21.6424 37.3083L20.5817 38.369ZM12.6579 30.4452L13.7185 29.3845L12.6579 30.4452ZM12.6579 12.7904L13.7185 13.8511L12.6579 12.7904ZM30.3126 12.7904L31.3733 11.7298L30.3126 12.7904ZM38.5076 20.9854L37.4469 22.0461L38.3054 22.9045L39.3239 22.2438L38.5076 20.9854ZM109.579 21.7969L108.734 23.0362L109.761 23.7363L110.64 22.8575L109.579 21.7969ZM118.585 12.7911L117.524 11.7305L118.585 12.7911ZM136.239 12.7911L137.3 11.7305V11.7305L136.239 12.7911ZM136.239 30.4459L137.3 31.5065V31.5065L136.239 30.4459ZM127.105 39.5805L126.044 38.5198L125.179 39.3855L125.853 40.407L127.105 39.5805ZM127.391 109.868L126.132 109.052L125.471 110.071L126.33 110.929L127.391 109.868ZM136.241 118.719L135.18 119.779V119.779L136.241 118.719ZM117.526 137.434C122.987 142.895 131.841 142.895 137.302 137.434L135.18 135.313C130.891 139.602 123.936 139.602 119.647 135.313L117.526 137.434ZM108.946 128.855L117.526 137.434L119.647 135.313L111.068 126.734L108.946 128.855ZM88.8099 138.89C96.5719 137.031 104.062 133.744 110.862 129.027L109.152 126.562C102.665 131.062 95.5187 134.199 88.1112 135.973L88.8099 138.89ZM92.7134 153.573L89.9395 137.181L86.9816 137.682L89.7555 154.073L92.7134 153.573ZM95.3472 152.067C93.8731 152.067 92.4342 152.159 91.0465 152.335L91.4225 155.311C92.6844 155.152 93.9977 155.067 95.3472 155.067V152.067ZM115.687 166.802C115.687 163.097 113.227 159.395 109.634 156.696C105.993 153.96 100.968 152.067 95.3472 152.067V155.067C100.303 155.067 104.699 156.74 107.832 159.094C111.015 161.486 112.687 164.401 112.687 166.802H115.687ZM96.9549 174.065C101.778 174.073 106.293 174.09 109.585 173.322C111.249 172.935 112.782 172.31 113.909 171.232C115.088 170.104 115.687 168.61 115.687 166.802H112.687C112.687 167.89 112.356 168.566 111.835 169.064C111.262 169.613 110.323 170.07 108.904 170.401C106.03 171.071 101.93 171.073 96.96 171.065L96.9549 174.065ZM95.3472 174.063C95.8889 174.063 96.4246 174.064 96.9549 174.065L96.96 171.065C96.43 171.064 95.8918 171.063 95.3472 171.063V174.063ZM74.6961 164.311C74.6961 168.284 77.5633 170.737 81.2786 172.131C84.9956 173.525 89.9962 174.063 95.3472 174.063V171.063C90.1214 171.063 85.5464 170.528 82.3321 169.322C79.1161 168.116 77.6961 166.443 77.6961 164.311H74.6961ZM78.5408 157.186C76.2417 159.042 74.6961 161.419 74.6961 164.311H77.6961C77.6961 162.611 78.5747 161.015 80.4252 159.521L78.5408 157.186ZM77.5413 138.994L77.9834 158.388L80.9826 158.319L80.5405 138.926L77.5413 138.994ZM69.9283 140.611C73.0081 140.774 76.0972 140.722 79.171 140.455L78.9108 137.466C75.9764 137.721 73.0274 137.771 70.0873 137.615L69.9283 140.611ZM71.0688 158.388L71.5074 139.147L68.5082 139.079L68.0696 158.319L71.0688 158.388ZM74.3562 164.311C74.3562 161.419 72.8106 159.042 70.5114 157.186L68.627 159.521C70.4776 161.015 71.3562 162.611 71.3562 164.311H74.3562ZM53.705 174.063C59.0561 174.063 64.0567 173.525 67.7737 172.131C71.489 170.737 74.3562 168.284 74.3562 164.311H71.3562C71.3562 166.443 69.9362 168.116 66.7201 169.322C63.5058 170.528 58.9309 171.063 53.705 171.063V174.063ZM52.0974 174.065C52.6276 174.064 53.1634 174.063 53.705 174.063V171.063C53.1605 171.063 52.6222 171.064 52.0923 171.065L52.0974 174.065ZM33.3653 166.802C33.3653 168.61 33.9638 170.104 35.1435 171.232C36.2701 172.31 37.8031 172.935 39.467 173.322C42.7597 174.09 47.2742 174.073 52.0974 174.065L52.0923 171.065C47.122 171.073 43.0218 171.071 40.1481 170.401C38.7288 170.07 37.7907 169.613 37.217 169.064C36.6964 168.566 36.3653 167.89 36.3653 166.802H33.3653ZM53.705 152.067C48.0844 152.067 43.0596 153.96 39.4178 156.696C35.825 159.395 33.3653 163.097 33.3653 166.802H36.3653C36.3653 164.401 38.0371 161.486 41.2199 159.094C44.3537 156.74 48.7488 155.067 53.705 155.067V152.067ZM58.0057 152.335C56.618 152.159 55.1791 152.067 53.705 152.067V155.067C55.0545 155.067 56.3679 155.152 57.6298 155.311L58.0057 152.335ZM59.0336 137.648L56.3388 153.573L59.2967 154.073L61.9915 138.149L59.0336 137.648ZM37.2444 129.866C44.3454 134.555 52.1551 137.723 60.2124 139.368L60.8128 136.429C53.1229 134.858 45.6718 131.836 38.8976 127.363L37.2444 129.866ZM31.3718 137.435L39.1317 129.675L37.0103 127.554L29.2505 135.314L31.3718 137.435ZM11.5958 137.435C17.0568 142.896 25.9108 142.896 31.3718 137.435L29.2505 135.314C24.961 139.603 18.0065 139.603 13.7171 135.314L11.5958 137.435ZM11.5958 117.659C6.13475 123.12 6.13475 131.974 11.5958 137.435L13.7171 135.314C9.42764 131.024 9.42764 124.07 13.7171 119.78L11.5958 117.659ZM19.2267 110.028L11.5958 117.659L13.7171 119.78L21.3481 112.149L19.2267 110.028ZM19.3492 37.514C3.88076 59.812 3.78047 89.5391 19.048 111.933L21.5268 110.244C6.95867 88.8751 7.05459 60.5001 21.8142 39.224L19.3492 37.514ZM11.5972 31.5058L19.5211 39.4297L21.6424 37.3083L13.7185 29.3845L11.5972 31.5058ZM11.5972 11.7298C6.13622 17.1908 6.13622 26.0448 11.5972 31.5058L13.7185 29.3845C9.42911 25.0951 9.42911 18.1405 13.7185 13.8511L11.5972 11.7298ZM31.3733 11.7298C25.9123 6.26879 17.0582 6.26878 11.5972 11.7298L13.7185 13.8511C18.008 9.56167 24.9625 9.56168 29.2519 13.8511L31.3733 11.7298ZM39.5682 19.9247L31.3733 11.7298L29.2519 13.8511L37.4469 22.0461L39.5682 19.9247ZM110.424 20.5575C88.5894 5.67153 59.7848 5.39501 37.6912 19.727L39.3239 22.2438C60.4056 8.5682 87.9004 8.83267 108.734 23.0362L110.424 20.5575ZM117.524 11.7305L108.518 20.7362L110.64 22.8575L119.645 13.8518L117.524 11.7305ZM137.3 11.7305C131.839 6.26947 122.985 6.26949 117.524 11.7305L119.645 13.8518C123.935 9.56238 130.889 9.56237 135.179 13.8518L137.3 11.7305ZM137.3 31.5065C142.761 26.0455 142.761 17.1915 137.3 11.7305L135.179 13.8518C139.468 18.1412 139.468 25.0958 135.179 29.3852L137.3 31.5065ZM128.166 40.6411L137.3 31.5065L135.179 29.3852L126.044 38.5198L128.166 40.6411ZM128.649 110.685C142.806 88.8605 142.709 60.4881 128.357 38.7539L125.853 40.407C139.548 61.1453 139.641 88.2276 126.132 109.052L128.649 110.685ZM137.302 117.658L128.451 108.808L126.33 110.929L135.18 119.779L137.302 117.658ZM137.302 137.434C142.763 131.973 142.763 123.119 137.302 117.658L135.18 119.779C139.47 124.069 139.47 131.023 135.18 135.313L137.302 137.434Z" fill="black"/>
<circle cx="74.0613" cy="76.5453" r="39.7313" fill="#FFA3A5" stroke="black" stroke-width="1.65"/>
<path d="M47.9312 47.0245C47.9312 55.2878 53.7307 61.8565 60.7354 61.8565C67.7401 61.8565 73.5396 55.2878 73.5396 47.0245C73.5396 38.7612 67.7401 32.1925 60.7354 32.1925C53.7307 32.1925 47.9312 38.7612 47.9312 47.0245Z" fill="white" stroke="black" stroke-width="1.04288"/>
<path d="M74.5826 47.0243C74.5826 55.2876 80.3821 61.8564 87.3868 61.8564C94.3914 61.8564 100.191 55.2876 100.191 47.0243C100.191 38.7611 94.3914 32.1923 87.3868 32.1923C80.3821 32.1923 74.5826 38.7611 74.5826 47.0243Z" fill="white" stroke="black" stroke-width="1.04288"/>
<ellipse cx="7.82157" cy="8.98032" rx="7.82157" ry="8.98032" transform="matrix(-1 0 0 1 90.2836 38.6237)" fill="black"/>
<path d="M48.5106 47.604C48.5106 52.3457 51.8443 56.0629 55.8108 56.0629C59.7772 56.0629 63.1109 52.3457 63.1109 47.604C63.1109 42.8623 59.7772 39.1451 55.8108 39.1451C51.8443 39.1451 48.5106 42.8623 48.5106 47.604Z" fill="black" stroke="black" stroke-width="1.04288"/>
</svg>
