<svg width="391" height="391" viewBox="0 0 391 391" fill="none" xmlns="http://www.w3.org/2000/svg">
<mask id="path-1-outside-1_329_1402" maskUnits="userSpaceOnUse" x="0.119141" y="0.0966797" width="391" height="391" fill="black">
<rect fill="white" x="0.119141" y="0.0966797" width="391" height="391"/>
<path fill-rule="evenodd" clip-rule="evenodd" d="M195.895 370.642C182.106 370.642 170.928 359.464 170.928 345.675V321.409C119.362 312.084 78.5001 271.996 68.035 220.836H46.0867C32.2975 220.836 21.1191 209.658 21.1191 195.868C21.1191 182.079 32.2975 170.901 46.0867 170.901H67.6705C77.5185 118.859 118.742 77.9132 170.928 68.4762V46.0642C170.928 32.2751 182.106 21.0967 195.895 21.0967C209.684 21.0967 220.863 32.2751 220.863 46.0642V69.2432C271.197 79.9684 310.624 120.16 320.225 170.901H345.697C359.486 170.901 370.665 182.079 370.665 195.868C370.665 209.658 359.486 220.836 345.697 220.836H319.861C309.661 270.701 270.583 310.048 220.863 320.642V345.675C220.863 359.464 209.684 370.642 195.895 370.642Z"/>
</mask>
<path fill-rule="evenodd" clip-rule="evenodd" d="M195.895 370.642C182.106 370.642 170.928 359.464 170.928 345.675V321.409C119.362 312.084 78.5001 271.996 68.035 220.836H46.0867C32.2975 220.836 21.1191 209.658 21.1191 195.868C21.1191 182.079 32.2975 170.901 46.0867 170.901H67.6705C77.5185 118.859 118.742 77.9132 170.928 68.4762V46.0642C170.928 32.2751 182.106 21.0967 195.895 21.0967C209.684 21.0967 220.863 32.2751 220.863 46.0642V69.2432C271.197 79.9684 310.624 120.16 320.225 170.901H345.697C359.486 170.901 370.665 182.079 370.665 195.868C370.665 209.658 359.486 220.836 345.697 220.836H319.861C309.661 270.701 270.583 310.048 220.863 320.642V345.675C220.863 359.464 209.684 370.642 195.895 370.642Z" fill="#FF6265"/>
<path d="M170.928 321.409H191.206V304.469L174.536 301.455L170.928 321.409ZM68.035 220.836L87.9017 216.772L84.5849 200.558H68.035V220.836ZM67.6705 170.901V191.179H84.4712L87.595 174.671L67.6705 170.901ZM170.928 68.4762L174.536 88.4307L191.206 85.4163V68.4762H170.928ZM195.895 21.0967V0.818541V21.0967ZM220.863 69.2432H200.585V85.6556L216.637 89.076L220.863 69.2432ZM320.225 170.901L300.301 174.671L303.424 191.179H320.225V170.901ZM319.861 220.836V200.558H303.311L299.994 216.772L319.861 220.836ZM220.863 320.642L216.637 300.809L200.585 304.23V320.642H220.863ZM150.65 345.675C150.65 370.663 170.907 390.92 195.895 390.92V350.364C193.305 350.364 191.206 348.265 191.206 345.675H150.65ZM150.65 321.409V345.675H191.206V321.409H150.65ZM174.536 301.455C131.147 293.608 96.709 259.827 87.9017 216.772L48.1682 224.9C60.2912 284.164 107.577 330.56 167.319 341.364L174.536 301.455ZM46.0867 241.114H68.035V200.558H46.0867V241.114ZM0.841002 195.868C0.841003 220.857 21.0982 241.114 46.0867 241.114V200.558C43.4968 200.558 41.3973 198.458 41.3973 195.868H0.841002ZM46.0867 150.623C21.0982 150.623 0.841 170.88 0.841002 195.868H41.3973C41.3973 193.278 43.4968 191.179 46.0867 191.179V150.623ZM67.6705 150.623H46.0867V191.179H67.6705V150.623ZM87.595 174.671C95.8824 130.876 130.622 96.3718 174.536 88.4307L167.319 48.5217C106.861 59.4547 59.1545 106.842 47.7459 167.13L87.595 174.671ZM150.65 46.0642V68.4762H191.206V46.0642H150.65ZM195.895 0.818541C170.907 0.818537 150.65 21.0758 150.65 46.0642H191.206C191.206 43.4744 193.305 41.3748 195.895 41.3748V0.818541ZM241.141 46.0642C241.141 21.0758 220.884 0.818544 195.895 0.818541V41.3748C198.485 41.3748 200.585 43.4743 200.585 46.0642H241.141ZM241.141 69.2432V46.0642H200.585V69.2432H241.141ZM216.637 89.076C258.997 98.1023 292.221 131.976 300.301 174.671L340.15 167.13C329.026 108.345 283.396 61.8345 225.089 49.4103L216.637 89.076ZM345.697 150.623H320.225V191.179H345.697V150.623ZM390.943 195.868C390.943 170.88 370.686 150.623 345.697 150.623V191.179C348.287 191.179 350.387 193.278 350.387 195.868H390.943ZM345.697 241.114C370.686 241.114 390.943 220.857 390.943 195.868H350.387C350.387 198.458 348.287 200.558 345.697 200.558V241.114ZM319.861 241.114H345.697V200.558H319.861V241.114ZM299.994 216.772C291.411 258.733 258.478 291.894 216.637 300.809L225.089 340.475C282.687 328.202 327.91 282.669 339.728 224.9L299.994 216.772ZM241.141 345.675V320.642H200.585V345.675H241.141ZM195.895 390.92C220.884 390.92 241.141 370.663 241.141 345.675H200.585C200.585 348.265 198.485 350.364 195.895 350.364V390.92Z" fill="white" mask="url(#path-1-outside-1_329_1402)"/>
<mask id="path-3-outside-2_329_1402" maskUnits="userSpaceOnUse" x="15.1191" y="15.0967" width="362" height="362" fill="black">
<rect fill="white" x="15.1191" y="15.0967" width="362" height="362"/>
<path fill-rule="evenodd" clip-rule="evenodd" d="M195.895 370.642C182.106 370.642 170.928 359.464 170.928 345.675V321.409C119.362 312.084 78.5001 271.996 68.035 220.836H46.0867C32.2975 220.836 21.1191 209.658 21.1191 195.868C21.1191 182.079 32.2975 170.901 46.0867 170.901H67.6705C77.5185 118.859 118.742 77.9132 170.928 68.4762V46.0642C170.928 32.2751 182.106 21.0967 195.895 21.0967C209.684 21.0967 220.863 32.2751 220.863 46.0642V69.2432C271.197 79.9684 310.624 120.16 320.225 170.901H345.697C359.486 170.901 370.665 182.079 370.665 195.868C370.665 209.658 359.486 220.836 345.697 220.836H319.861C309.661 270.701 270.583 310.048 220.863 320.642V345.675C220.863 359.464 209.684 370.642 195.895 370.642Z"/>
</mask>
<path fill-rule="evenodd" clip-rule="evenodd" d="M195.895 370.642C182.106 370.642 170.928 359.464 170.928 345.675V321.409C119.362 312.084 78.5001 271.996 68.035 220.836H46.0867C32.2975 220.836 21.1191 209.658 21.1191 195.868C21.1191 182.079 32.2975 170.901 46.0867 170.901H67.6705C77.5185 118.859 118.742 77.9132 170.928 68.4762V46.0642C170.928 32.2751 182.106 21.0967 195.895 21.0967C209.684 21.0967 220.863 32.2751 220.863 46.0642V69.2432C271.197 79.9684 310.624 120.16 320.225 170.901H345.697C359.486 170.901 370.665 182.079 370.665 195.868C370.665 209.658 359.486 220.836 345.697 220.836H319.861C309.661 270.701 270.583 310.048 220.863 320.642V345.675C220.863 359.464 209.684 370.642 195.895 370.642Z" fill="#FF6265"/>
<path d="M170.928 321.409H176.721V316.569L171.959 315.708L170.928 321.409ZM68.035 220.836L73.7112 219.675L72.7635 215.042H68.035V220.836ZM67.6705 170.901V176.695H72.4707L73.3632 171.978L67.6705 170.901ZM170.928 68.4762L171.959 74.1775L176.721 73.3163V68.4762H170.928ZM195.895 21.0967V15.3029V21.0967ZM220.863 69.2432H215.069V73.9324L219.655 74.9097L220.863 69.2432ZM320.225 170.901L314.533 171.978L315.425 176.695H320.225V170.901ZM319.861 220.836V215.042H315.132L314.185 219.675L319.861 220.836ZM220.863 320.642L219.655 314.976L215.069 315.953V320.642H220.863ZM165.134 345.675C165.134 362.664 178.906 376.436 195.895 376.436V364.849C185.306 364.849 176.721 356.264 176.721 345.675H165.134ZM165.134 321.409V345.675H176.721V321.409H165.134ZM171.959 315.708C122.729 306.806 83.7027 268.519 73.7112 219.675L62.3587 221.997C73.2976 275.472 115.995 317.363 169.897 327.11L171.959 315.708ZM46.0867 226.63H68.035V215.042H46.0867V226.63ZM15.3254 195.868C15.3254 212.857 29.0977 226.63 46.0867 226.63V215.042C35.4973 215.042 26.9129 206.458 26.9129 195.868H15.3254ZM46.0867 165.107C29.0977 165.107 15.3254 178.879 15.3254 195.868H26.9129C26.9129 185.279 35.4973 176.695 46.0867 176.695V165.107ZM67.6705 165.107H46.0867V176.695H67.6705V165.107ZM73.3632 171.978C82.7653 122.292 122.136 83.1871 171.959 74.1775L169.897 62.775C115.347 72.6394 72.2716 115.425 61.9777 169.824L73.3632 171.978ZM165.134 46.0642V68.4762H176.721V46.0642H165.134ZM195.895 15.3029C178.906 15.3029 165.134 29.0753 165.134 46.0642H176.721C176.721 35.4749 185.306 26.8904 195.895 26.8904V15.3029ZM226.657 46.0642C226.657 29.0753 212.884 15.3029 195.895 15.3029V26.8904C206.485 26.8904 215.069 35.4749 215.069 46.0642H226.657ZM226.657 69.2432V46.0642H215.069V69.2432H226.657ZM219.655 74.9097C267.711 85.1495 305.366 123.536 314.533 171.978L325.918 169.824C315.881 116.785 274.682 74.7873 222.07 63.5766L219.655 74.9097ZM345.697 165.107H320.225V176.695H345.697V165.107ZM376.459 195.868C376.459 178.879 362.686 165.107 345.697 165.107V176.695C356.287 176.695 364.871 185.279 364.871 195.868H376.459ZM345.697 226.63C362.686 226.63 376.459 212.857 376.459 195.868H364.871C364.871 206.458 356.287 215.042 345.697 215.042V226.63ZM319.861 226.63H345.697V215.042H319.861V226.63ZM314.185 219.675C304.446 267.281 267.124 304.861 219.655 314.976L222.07 326.309C274.041 315.235 314.875 274.12 325.537 221.997L314.185 219.675ZM226.657 345.675V320.642H215.069V345.675H226.657ZM195.895 376.436C212.884 376.436 226.657 362.664 226.657 345.675H215.069C215.069 356.264 206.485 364.849 195.895 364.849V376.436Z" fill="black" mask="url(#path-3-outside-2_329_1402)"/>
<circle cx="195.511" cy="200.187" r="79.9538" fill="#FFA3A5" stroke="black" stroke-width="2.3175"/>
<path d="M143.251 141.145C143.251 157.672 154.85 170.809 168.86 170.809C182.869 170.809 194.468 157.672 194.468 141.145C194.468 124.619 182.869 111.481 168.86 111.481C154.85 111.481 143.251 124.619 143.251 141.145Z" fill="white" stroke="black" stroke-width="2.08575"/>
<path d="M196.554 141.145C196.554 157.672 208.153 170.809 222.162 170.809C236.172 170.809 247.771 157.672 247.771 141.145C247.771 124.619 236.172 111.481 222.162 111.481C208.153 111.481 196.554 124.619 196.554 141.145Z" fill="white" stroke="black" stroke-width="2.08575"/>
<ellipse cx="15.6431" cy="17.9606" rx="15.6431" ry="17.9606" transform="matrix(-1 0 0 1 227.956 124.344)" fill="black"/>
<path d="M144.41 142.304C144.41 151.788 151.078 159.222 159.01 159.222C166.943 159.222 173.611 151.788 173.611 142.304C173.611 132.821 166.943 125.387 159.01 125.387C151.078 125.387 144.41 132.821 144.41 142.304Z" fill="black" stroke="black" stroke-width="2.08575"/>
</svg>
