<svg width="50" height="50" viewBox="0 0 50 50" fill="none" xmlns="http://www.w3.org/2000/svg">
<path fill-rule="evenodd" clip-rule="evenodd" d="M25.2073 11.25C23.0049 11.25 21.2194 13.0354 21.2194 15.2379V21.3249H15.2798C13.0542 21.3249 11.25 23.1291 11.25 25.3546C11.25 27.5802 13.0542 29.3844 15.2798 29.3844H21.2194V35.4706C21.2194 37.6731 23.0049 39.4585 25.2073 39.4585C27.4097 39.4585 29.1951 37.6731 29.1951 35.4706V29.3844H35.1352C37.3608 29.3844 39.165 27.5802 39.165 25.3546C39.165 23.1291 37.3608 21.3249 35.1352 21.3249H29.1951V15.2379C29.1951 13.0354 27.4097 11.25 25.2073 11.25Z" fill="#FEFEFE"/>
<path d="M21.2194 21.3249V21.9249H21.8194V21.3249H21.2194ZM21.2194 29.3844H21.8194V28.7844H21.2194V29.3844ZM29.1951 29.3844V28.7844H28.5951V29.3844H29.1951ZM29.1951 21.3249H28.5951V21.9249H29.1951V21.3249ZM21.8194 15.2379C21.8194 13.3668 23.3362 11.85 25.2073 11.85V10.65C22.6735 10.65 20.6194 12.704 20.6194 15.2379H21.8194ZM21.8194 21.3249V15.2379H20.6194V21.3249H21.8194ZM15.2798 21.9249H21.2194V20.7249H15.2798V21.9249ZM11.85 25.3546C11.85 23.4604 13.3856 21.9249 15.2798 21.9249V20.7249C12.7228 20.7249 10.65 22.7977 10.65 25.3546H11.85ZM15.2798 28.7844C13.3856 28.7844 11.85 27.2489 11.85 25.3546H10.65C10.65 27.9116 12.7228 29.9844 15.2798 29.9844V28.7844ZM21.2194 28.7844H15.2798V29.9844H21.2194V28.7844ZM21.8194 35.4706V29.3844H20.6194V35.4706H21.8194ZM25.2073 38.8585C23.3362 38.8585 21.8194 37.3417 21.8194 35.4706H20.6194C20.6194 38.0044 22.6735 40.0585 25.2073 40.0585V38.8585ZM28.5951 35.4706C28.5951 37.3417 27.0783 38.8585 25.2073 38.8585V40.0585C27.7411 40.0585 29.7951 38.0044 29.7951 35.4706H28.5951ZM28.5951 29.3844V35.4706H29.7951V29.3844H28.5951ZM35.1352 28.7844H29.1951V29.9844H35.1352V28.7844ZM38.565 25.3546C38.565 27.2489 37.0294 28.7844 35.1352 28.7844V29.9844C37.6922 29.9844 39.765 27.9116 39.765 25.3546H38.565ZM35.1352 21.9249C37.0294 21.9249 38.565 23.4604 38.565 25.3546H39.765C39.765 22.7977 37.6922 20.7249 35.1352 20.7249V21.9249ZM29.1951 21.9249H35.1352V20.7249H29.1951V21.9249ZM28.5951 15.2379V21.3249H29.7951V15.2379H28.5951ZM25.2073 11.85C27.0783 11.85 28.5951 13.3668 28.5951 15.2379H29.7951C29.7951 12.7041 27.7411 10.65 25.2073 10.65V11.85Z" fill="#0F0F0F"/>
</svg>
