<svg width="38" height="47" viewBox="0 0 38 47" fill="none" xmlns="http://www.w3.org/2000/svg">
<g filter="url(#filter0_d_497_1815)">
<path d="M21.8421 39.9333C27.7767 33.517 33 27.4515 33 20.2C33 11.8053 26.732 5 19 5C11.268 5 5 11.8053 5 20.2C5 27.4515 10.2233 33.517 16.1579 39.9333C17.1499 41.0058 17.6459 41.542 18.2207 41.7388C18.7272 41.9121 19.2728 41.9121 19.7793 41.7388C20.3541 41.542 20.8501 41.0058 21.8421 39.9333Z" fill="#FF6265"/>
<path d="M22.1365 40.2056C25.1024 36.9991 27.9155 33.8543 29.9851 30.5949C32.0576 27.3309 33.4011 23.927 33.4011 20.2C33.4011 11.6154 26.9839 4.59891 19 4.59891C11.0161 4.59891 4.59891 11.6154 4.59891 20.2C4.59891 23.927 5.94235 27.3309 8.01487 30.5949C10.0845 33.8543 12.8976 36.9991 15.8635 40.2056L15.876 40.2192C16.3614 40.744 16.7427 41.1563 17.075 41.4603C17.413 41.7697 17.7285 41.9942 18.0909 42.1183C18.6815 42.3204 19.3185 42.3204 19.9091 42.1183C20.2715 41.9942 20.587 41.7697 20.925 41.4603C21.2572 41.1563 21.6386 40.744 22.1239 40.2193L22.1365 40.2056Z" stroke="black" stroke-width="0.80218" stroke-linecap="round" stroke-linejoin="round"/>
</g>
<defs>
<filter id="filter0_d_497_1815" x="0.197754" y="0.197754" width="37.6044" height="46.4731" filterUnits="userSpaceOnUse" color-interpolation-filters="sRGB">
<feFlood flood-opacity="0" result="BackgroundImageFix"/>
<feColorMatrix in="SourceAlpha" type="matrix" values="0 0 0 0 0 0 0 0 0 0 0 0 0 0 0 0 0 0 127 0" result="hardAlpha"/>
<feOffset/>
<feGaussianBlur stdDeviation="2"/>
<feComposite in2="hardAlpha" operator="out"/>
<feColorMatrix type="matrix" values="0 0 0 0 0 0 0 0 0 0 0 0 0 0 0 0 0 0 0.25 0"/>
<feBlend mode="normal" in2="BackgroundImageFix" result="effect1_dropShadow_497_1815"/>
<feBlend mode="normal" in="SourceGraphic" in2="effect1_dropShadow_497_1815" result="shape"/>
</filter>
</defs>
</svg>
