<svg width="40" height="50" viewBox="0 0 46 50" fill="none" xmlns="http://www.w3.org/2000/svg">
<g filter="url(#filter0_d_497_1815)">
<path d="M26.7455 50.2424C35.2473 41.7199 43 33.7792 43 24.2C43 13.5961 34.4934 5 24 5C13.5066 5 5 13.5961 5 24.2C5 33.7792 12.7527 41.7199 21.2545 50.2424C22.2215 51.2117 22.705 51.6963 23.2552 51.8754C23.7418 52.0338 24.2582 52.0338 24.7448 51.8754C25.295 51.6963 25.7785 51.2117 26.7455 50.2424Z" fill="#FF6265"/>
<path d="M27.0294 50.5257C31.2757 46.2691 35.3646 42.1294 38.3885 37.8489C41.4155 33.564 43.4011 29.1035 43.4011 24.2C43.4011 13.3786 34.7189 4.59891 24 4.59891C13.2811 4.59891 4.59891 13.3786 4.59891 24.2C4.59891 29.1035 6.58448 33.564 9.61148 37.8489C12.6354 42.1294 16.7243 46.2691 20.9706 50.5256L20.9829 50.538C21.4559 51.0121 21.828 51.3852 22.1509 51.6604C22.4799 51.9409 22.7848 52.1441 23.1311 52.2568C23.6983 52.4414 24.3017 52.4414 24.8689 52.2568C25.2152 52.1441 25.5201 51.9409 25.8491 51.6605C26.1719 51.3852 26.544 51.0123 27.0168 50.5383L27.0294 50.5257Z" stroke="black" stroke-width="0.80218" stroke-linecap="round" stroke-linejoin="round"/>
</g>
<defs>
<filter id="filter0_d_497_1815" x="0.197754" y="0.197754" width="47.6044" height="56.5986" filterUnits="userSpaceOnUse" color-interpolation-filters="sRGB">
<feFlood flood-opacity="0" result="BackgroundImageFix"/>
<feColorMatrix in="SourceAlpha" type="matrix" values="0 0 0 0 0 0 0 0 0 0 0 0 0 0 0 0 0 0 127 0" result="hardAlpha"/>
<feOffset/>
<feGaussianBlur stdDeviation="2"/>
<feComposite in2="hardAlpha" operator="out"/>
<feColorMatrix type="matrix" values="0 0 0 0 0 0 0 0 0 0 0 0 0 0 0 0 0 0 0.25 0"/>
<feBlend mode="normal" in2="BackgroundImageFix" result="effect1_dropShadow_497_1815"/>
<feBlend mode="normal" in="SourceGraphic" in2="effect1_dropShadow_497_1815" result="shape"/>
</filter>
</defs>
</svg>
