<svg width="50" height="50" viewBox="0 0 50 50" fill="none" xmlns="http://www.w3.org/2000/svg">
<path d="M34.3844 28.75C32.6202 28.75 31.1938 27.3278 31.2313 25.6063C31.1938 23.8847 32.6202 22.5 34.3844 22.5C36.0361 22.5 37.5 23.8847 37.5 25.6063C37.5 27.3278 36.0361 28.75 34.3844 28.75Z" fill="white" stroke="black" stroke-width="1.2"/>
<path d="M25.0191 28.75C23.2549 28.75 21.8285 27.3278 21.866 25.6063C21.8285 23.8847 23.2549 22.5 25.0191 22.5C26.6708 22.5 28.1347 23.8847 28.1347 25.6063C28.1347 27.3278 26.6708 28.75 25.0191 28.75Z" fill="white" stroke="black" stroke-width="1.2"/>
<path d="M15.6538 28.75C13.8896 28.75 12.4632 27.3278 12.5007 25.6063C12.4632 23.8847 13.8896 22.5 15.6538 22.5C17.3055 22.5 18.7694 23.8847 18.7694 25.6063C18.7694 27.3278 17.3055 28.75 15.6538 28.75Z" fill="white" stroke="black" stroke-width="1.2"/>
</svg>
