<svg width="50" height="50" viewBox="0 0 50 50" fill="none" xmlns="http://www.w3.org/2000/svg">
<path d="M30.2004 17.1289L27.5868 11.8331C26.6147 9.86352 23.8061 9.86351 22.8341 11.8331L20.2204 17.1289C20.0238 17.5273 19.6437 17.8035 19.204 17.8674L13.3598 18.7166C11.1862 19.0324 10.3183 21.7036 11.8911 23.2367L16.12 27.3589C16.4382 27.669 16.5834 28.1159 16.5083 28.5538L15.51 34.3744C15.1387 36.5392 17.4109 38.1901 19.355 37.168L24.5822 34.4199C24.9755 34.2131 25.4453 34.2131 25.8386 34.4199L31.0659 37.168C33.01 38.1901 35.2822 36.5392 34.9109 34.3744L33.9126 28.5538C33.8375 28.1159 33.9826 27.669 34.3008 27.3589L38.5297 23.2367C40.1026 21.7036 39.2347 19.0324 37.0611 18.7166L31.2169 17.8674C30.7771 17.8035 30.397 17.5273 30.2004 17.1289Z" fill="white" stroke="black" stroke-width="1.3"/>
</svg>
