<svg width="50" height="50" viewBox="0 0 50 50" fill="none" xmlns="http://www.w3.org/2000/svg">
<mask id="path-1-inside-1_752_5698" fill="white">
<path fill-rule="evenodd" clip-rule="evenodd" d="M22.476 27.0635C19.5556 25.541 17.5001 22.0005 17.5001 18.5287C17.5001 13.9349 21.0989 6.25 25.5383 6.25C29.9777 6.25 33.5765 13.9349 33.5765 18.5287C33.5765 21.9635 31.5646 25.4655 28.6938 27.0141L29.389 39.9097C29.5065 42.0904 27.77 43.923 25.5862 43.923C23.4024 43.923 21.6659 42.0904 21.7834 39.9097L22.476 27.0635Z"/>
</mask>
<path fill-rule="evenodd" clip-rule="evenodd" d="M22.476 27.0635C19.5556 25.541 17.5001 22.0005 17.5001 18.5287C17.5001 13.9349 21.0989 6.25 25.5383 6.25C29.9777 6.25 33.5765 13.9349 33.5765 18.5287C33.5765 21.9635 31.5646 25.4655 28.6938 27.0141L29.389 39.9097C29.5065 42.0904 27.77 43.923 25.5862 43.923C23.4024 43.923 21.6659 42.0904 21.7834 39.9097L22.476 27.0635Z" fill="#FEFEFE"/>
<path d="M22.476 27.0635L23.0307 25.9994L23.7158 26.3566L23.6742 27.1281L22.476 27.0635ZM28.6938 27.0141L27.4955 27.0787L27.4545 26.3191L28.1241 25.9579L28.6938 27.0141ZM29.389 39.9097L28.1907 39.9743L28.1907 39.9743L29.389 39.9097ZM21.7834 39.9097L20.5852 39.8451L20.5852 39.8451L21.7834 39.9097ZM18.7001 18.5287C18.7001 21.5871 20.536 24.6989 23.0307 25.9994L21.9213 28.1276C18.5751 26.3832 16.3001 22.4139 16.3001 18.5287L18.7001 18.5287ZM25.5383 7.45C24.7888 7.45 23.9924 7.77326 23.1725 8.44873C22.3514 9.12511 21.5705 10.1055 20.8911 11.271C19.5212 13.6211 18.7001 16.4843 18.7001 18.5287L16.3001 18.5287C16.3001 15.9793 17.2783 12.7031 18.8177 10.0623C19.5929 8.7324 20.5441 7.50444 21.6465 6.59635C22.7499 5.68735 24.0681 5.05 25.5383 5.05L25.5383 7.45ZM32.3765 18.5287C32.3765 16.4843 31.5554 13.6211 30.1855 11.271C29.5061 10.1055 28.7252 9.12511 27.9041 8.44873C27.0842 7.77326 26.2878 7.45 25.5383 7.45L25.5383 5.05C27.0085 5.05 28.3267 5.68735 29.4301 6.59635C30.5325 7.50444 31.4837 8.73241 32.2589 10.0624C33.7983 12.7031 34.7765 15.9793 34.7765 18.5287L32.3765 18.5287ZM28.1241 25.9579C30.5806 24.6329 32.3765 21.5527 32.3765 18.5287L34.7765 18.5287C34.7765 22.3742 32.5486 26.2982 29.2634 28.0702L28.1241 25.9579ZM28.1907 39.9743L27.4955 27.0787L29.892 26.9495L30.5872 39.8451L28.1907 39.9743ZM25.5862 42.723C27.0819 42.723 28.2712 41.4678 28.1907 39.9743L30.5872 39.8451C30.7418 42.7129 28.4581 45.123 25.5862 45.123L25.5862 42.723ZM22.9817 39.9743C22.9012 41.4678 24.0905 42.723 25.5862 42.723L25.5862 45.123C22.7143 45.123 20.4306 42.7129 20.5852 39.8451L22.9817 39.9743ZM23.6742 27.1281L22.9817 39.9743L20.5852 39.8451L21.2777 26.9989L23.6742 27.1281Z" fill="#0F0F0F" mask="url(#path-1-inside-1_752_5698)"/>
</svg>
