<svg width="50" height="50" viewBox="0 0 50 50" fill="none" xmlns="http://www.w3.org/2000/svg">
<path d="M37.3683 36.6881C37.4817 37.3941 36.9364 38.0339 36.2214 38.0339L25.3994 38.0339L14.5773 38.0339C13.8623 38.0339 13.317 37.3941 13.4304 36.6881L16.5387 17.34C16.6292 16.7768 17.1152 16.3627 17.6856 16.3627L33.1131 16.3627C33.6835 16.3627 34.1695 16.7768 34.26 17.34L35.8437 27.1983L37.3683 36.6881Z" fill="#FEFEFE" stroke="black" stroke-width="1.2"/>
<path fill-rule="evenodd" clip-rule="evenodd" d="M23.5257 9.95783C24.0933 9.37175 24.8119 8.95996 25.6429 8.95996C26.4739 8.95996 27.1925 9.37175 27.7601 9.95783C28.3238 10.5398 28.7872 11.3376 29.1558 12.2564C29.5275 13.1829 29.8136 14.2596 30.0066 15.4209C30.1675 16.3891 30.2627 17.4105 30.2901 18.4454C30.7993 18.794 31.1339 19.3833 31.1339 20.0516C31.1339 21.1223 30.275 21.9903 29.2154 21.9903C28.1559 21.9903 27.2969 21.1223 27.2969 20.0516C27.2969 19.3214 27.6964 18.6855 28.2866 18.3549C28.2568 17.4568 28.1713 16.5771 28.0337 15.7487C27.8592 14.6991 27.6068 13.7668 27.2996 13.0011C26.9893 12.2277 26.6468 11.6831 26.3235 11.3493C26.0041 11.0195 25.772 10.96 25.6429 10.96C25.5138 10.96 25.2816 11.0195 24.9623 11.3493C24.6389 11.6831 24.2964 12.2277 23.9861 13.0011C23.6789 13.7668 23.4265 14.6991 23.2521 15.7487C23.1109 16.598 23.0247 17.5011 22.9971 18.4227C23.5252 18.7681 23.8747 19.3686 23.8747 20.0516C23.8747 21.1223 23.0158 21.9903 21.9562 21.9903C20.8967 21.9903 20.0377 21.1223 20.0377 20.0516C20.0377 19.3337 20.4238 18.707 20.9977 18.3719C21.0276 17.3621 21.122 16.3662 21.2791 15.4209C21.4721 14.2596 21.7582 13.1829 22.1299 12.2564C22.4985 11.3376 22.962 10.5398 23.5257 9.95783Z" fill="#FEFEFE"/>
<path d="M25.6429 8.95996V8.35996V8.95996ZM23.5257 9.95783L23.0947 9.5404L23.0947 9.5404L23.5257 9.95783ZM27.7601 9.95783L27.3291 10.3753L27.3291 10.3753L27.7601 9.95783ZM29.1558 12.2564L29.7127 12.033V12.033L29.1558 12.2564ZM30.0066 15.4209L29.4147 15.5192L30.0066 15.4209ZM30.2901 18.4454L29.6903 18.4613L29.6984 18.7675L29.9512 18.9405L30.2901 18.4454ZM28.2866 18.3549L28.5798 18.8783L28.8983 18.6999L28.8862 18.335L28.2866 18.3549ZM28.0337 15.7487L28.6256 15.6504L28.0337 15.7487ZM27.2996 13.0011L27.8565 12.7777L27.2996 13.0011ZM26.3235 11.3493L26.7545 10.9318V10.9318L26.3235 11.3493ZM24.9623 11.3493L24.5313 10.9318L24.5313 10.9318L24.9623 11.3493ZM23.9861 13.0011L24.543 13.2245L23.9861 13.0011ZM23.2521 15.7487L22.6602 15.6504L23.2521 15.7487ZM22.9971 18.4227L22.3973 18.4048L22.3872 18.7409L22.6687 18.9249L22.9971 18.4227ZM20.9977 18.3719L21.3003 18.89L21.5876 18.7222L21.5974 18.3896L20.9977 18.3719ZM21.2791 15.4209L20.6872 15.3225L21.2791 15.4209ZM22.1299 12.2564L22.6868 12.4798H22.6868L22.1299 12.2564ZM25.6429 8.35996C24.6005 8.35996 23.7361 8.87815 23.0947 9.5404L23.9566 10.3753C24.4505 9.86535 25.0232 9.55996 25.6429 9.55996V8.35996ZM28.1911 9.5404C27.5497 8.87815 26.6852 8.35996 25.6429 8.35996V9.55996C26.2625 9.55996 26.8352 9.86535 27.3291 10.3753L28.1911 9.5404ZM29.7127 12.033C29.3266 11.0706 28.8269 10.1968 28.1911 9.5404L27.3291 10.3753C27.8207 10.8828 28.2479 11.6046 28.599 12.4798L29.7127 12.033ZM30.5985 15.3225C30.4 14.1277 30.1037 13.0077 29.7127 12.033L28.599 12.4798C28.9513 13.3581 29.2273 14.3914 29.4147 15.5192L30.5985 15.3225ZM30.8899 18.4295C30.8618 17.3688 30.7642 16.3198 30.5985 15.3225L29.4147 15.5192C29.5708 16.4585 29.6636 17.4522 29.6903 18.4613L30.8899 18.4295ZM29.9512 18.9405C30.3025 19.181 30.5339 19.5879 30.5339 20.0516H31.7339C31.7339 19.1787 31.2961 18.4069 30.6291 17.9503L29.9512 18.9405ZM30.5339 20.0516C30.5339 20.7968 29.9377 21.3903 29.2154 21.3903V22.5903C30.6123 22.5903 31.7339 21.4477 31.7339 20.0516H30.5339ZM29.2154 21.3903C28.4931 21.3903 27.8969 20.7968 27.8969 20.0516H26.6969C26.6969 21.4477 27.8186 22.5903 29.2154 22.5903V21.3903ZM27.8969 20.0516C27.8969 19.545 28.1733 19.106 28.5798 18.8783L27.9933 17.8314C27.2194 18.2649 26.6969 19.0978 26.6969 20.0516H27.8969ZM27.4418 15.8471C27.5749 16.6479 27.6579 17.5012 27.6869 18.3747L28.8862 18.335C28.8557 17.4124 28.7678 16.5064 28.6256 15.6504L27.4418 15.8471ZM26.7428 13.2245C27.0306 13.942 27.2729 14.8309 27.4418 15.8471L28.6256 15.6504C28.4456 14.5672 28.183 13.5916 27.8565 12.7777L26.7428 13.2245ZM25.8925 11.7667C26.1437 12.0261 26.45 12.4947 26.7428 13.2245L27.8565 12.7777C27.5287 11.9607 27.1499 11.3401 26.7545 10.9318L25.8925 11.7667ZM25.6429 11.56C25.6106 11.56 25.6107 11.5515 25.647 11.5694C25.6865 11.5888 25.7699 11.6402 25.8925 11.7667L26.7545 10.9318C26.3584 10.5229 25.9801 10.36 25.6429 10.36V11.56ZM25.3933 11.7667C25.5158 11.6402 25.5992 11.5888 25.6387 11.5694C25.675 11.5515 25.6751 11.56 25.6429 11.56V10.36C25.3056 10.36 24.9273 10.5229 24.5313 10.9318L25.3933 11.7667ZM24.543 13.2245C24.8358 12.4947 25.142 12.0261 25.3933 11.7667L24.5313 10.9318C24.1358 11.3401 23.757 11.9607 23.4293 12.7777L24.543 13.2245ZM23.844 15.8471C24.0128 14.8309 24.2551 13.942 24.543 13.2245L23.4293 12.7777C23.1027 13.5916 22.8402 14.5672 22.6602 15.6504L23.844 15.8471ZM23.5968 18.4407C23.6237 17.5443 23.7075 16.668 23.844 15.8471L22.6602 15.6504C22.5144 16.5279 22.4257 17.458 22.3973 18.4048L23.5968 18.4407ZM24.4747 20.0516C24.4747 19.1594 24.0174 18.373 23.3254 17.9206L22.6687 18.9249C23.033 19.1631 23.2747 19.5777 23.2747 20.0516H24.4747ZM21.9562 22.5903C23.3531 22.5903 24.4747 21.4477 24.4747 20.0516H23.2747C23.2747 20.7968 22.6785 21.3903 21.9562 21.3903V22.5903ZM19.4377 20.0516C19.4377 21.4477 20.5594 22.5903 21.9562 22.5903V21.3903C21.2339 21.3903 20.6377 20.7968 20.6377 20.0516H19.4377ZM20.6951 17.8537C19.9428 18.293 19.4377 19.1138 19.4377 20.0516H20.6377C20.6377 19.5536 20.9049 19.1209 21.3003 18.89L20.6951 17.8537ZM20.6872 15.3225C20.5254 16.2962 20.4286 17.3191 20.3979 18.3541L21.5974 18.3896C21.6266 17.4051 21.7186 16.4362 21.871 15.5192L20.6872 15.3225ZM21.5731 12.033C21.182 13.0077 20.8858 14.1277 20.6872 15.3225L21.871 15.5192C22.0584 14.3914 22.3344 13.3581 22.6868 12.4798L21.5731 12.033ZM23.0947 9.5404C22.4589 10.1968 21.9592 11.0706 21.5731 12.033L22.6868 12.4798C23.0379 11.6046 23.4651 10.8828 23.9566 10.3753L23.0947 9.5404Z" fill="black"/>
</svg>
