<svg width="30" height="30" viewBox="0 0 30 30" fill="none" xmlns="http://www.w3.org/2000/svg">
<path d="M17.5868 2.83312C16.6147 0.863521 13.8061 0.863514 12.8341 2.83312L10.2204 8.12889C10.0238 8.52733 9.64369 8.8035 9.20398 8.86739L3.35976 9.71661C1.18618 10.0324 0.318268 12.7036 1.89109 14.2367L6.12001 18.3589C6.43819 18.669 6.58338 19.1159 6.50827 19.5538L5.50996 25.3744C5.13866 27.5392 7.41085 29.1901 9.35497 28.168L14.5822 25.4199C14.9755 25.2131 15.4453 25.2131 15.8386 25.4199L21.0659 28.168C23.01 29.1901 25.2822 27.5392 24.9109 25.3744L23.9126 19.5538C23.8375 19.1159 23.9826 18.669 24.3008 18.3589L28.5297 14.2367C30.1026 12.7036 29.2347 10.0324 27.0611 9.71661L21.2169 8.86739C20.7771 8.8035 20.397 8.52733 20.2004 8.12889L17.5868 2.83312Z" fill="currentColor" stroke="currentColor" stroke-width="1.3"/>
</svg>
