<svg width="50" height="50" viewBox="0 0 50 50" fill="none" xmlns="http://www.w3.org/2000/svg">
<path d="M20.6823 14.5178C20.6823 14.2368 20.91 14.009 21.191 14.009H39.3868C39.8578 14.009 40.076 14.5938 39.7201 14.9023L31.8622 21.7147C31.6282 21.9176 31.6282 22.2807 31.8622 22.4836L39.7201 29.296C40.076 29.6045 39.8578 30.1892 39.3868 30.1892H21.191C20.91 30.1892 20.6823 29.9614 20.6823 29.6804V14.5178Z" fill="#FEFEFE" stroke="black" stroke-width="1.2"/>
<path fill-rule="evenodd" clip-rule="evenodd" d="M19.1799 11.5859C19.9222 11.5859 20.5239 12.1877 20.5239 12.9299L20.5239 40.1127H17.8359L17.8359 12.9299C17.8359 12.1877 18.4377 11.5859 19.1799 11.5859Z" fill="#FEFEFE"/>
<path d="M20.5239 12.9299L19.9239 12.9299L20.5239 12.9299ZM20.5239 40.1127V40.7127H21.1239L21.1239 40.1127H20.5239ZM17.8359 40.1127H17.2359V40.7127H17.8359L17.8359 40.1127ZM17.8359 12.9299H17.2359H17.8359ZM21.1239 12.9299C21.1239 11.8563 20.2536 10.9859 19.1799 10.9859L19.1799 12.1859C19.5908 12.1859 19.9239 12.519 19.9239 12.9299L21.1239 12.9299ZM21.1239 40.1127L21.1239 12.9299L19.9239 12.9299L19.9239 40.1127H21.1239ZM17.8359 40.7127H20.5239V39.5127H17.8359L17.8359 40.7127ZM17.2359 12.9299L17.2359 40.1127H18.4359L18.4359 12.9299L17.2359 12.9299ZM19.1799 10.9859C18.1063 10.9859 17.2359 11.8563 17.2359 12.9299L18.4359 12.9299C18.4359 12.519 18.769 12.1859 19.1799 12.1859L19.1799 10.9859Z" fill="black"/>
</svg>
