<svg width="20" height="21" viewBox="0 0 20 21" fill="none" xmlns="http://www.w3.org/2000/svg">
<path d="M9.8476 13.704C6.49153 13.704 3.50701 15.3245 1.6069 17.8392C1.19795 18.3804 0.99347 18.651 1.00016 19.0168C1.00533 19.2993 1.18276 19.6558 1.40509 19.8302C1.69286 20.0561 2.09164 20.0561 2.8892 20.0561H16.806C17.6036 20.0561 18.0023 20.0561 18.2901 19.8302C18.5124 19.6558 18.6899 19.2993 18.695 19.0168C18.7017 18.651 18.4972 18.3804 18.0883 17.8392C16.1882 15.3245 13.2037 13.704 9.8476 13.704Z" fill="#CBD1D9"/>
<path d="M9.8476 10.528C12.4787 10.528 14.6116 8.39511 14.6116 5.76402C14.6116 3.13292 12.4787 1 9.8476 1C7.2165 1 5.08358 3.13292 5.08358 5.76402C5.08358 8.39511 7.2165 10.528 9.8476 10.528Z" fill="#CBD1D9"/>
<path d="M9.8476 13.704C6.49153 13.704 3.50701 15.3245 1.6069 17.8392C1.19795 18.3804 0.99347 18.651 1.00016 19.0168C1.00533 19.2993 1.18276 19.6558 1.40509 19.8302C1.69286 20.0561 2.09164 20.0561 2.8892 20.0561H16.806C17.6036 20.0561 18.0023 20.0561 18.2901 19.8302C18.5124 19.6558 18.6899 19.2993 18.695 19.0168C18.7017 18.651 18.4972 18.3804 18.0883 17.8392C16.1882 15.3245 13.2037 13.704 9.8476 13.704Z" stroke="#CBD1D9" stroke-linecap="round" stroke-linejoin="round"/>
<path d="M9.8476 10.528C12.4787 10.528 14.6116 8.39511 14.6116 5.76402C14.6116 3.13292 12.4787 1 9.8476 1C7.2165 1 5.08358 3.13292 5.08358 5.76402C5.08358 8.39511 7.2165 10.528 9.8476 10.528Z" stroke="#CBD1D9" stroke-linecap="round" stroke-linejoin="round"/>
</svg>
